<svg id="svg" version="1.1" xmlns="http://www.w3.org/2000/svg" xmlns:xlink="http://www.w3.org/1999/xlink" width="400" height="400" viewBox="0, 0, 400,400"><g id="svgg"><path id="path0" d="M35.332 140.740 C 33.044 141.425,32.179 144.084,33.640 145.942 C 34.058 146.473,34.401 147.469,34.403 148.154 C 34.404 148.839,34.763 149.940,35.200 150.600 C 35.637 151.260,35.996 152.073,35.997 152.406 C 35.999 152.739,36.360 153.684,36.800 154.504 C 37.240 155.325,37.602 156.313,37.604 156.699 C 37.606 157.084,38.050 158.300,38.591 159.400 C 39.132 160.500,39.581 161.708,39.587 162.084 C 39.594 162.461,39.937 163.091,40.349 163.484 C 40.761 163.878,41.224 165.068,41.378 166.129 C 41.532 167.190,42.005 168.405,42.429 168.829 C 42.853 169.253,43.200 170.008,43.200 170.506 C 43.200 171.004,43.547 172.060,43.972 172.852 C 44.396 173.644,44.867 174.948,45.017 175.750 C 45.168 176.552,45.437 177.299,45.616 177.410 C 45.795 177.521,46.161 178.284,46.429 179.106 C 46.697 179.928,47.250 181.029,47.658 181.554 C 48.073 182.087,48.400 183.156,48.400 183.976 C 48.400 184.914,48.761 185.934,49.400 186.800 C 49.950 187.545,50.401 188.615,50.403 189.178 C 50.404 189.740,50.763 190.740,51.200 191.400 C 51.637 192.060,51.997 192.870,52.000 193.200 C 52.003 193.530,52.254 194.278,52.559 194.861 C 52.863 195.445,53.321 196.556,53.577 197.329 C 53.832 198.103,54.298 198.949,54.612 199.210 C 54.927 199.471,55.303 200.582,55.448 201.679 C 55.594 202.776,56.024 203.972,56.405 204.337 C 56.786 204.702,57.224 205.868,57.378 206.929 C 57.532 207.990,58.005 209.205,58.429 209.629 C 58.853 210.053,59.201 210.895,59.203 211.500 C 59.204 212.105,59.559 213.137,59.992 213.794 C 60.425 214.450,60.894 215.755,61.035 216.694 C 61.176 217.632,61.436 218.400,61.614 218.400 C 61.792 218.400,62.158 219.075,62.427 219.900 C 62.696 220.725,63.250 221.829,63.658 222.354 C 64.085 222.903,64.400 223.957,64.400 224.838 C 64.400 225.881,64.669 226.620,65.246 227.157 C 65.792 227.666,66.167 228.628,66.304 229.873 C 66.421 230.933,66.850 232.229,67.258 232.754 C 67.666 233.279,68.000 233.911,68.000 234.160 C 68.000 234.408,68.360 235.284,68.800 236.104 C 69.240 236.925,69.600 237.958,69.600 238.399 C 69.600 238.839,69.941 239.541,70.358 239.958 C 70.774 240.374,71.243 241.499,71.400 242.458 C 71.556 243.416,72.002 244.560,72.390 245.000 C 72.777 245.440,73.204 246.651,73.338 247.691 C 73.473 248.731,73.920 249.920,74.332 250.332 C 74.759 250.759,75.199 251.967,75.354 253.141 C 75.505 254.273,75.780 255.200,75.965 255.200 C 76.151 255.200,76.534 255.785,76.817 256.500 C 77.100 257.215,77.553 258.070,77.822 258.400 C 78.092 258.730,78.437 259.760,78.590 260.688 C 78.742 261.617,79.211 262.815,79.633 263.351 C 80.055 263.887,80.400 264.949,80.400 265.709 C 80.400 266.500,80.753 267.541,81.224 268.140 C 81.677 268.716,82.152 269.865,82.278 270.694 C 82.405 271.522,82.731 272.470,83.004 272.800 C 83.276 273.130,83.714 274.120,83.976 275.000 C 85.070 278.667,86.197 280.220,91.200 284.956 C 91.530 285.268,92.644 285.650,93.676 285.804 C 94.713 285.958,95.858 286.423,96.238 286.842 C 97.313 288.029,301.524 288.033,303.033 286.845 C 303.561 286.430,304.622 285.972,305.390 285.828 C 306.159 285.684,307.376 285.026,308.094 284.366 L 309.400 283.166 308.400 282.391 C 307.850 281.965,306.770 281.410,306.000 281.158 C 305.230 280.905,304.330 280.478,304.000 280.209 C 303.670 279.940,301.915 279.025,300.100 278.177 C 298.285 277.329,296.800 276.496,296.800 276.325 C 296.800 276.155,295.585 275.466,294.100 274.795 C 292.615 274.124,291.130 273.398,290.800 273.182 C 290.470 272.966,289.455 272.447,288.544 272.028 C 287.633 271.609,286.768 271.071,286.620 270.833 C 286.473 270.595,286.039 270.400,285.656 270.400 C 285.273 270.400,283.825 269.663,282.440 268.763 C 281.054 267.863,279.321 266.875,278.588 266.569 C 277.854 266.263,277.150 265.843,277.023 265.637 C 276.895 265.430,276.215 265.135,275.511 264.980 C 274.807 264.826,273.729 264.362,273.116 263.950 C 272.502 263.537,271.505 262.873,270.900 262.474 C 270.295 262.075,266.830 260.263,263.200 258.448 C 259.570 256.633,254.980 254.249,253.000 253.152 C 251.020 252.054,248.905 250.947,248.300 250.690 C 247.695 250.434,247.200 250.099,247.200 249.944 C 247.200 249.790,246.300 249.365,245.200 249.000 C 244.100 248.635,243.200 248.184,243.200 248.000 C 243.200 247.815,242.679 247.549,242.041 247.409 C 241.404 247.269,240.573 246.812,240.193 246.392 C 239.814 245.973,238.850 245.420,238.052 245.163 C 237.253 244.906,236.364 244.508,236.075 244.278 C 235.469 243.796,231.514 241.635,228.600 240.193 C 227.500 239.649,225.160 238.420,223.400 237.461 C 221.640 236.503,218.850 235.040,217.200 234.210 C 215.550 233.381,213.930 232.547,213.600 232.357 C 213.270 232.167,212.377 231.732,211.615 231.391 C 210.853 231.049,209.953 230.523,209.615 230.222 C 209.277 229.920,206.120 228.200,202.600 226.399 C 199.080 224.598,195.300 222.635,194.200 222.037 C 193.100 221.439,190.220 219.927,187.800 218.678 C 185.380 217.428,183.213 216.253,182.984 216.066 C 182.586 215.740,176.430 212.564,172.200 210.502 C 171.100 209.965,169.930 209.366,169.600 209.169 C 169.270 208.973,168.460 208.566,167.800 208.265 C 167.140 207.965,165.919 207.255,165.088 206.689 C 164.256 206.122,161.876 204.827,159.799 203.810 C 157.722 202.793,155.926 201.803,155.807 201.611 C 155.688 201.419,155.051 201.143,154.391 200.998 C 153.732 200.853,152.950 200.492,152.654 200.197 C 152.119 199.661,146.732 196.800,146.259 196.800 C 146.123 196.800,145.134 196.260,144.062 195.600 C 142.980 194.934,141.551 194.400,140.853 194.400 C 140.009 194.400,139.308 194.071,138.725 193.400 C 138.204 192.801,137.428 192.400,136.790 192.400 C 136.204 192.400,135.407 192.050,135.021 191.623 C 134.634 191.195,133.751 190.725,133.059 190.578 C 132.366 190.431,131.530 190.079,131.200 189.795 C 130.870 189.512,129.970 188.985,129.200 188.624 C 126.717 187.461,124.605 186.313,124.400 186.014 C 124.290 185.854,123.710 185.603,123.111 185.457 C 122.512 185.310,121.702 184.858,121.311 184.452 C 120.920 184.045,120.138 183.602,119.574 183.467 C 119.009 183.332,118.127 182.857,117.613 182.411 C 117.098 181.965,116.277 181.600,115.788 181.600 C 115.298 181.600,114.711 181.374,114.482 181.099 C 114.253 180.823,112.894 179.997,111.462 179.262 C 110.029 178.527,108.546 177.583,108.166 177.163 C 107.787 176.743,107.054 176.400,106.538 176.400 C 106.022 176.400,105.240 176.040,104.800 175.600 C 104.360 175.160,103.767 174.800,103.482 174.800 C 102.591 174.800,95.831 171.180,95.190 170.359 C 94.855 169.930,93.918 169.471,93.108 169.340 C 92.297 169.208,91.329 168.763,90.955 168.350 C 90.582 167.938,89.979 167.600,89.616 167.600 C 89.253 167.600,88.345 167.150,87.600 166.600 C 86.855 166.050,85.840 165.600,85.346 165.600 C 84.852 165.600,84.327 165.405,84.180 165.167 C 84.032 164.929,83.167 164.381,82.256 163.950 C 79.305 162.552,78.414 161.974,77.989 161.180 C 77.720 160.676,77.152 160.400,76.386 160.400 C 75.734 160.400,74.858 160.058,74.441 159.641 C 74.023 159.223,73.136 158.762,72.468 158.615 C 71.801 158.468,71.048 158.099,70.796 157.795 C 70.543 157.490,69.675 157.027,68.868 156.765 C 68.061 156.503,66.402 155.594,65.183 154.744 C 63.963 153.895,62.596 153.200,62.145 153.200 C 61.693 153.200,60.998 152.840,60.600 152.400 C 60.202 151.960,59.558 151.600,59.169 151.600 C 58.780 151.600,57.927 151.150,57.273 150.600 C 56.619 150.050,55.779 149.600,55.405 149.600 C 55.032 149.600,54.269 149.240,53.709 148.800 C 53.150 148.360,52.453 148.000,52.160 148.000 C 51.868 148.000,51.435 147.640,51.200 147.200 C 50.946 146.726,50.362 146.400,49.767 146.400 C 49.209 146.400,48.350 145.955,47.835 145.400 C 47.298 144.821,46.465 144.400,45.854 144.400 C 45.274 144.400,44.458 144.058,44.041 143.641 C 43.623 143.223,42.711 142.756,42.014 142.603 C 41.316 142.450,40.653 142.083,40.540 141.788 C 40.384 141.381,36.720 140.222,36.280 140.440 C 36.236 140.462,35.809 140.597,35.332 140.740 " stroke="none" fill="#fb4b4b" fill-rule="evenodd"></path><path id="path1" d="M196.700 112.676 C 196.315 112.776,196.000 113.109,196.000 113.415 C 196.000 113.721,195.640 114.165,195.200 114.400 C 194.760 114.635,194.400 115.059,194.400 115.342 C 194.400 115.625,193.950 116.247,193.400 116.725 C 192.850 117.203,192.400 117.864,192.400 118.194 C 192.400 118.524,192.040 119.018,191.600 119.293 C 191.160 119.568,190.800 120.095,190.800 120.466 C 190.800 120.836,190.350 121.673,189.800 122.327 C 189.250 122.981,188.800 123.615,188.800 123.738 C 188.800 124.211,185.917 128.313,184.500 129.856 C 184.005 130.395,183.600 131.073,183.600 131.363 C 183.600 131.803,182.480 133.462,180.854 135.431 C 180.658 135.668,180.381 136.229,180.239 136.678 C 180.096 137.127,179.624 137.816,179.190 138.209 C 178.755 138.602,178.400 139.162,178.400 139.453 C 178.400 139.744,177.950 140.276,177.400 140.637 C 176.850 140.997,176.400 141.558,176.400 141.883 C 176.400 142.457,175.540 143.727,173.700 145.869 C 173.205 146.445,172.799 147.206,172.798 147.558 C 172.797 147.911,171.987 149.092,170.998 150.183 C 170.009 151.274,169.200 152.281,169.200 152.422 C 169.200 152.563,168.840 153.093,168.400 153.600 C 167.960 154.107,167.600 154.848,167.600 155.246 C 167.600 155.643,167.270 156.291,166.867 156.684 C 166.465 157.078,165.108 158.975,163.854 160.900 C 162.599 162.825,161.413 164.400,161.218 164.400 C 161.023 164.400,160.745 164.940,160.600 165.600 C 160.455 166.259,160.020 167.024,159.633 167.300 C 158.943 167.791,158.243 168.912,157.009 171.500 C 156.668 172.215,156.241 172.800,156.059 172.800 C 155.877 172.800,155.523 173.250,155.273 173.800 C 155.022 174.350,154.566 174.800,154.259 174.800 C 153.951 174.800,153.593 175.337,153.461 175.994 C 153.330 176.651,152.857 177.501,152.411 177.883 C 151.965 178.265,151.597 178.763,151.594 178.989 C 151.591 179.215,150.950 180.300,150.171 181.400 C 149.391 182.500,148.449 183.894,148.077 184.497 C 147.705 185.101,147.175 185.596,146.900 185.597 C 146.625 185.599,146.400 185.941,146.400 186.358 C 146.400 186.775,145.953 187.540,145.407 188.058 C 144.861 188.576,144.411 189.216,144.407 189.480 C 144.369 192.148,140.538 194.500,139.000 192.800 C 138.602 192.360,137.989 191.997,137.638 191.994 C 137.287 191.991,136.595 191.766,136.101 191.494 C 135.606 191.222,133.132 189.949,130.603 188.665 C 128.074 187.381,125.911 186.180,125.797 185.995 C 125.682 185.810,124.916 185.443,124.094 185.180 C 123.272 184.917,122.240 184.390,121.800 184.008 C 121.360 183.627,119.110 182.380,116.800 181.237 C 114.490 180.094,111.700 178.640,110.600 178.006 C 109.500 177.371,105.928 175.492,102.662 173.830 C 99.396 172.168,96.206 170.371,95.572 169.838 C 94.938 169.304,93.830 168.742,93.110 168.589 C 92.389 168.436,91.530 168.088,91.200 167.815 C 90.870 167.542,87.926 165.996,84.657 164.380 C 81.389 162.764,78.628 161.216,78.522 160.940 C 78.416 160.664,77.743 160.245,77.026 160.008 C 76.309 159.772,74.750 159.055,73.561 158.416 C 72.372 157.776,70.282 156.716,68.915 156.059 C 67.549 155.402,65.839 154.419,65.115 153.876 C 64.392 153.332,63.215 152.764,62.500 152.612 C 61.785 152.460,61.200 152.195,61.200 152.022 C 61.200 151.848,60.345 151.330,59.300 150.870 C 56.667 149.710,52.510 147.423,51.686 146.680 C 51.309 146.340,50.512 145.941,49.916 145.792 C 49.320 145.643,48.631 145.278,48.384 144.981 C 48.138 144.684,47.275 144.229,46.468 143.970 C 45.661 143.711,44.730 143.273,44.400 142.997 C 44.070 142.721,43.350 142.362,42.800 142.200 C 42.250 142.038,41.517 141.658,41.171 141.355 C 37.019 137.722,29.503 141.985,32.982 146.000 C 33.268 146.330,33.623 147.440,33.771 148.467 C 33.918 149.494,34.288 150.541,34.592 150.793 C 34.896 151.046,35.329 152.095,35.555 153.126 C 35.780 154.157,36.333 155.713,36.782 156.585 C 37.232 157.456,37.600 158.419,37.600 158.724 C 37.600 159.029,38.306 160.746,39.169 162.539 C 40.032 164.333,40.869 166.340,41.030 167.000 C 41.191 167.660,41.655 168.827,42.061 169.594 C 42.468 170.361,42.800 171.263,42.800 171.600 C 42.800 171.937,43.160 172.884,43.600 173.704 C 44.040 174.525,44.400 175.537,44.400 175.952 C 44.400 176.368,45.102 178.123,45.959 179.854 C 46.817 181.584,47.646 183.630,47.802 184.400 C 47.959 185.170,48.407 186.340,48.800 187.000 C 49.193 187.660,49.645 188.830,49.807 189.600 C 49.968 190.370,50.437 191.478,50.850 192.062 C 51.262 192.646,51.602 193.546,51.605 194.062 C 51.608 194.578,52.307 196.364,53.158 198.032 C 54.010 199.699,54.835 201.679,54.992 202.432 C 55.150 203.184,55.524 204.188,55.824 204.663 C 56.124 205.137,56.582 206.397,56.841 207.463 C 57.101 208.528,57.526 209.670,57.787 210.000 C 58.048 210.330,58.490 211.397,58.768 212.371 C 59.047 213.345,59.506 214.515,59.789 214.971 C 60.071 215.427,60.406 216.364,60.532 217.054 C 60.658 217.744,61.325 219.454,62.015 220.854 C 62.704 222.254,63.540 224.300,63.873 225.400 C 64.206 226.500,64.708 227.670,64.990 228.000 C 65.272 228.330,65.623 229.440,65.771 230.467 C 65.918 231.494,66.289 232.542,66.594 232.795 C 66.899 233.048,67.273 233.820,67.424 234.510 C 67.576 235.200,68.380 237.212,69.211 238.982 C 70.042 240.752,70.924 242.957,71.172 243.883 C 71.419 244.809,71.779 245.663,71.971 245.782 C 72.163 245.900,72.541 246.943,72.811 248.099 C 73.081 249.254,73.526 250.470,73.800 250.800 C 74.074 251.130,74.519 252.346,74.789 253.501 C 75.059 254.657,75.431 255.695,75.614 255.809 C 76.105 256.112,77.873 260.104,78.206 261.659 C 78.363 262.397,78.665 263.215,78.876 263.477 C 79.088 263.740,79.505 264.883,79.805 266.018 C 80.104 267.152,80.630 268.392,80.974 268.772 C 81.318 269.152,81.600 269.906,81.600 270.447 C 81.600 270.988,81.967 272.144,82.415 273.015 C 82.863 273.887,83.413 275.406,83.637 276.391 C 83.861 277.376,84.394 278.508,84.822 278.906 C 85.250 279.305,85.600 279.783,85.600 279.969 C 85.600 281.139,91.385 285.973,93.270 286.378 C 94.365 286.613,95.531 287.074,95.860 287.402 C 96.942 288.485,302.129 288.284,303.910 287.199 C 304.630 286.759,305.569 286.400,305.996 286.400 C 306.938 286.400,309.437 284.274,310.180 282.841 C 310.477 282.268,311.180 281.304,311.742 280.699 C 313.502 278.802,313.485 276.471,311.695 274.388 C 310.298 272.761,308.800 270.646,308.800 270.301 C 308.800 270.086,308.119 269.076,307.288 268.056 C 305.038 265.295,303.600 263.042,303.600 262.278 C 303.600 261.905,303.425 261.600,303.210 261.600 C 302.996 261.600,302.523 261.015,302.158 260.300 C 301.794 259.585,301.258 258.730,300.967 258.400 C 300.675 258.070,300.114 257.434,299.719 256.987 C 298.533 255.644,296.899 253.062,296.601 252.061 C 296.447 251.544,296.057 250.824,295.735 250.461 C 294.303 248.846,292.800 246.646,292.800 246.165 C 292.800 245.876,292.550 245.496,292.245 245.320 C 291.636 244.968,288.828 240.937,287.013 237.806 C 286.377 236.709,285.081 234.819,284.133 233.606 C 281.103 229.726,280.853 229.351,280.588 228.295 C 280.445 227.725,279.984 226.948,279.564 226.567 C 279.144 226.187,278.800 225.674,278.800 225.427 C 278.800 225.180,278.485 224.694,278.100 224.348 C 277.715 224.001,277.090 223.196,276.711 222.559 C 275.987 221.341,273.500 217.758,272.779 216.893 C 272.546 216.614,272.141 215.886,271.878 215.275 C 271.615 214.664,271.172 213.902,270.893 213.582 C 270.091 212.661,267.666 209.159,264.560 204.436 C 263.922 203.466,263.130 202.276,262.800 201.792 C 262.470 201.308,261.188 199.402,259.951 197.556 C 258.713 195.710,257.228 193.764,256.651 193.230 C 256.073 192.697,255.600 191.960,255.600 191.592 C 255.600 191.225,255.245 190.602,254.810 190.209 C 254.376 189.816,253.922 189.184,253.801 188.804 C 253.681 188.425,252.866 187.338,251.991 186.390 C 251.116 185.442,250.400 184.498,250.400 184.291 C 250.400 184.085,249.950 183.381,249.400 182.727 C 248.850 182.073,248.400 181.310,248.400 181.031 C 248.400 180.752,248.040 180.198,247.600 179.800 C 247.160 179.402,246.800 178.759,246.800 178.372 C 246.800 177.984,245.990 176.798,245.000 175.735 C 244.010 174.671,243.200 173.604,243.200 173.363 C 243.200 173.121,242.840 172.598,242.400 172.200 C 241.960 171.802,241.600 171.151,241.600 170.754 C 241.600 170.356,241.264 169.709,240.854 169.316 C 240.444 168.922,239.876 168.150,239.591 167.600 C 239.306 167.050,238.742 166.365,238.337 166.077 C 237.931 165.790,237.600 165.314,237.600 165.020 C 237.600 164.726,237.336 164.384,237.013 164.260 C 236.690 164.136,236.146 163.442,235.806 162.717 C 234.902 160.797,233.898 159.170,233.100 158.334 C 232.715 157.930,232.400 157.420,232.400 157.200 C 232.400 156.980,232.040 156.440,231.600 156.000 C 231.160 155.560,230.800 154.906,230.800 154.546 C 230.800 154.186,230.395 153.497,229.900 153.014 C 228.695 151.839,227.767 150.659,227.168 149.540 C 226.896 149.032,226.432 148.375,226.137 148.080 C 225.842 147.784,225.600 147.314,225.600 147.034 C 225.600 146.754,225.150 146.001,224.600 145.362 C 224.051 144.723,223.601 143.868,223.600 143.463 C 223.600 143.057,223.285 142.640,222.900 142.536 C 222.515 142.431,221.750 141.610,221.200 140.710 C 220.650 139.811,219.795 138.465,219.300 137.719 C 218.805 136.974,218.400 136.263,218.400 136.140 C 218.400 136.017,217.950 135.381,217.400 134.727 C 216.850 134.073,216.400 133.302,216.400 133.012 C 216.400 132.723,216.168 132.397,215.885 132.288 C 215.601 132.179,214.669 130.945,213.813 129.545 C 212.957 128.145,212.019 126.856,211.728 126.680 C 211.438 126.504,211.200 126.004,211.200 125.568 C 211.200 125.132,210.946 124.678,210.637 124.559 C 210.327 124.440,209.844 123.770,209.564 123.071 C 209.283 122.372,208.629 121.260,208.110 120.600 C 207.591 119.940,206.859 118.984,206.483 118.475 C 206.107 117.966,205.485 117.201,205.100 116.775 C 204.715 116.349,204.398 115.775,204.396 115.500 C 204.378 113.375,200.072 111.794,196.700 112.676 M38.348 140.826 C 39.440 141.060,40.427 141.494,40.540 141.788 C 40.653 142.083,41.316 142.450,42.014 142.603 C 42.711 142.756,43.623 143.223,44.041 143.641 C 44.458 144.058,45.274 144.400,45.854 144.400 C 46.465 144.400,47.298 144.821,47.835 145.400 C 48.350 145.955,49.209 146.400,49.767 146.400 C 50.362 146.400,50.946 146.726,51.200 147.200 C 51.435 147.640,51.868 148.000,52.160 148.000 C 52.453 148.000,53.150 148.360,53.709 148.800 C 54.269 149.240,55.032 149.600,55.405 149.600 C 55.779 149.600,56.619 150.050,57.273 150.600 C 57.927 151.150,58.780 151.600,59.169 151.600 C 59.558 151.600,60.202 151.960,60.600 152.400 C 60.998 152.840,61.693 153.200,62.145 153.200 C 62.596 153.200,63.963 153.895,65.183 154.744 C 66.402 155.594,68.061 156.503,68.868 156.765 C 69.675 157.027,70.543 157.490,70.796 157.795 C 71.048 158.099,71.801 158.468,72.468 158.615 C 73.136 158.762,74.023 159.223,74.441 159.641 C 74.858 160.058,75.734 160.400,76.386 160.400 C 77.152 160.400,77.720 160.676,77.989 161.180 C 78.414 161.974,79.305 162.552,82.256 163.950 C 83.167 164.381,84.032 164.929,84.180 165.167 C 84.327 165.405,84.852 165.600,85.346 165.600 C 85.840 165.600,86.855 166.050,87.600 166.600 C 88.345 167.150,89.253 167.600,89.616 167.600 C 89.979 167.600,90.582 167.938,90.955 168.350 C 91.329 168.763,92.297 169.208,93.108 169.340 C 93.918 169.471,94.855 169.930,95.190 170.359 C 95.831 171.180,102.591 174.800,103.482 174.800 C 103.767 174.800,104.360 175.160,104.800 175.600 C 105.240 176.040,106.022 176.400,106.538 176.400 C 107.054 176.400,107.787 176.743,108.166 177.163 C 108.546 177.583,110.029 178.527,111.462 179.262 C 112.894 179.997,114.253 180.823,114.482 181.099 C 114.711 181.374,115.298 181.600,115.788 181.600 C 116.277 181.600,117.098 181.965,117.613 182.411 C 118.127 182.857,119.009 183.332,119.574 183.467 C 120.138 183.602,120.920 184.045,121.311 184.452 C 121.702 184.858,122.512 185.310,123.111 185.457 C 123.710 185.603,124.290 185.854,124.400 186.014 C 124.605 186.313,126.717 187.461,129.200 188.624 C 129.970 188.985,130.870 189.512,131.200 189.795 C 131.530 190.079,132.366 190.431,133.059 190.578 C 133.751 190.725,134.634 191.195,135.021 191.623 C 135.407 192.050,136.204 192.400,136.790 192.400 C 137.428 192.400,138.204 192.801,138.725 193.400 C 139.308 194.071,140.009 194.400,140.853 194.400 C 141.551 194.400,142.980 194.934,144.062 195.600 C 145.134 196.260,146.123 196.800,146.259 196.800 C 146.732 196.800,152.119 199.661,152.654 200.197 C 152.950 200.492,153.732 200.853,154.391 200.998 C 155.051 201.143,155.688 201.419,155.807 201.611 C 155.926 201.803,157.722 202.793,159.799 203.810 C 161.876 204.827,164.256 206.122,165.088 206.689 C 165.919 207.255,167.140 207.965,167.800 208.265 C 168.460 208.566,169.270 208.973,169.600 209.169 C 169.930 209.366,171.100 209.965,172.200 210.502 C 176.430 212.564,182.586 215.740,182.984 216.066 C 183.213 216.253,185.380 217.428,187.800 218.678 C 190.220 219.927,193.100 221.439,194.200 222.037 C 195.300 222.635,199.080 224.598,202.600 226.399 C 206.120 228.200,209.277 229.920,209.615 230.222 C 209.953 230.523,210.853 231.049,211.615 231.391 C 212.377 231.732,213.270 232.167,213.600 232.357 C 213.930 232.547,215.550 233.381,217.200 234.210 C 218.850 235.040,221.640 236.503,223.400 237.461 C 225.160 238.420,227.500 239.649,228.600 240.193 C 231.514 241.635,235.469 243.796,236.075 244.278 C 236.364 244.508,237.253 244.906,238.052 245.163 C 238.850 245.420,239.814 245.973,240.193 246.392 C 240.573 246.812,241.404 247.269,242.041 247.409 C 242.679 247.549,243.200 247.815,243.200 248.000 C 243.200 248.184,244.100 248.635,245.200 249.000 C 246.300 249.365,247.200 249.790,247.200 249.944 C 247.200 250.099,247.695 250.434,248.300 250.690 C 248.905 250.947,251.020 252.054,253.000 253.152 C 254.980 254.249,259.570 256.633,263.200 258.448 C 266.830 260.263,270.295 262.075,270.900 262.474 C 271.505 262.873,272.502 263.537,273.116 263.950 C 273.729 264.362,274.807 264.826,275.511 264.980 C 276.215 265.135,276.895 265.430,277.023 265.637 C 277.150 265.843,277.854 266.263,278.588 266.569 C 279.321 266.875,281.054 267.863,282.440 268.763 C 283.825 269.663,285.273 270.400,285.656 270.400 C 286.039 270.400,286.473 270.595,286.620 270.833 C 286.768 271.071,287.633 271.609,288.544 272.028 C 289.455 272.447,290.470 272.966,290.800 273.182 C 291.130 273.398,292.615 274.124,294.100 274.795 C 295.585 275.466,296.800 276.155,296.800 276.325 C 296.800 276.496,298.285 277.329,300.100 278.177 C 301.915 279.025,303.670 279.940,304.000 280.209 C 304.330 280.478,305.230 280.905,306.000 281.158 C 306.770 281.410,307.850 281.965,308.400 282.391 L 309.400 283.166 308.094 284.366 C 307.376 285.026,306.159 285.684,305.390 285.828 C 304.622 285.972,303.561 286.430,303.033 286.845 C 301.524 288.033,97.313 288.029,96.238 286.842 C 95.858 286.423,94.713 285.958,93.676 285.804 C 92.644 285.650,91.530 285.268,91.200 284.956 C 86.197 280.220,85.070 278.667,83.976 275.000 C 83.714 274.120,83.276 273.130,83.004 272.800 C 82.731 272.470,82.405 271.522,82.278 270.694 C 82.152 269.865,81.677 268.716,81.224 268.140 C 80.753 267.541,80.400 266.500,80.400 265.709 C 80.400 264.949,80.055 263.887,79.633 263.351 C 79.211 262.815,78.742 261.617,78.590 260.688 C 78.437 259.760,78.092 258.730,77.822 258.400 C 77.553 258.070,77.100 257.215,76.817 256.500 C 76.534 255.785,76.151 255.200,75.965 255.200 C 75.780 255.200,75.505 254.273,75.354 253.141 C 75.199 251.967,74.759 250.759,74.332 250.332 C 73.920 249.920,73.473 248.731,73.338 247.691 C 73.204 246.651,72.777 245.440,72.390 245.000 C 72.002 244.560,71.556 243.416,71.400 242.458 C 71.243 241.499,70.774 240.374,70.358 239.958 C 69.941 239.541,69.600 238.839,69.600 238.399 C 69.600 237.958,69.240 236.925,68.800 236.104 C 68.360 235.284,68.000 234.408,68.000 234.160 C 68.000 233.911,67.666 233.279,67.258 232.754 C 66.850 232.229,66.421 230.933,66.304 229.873 C 66.167 228.628,65.792 227.666,65.246 227.157 C 64.669 226.620,64.400 225.881,64.400 224.838 C 64.400 223.957,64.085 222.903,63.658 222.354 C 63.250 221.829,62.696 220.725,62.427 219.900 C 62.158 219.075,61.792 218.400,61.614 218.400 C 61.436 218.400,61.176 217.632,61.035 216.694 C 60.894 215.755,60.425 214.450,59.992 213.794 C 59.559 213.137,59.204 212.105,59.203 211.500 C 59.201 210.895,58.853 210.053,58.429 209.629 C 58.005 209.205,57.532 207.990,57.378 206.929 C 57.224 205.868,56.786 204.702,56.405 204.337 C 56.024 203.972,55.594 202.776,55.448 201.679 C 55.303 200.582,54.927 199.471,54.612 199.210 C 54.298 198.949,53.832 198.103,53.577 197.329 C 53.321 196.556,52.863 195.445,52.559 194.861 C 52.254 194.278,52.003 193.530,52.000 193.200 C 51.997 192.870,51.637 192.060,51.200 191.400 C 50.763 190.740,50.404 189.740,50.403 189.178 C 50.401 188.615,49.950 187.545,49.400 186.800 C 48.761 185.934,48.400 184.914,48.400 183.976 C 48.400 183.156,48.073 182.087,47.658 181.554 C 47.250 181.029,46.697 179.928,46.429 179.106 C 46.161 178.284,45.795 177.521,45.616 177.410 C 45.437 177.299,45.168 176.552,45.017 175.750 C 44.867 174.948,44.396 173.644,43.972 172.852 C 43.547 172.060,43.200 171.004,43.200 170.506 C 43.200 170.008,42.853 169.253,42.429 168.829 C 42.005 168.405,41.532 167.190,41.378 166.129 C 41.224 165.068,40.761 163.878,40.349 163.484 C 39.937 163.091,39.594 162.461,39.587 162.084 C 39.581 161.708,39.132 160.500,38.591 159.400 C 38.050 158.300,37.606 157.084,37.604 156.699 C 37.602 156.313,37.240 155.325,36.800 154.504 C 36.360 153.684,35.999 152.739,35.997 152.406 C 35.996 152.073,35.637 151.260,35.200 150.600 C 34.763 149.940,34.404 148.839,34.403 148.154 C 34.401 147.469,34.058 146.473,33.640 145.942 C 32.179 144.084,33.044 141.425,35.332 140.740 C 35.809 140.597,36.236 140.462,36.280 140.440 C 36.324 140.418,37.255 140.592,38.348 140.826 " stroke="none" fill="#fc8c8c" fill-rule="evenodd"></path><path id="path2" d="M197.400 111.200 C 197.264 111.420,196.822 111.600,196.418 111.600 C 195.580 111.600,194.067 113.297,190.804 117.897 C 190.142 118.830,189.600 119.692,189.600 119.813 C 189.600 119.935,189.418 120.251,189.195 120.517 C 187.440 122.612,186.400 124.225,186.400 124.852 C 186.400 125.259,186.040 125.818,185.600 126.093 C 185.160 126.368,184.800 126.792,184.800 127.037 C 184.800 127.281,184.305 128.016,183.700 128.670 C 183.095 129.323,182.060 130.730,181.400 131.795 C 180.740 132.861,179.715 134.468,179.122 135.366 C 178.528 136.265,177.808 137.384,177.522 137.853 C 177.235 138.322,176.100 140.002,175.000 141.585 C 173.900 143.169,172.725 144.945,172.388 145.532 C 171.312 147.410,170.268 148.988,169.828 149.404 C 168.760 150.412,166.800 153.209,166.800 153.724 C 166.800 154.038,166.080 155.200,165.200 156.305 C 164.320 157.410,163.600 158.482,163.600 158.688 C 163.600 158.893,163.150 159.483,162.600 160.000 C 162.050 160.517,161.600 161.153,161.600 161.415 C 161.600 161.676,161.105 162.539,160.500 163.331 C 157.822 166.840,156.824 168.276,156.416 169.205 C 156.002 170.150,154.742 172.046,153.365 173.800 C 153.019 174.240,151.402 176.670,149.772 179.200 C 146.809 183.797,145.928 185.050,144.800 186.268 C 144.200 186.916,143.680 187.778,142.226 190.533 C 141.247 192.389,140.148 192.446,137.064 190.800 C 135.827 190.140,134.561 189.600,134.250 189.600 C 133.940 189.600,133.595 189.364,133.484 189.076 C 133.374 188.787,132.566 188.337,131.689 188.074 C 130.812 187.811,129.872 187.327,129.598 186.998 C 129.325 186.669,128.773 186.400,128.372 186.400 C 127.970 186.400,127.156 185.950,126.562 185.400 C 125.969 184.850,125.013 184.400,124.438 184.400 C 123.842 184.400,123.187 184.071,122.915 183.636 C 122.653 183.216,121.890 182.751,121.219 182.604 C 120.549 182.457,120.000 182.176,120.000 181.980 C 120.000 181.783,118.481 180.898,116.624 180.011 C 114.766 179.125,113.144 178.234,113.019 178.031 C 112.893 177.828,112.272 177.547,111.637 177.408 C 111.002 177.269,110.166 176.805,109.779 176.377 C 109.393 175.950,108.699 175.605,108.238 175.612 C 107.409 175.624,107.409 175.629,108.200 176.078 C 108.640 176.327,109.090 176.647,109.200 176.788 C 109.310 176.929,110.120 177.411,111.000 177.859 C 118.391 181.621,121.200 183.142,122.174 183.908 C 122.798 184.399,123.619 184.800,124.000 184.800 C 124.381 184.800,125.121 185.124,125.646 185.520 C 126.171 185.916,128.724 187.299,131.321 188.592 C 133.917 189.886,136.133 191.092,136.245 191.272 C 136.356 191.452,136.772 191.600,137.170 191.600 C 137.567 191.600,138.366 191.973,138.945 192.428 C 140.183 193.402,141.540 193.315,142.159 192.222 C 143.706 189.490,146.334 185.531,147.642 183.960 C 148.485 182.948,149.364 181.688,149.596 181.160 C 149.827 180.632,150.556 179.480,151.214 178.600 C 151.873 177.720,152.670 176.415,152.985 175.700 C 153.301 174.985,153.718 174.400,153.912 174.400 C 154.279 174.400,156.780 170.748,156.827 170.144 C 156.841 169.955,157.468 168.990,158.219 168.000 C 158.970 167.010,159.877 165.677,160.235 165.038 C 160.592 164.398,161.226 163.509,161.643 163.062 C 162.059 162.615,162.400 162.101,162.400 161.921 C 162.400 161.740,163.402 160.237,164.626 158.582 C 165.851 156.926,167.101 154.993,167.404 154.285 C 167.707 153.578,168.777 152.010,169.780 150.800 C 170.784 149.590,171.968 147.880,172.411 147.000 C 173.135 145.561,175.298 142.329,176.962 140.200 C 177.964 138.918,182.800 131.492,182.801 131.234 C 182.801 131.105,183.342 130.370,184.003 129.600 C 184.663 128.830,185.305 127.885,185.429 127.500 C 185.553 127.115,185.830 126.800,186.046 126.800 C 186.262 126.800,186.659 126.305,186.929 125.700 C 187.389 124.669,190.374 119.895,191.124 118.990 C 191.311 118.764,191.808 118.044,192.229 117.390 C 195.292 112.624,197.280 111.273,200.441 111.807 C 202.287 112.119,204.513 113.875,205.528 115.819 C 205.898 116.528,206.965 118.110,207.900 119.336 C 208.835 120.563,209.600 121.726,209.600 121.921 C 209.600 122.116,209.960 122.602,210.400 123.000 C 210.840 123.398,211.200 123.921,211.201 124.162 C 211.201 124.403,211.920 125.590,212.798 126.800 C 213.676 128.010,214.613 129.450,214.881 130.000 C 215.148 130.550,216.011 131.810,216.798 132.800 C 218.351 134.754,220.400 137.838,220.400 138.221 C 220.400 138.427,223.082 142.144,224.989 144.581 C 225.325 145.011,225.600 145.510,225.600 145.690 C 225.600 146.099,227.564 149.138,228.495 150.171 C 228.878 150.594,229.295 151.269,229.422 151.671 C 229.550 152.072,229.805 152.400,229.989 152.400 C 230.265 152.400,232.601 156.064,233.154 157.364 C 233.240 157.565,234.004 158.645,234.853 159.764 C 235.702 160.884,236.397 161.947,236.398 162.127 C 236.400 162.450,238.043 164.750,239.200 166.046 C 240.096 167.051,241.412 169.023,243.638 172.695 C 244.737 174.508,245.987 176.179,246.418 176.409 C 246.848 176.640,247.200 177.116,247.200 177.468 C 247.200 178.154,252.070 185.728,253.274 186.916 C 253.673 187.309,254.000 187.770,254.000 187.940 C 254.000 188.110,254.341 188.615,254.757 189.062 C 255.174 189.509,255.807 190.440,256.164 191.131 C 256.522 191.822,257.481 193.055,258.297 193.870 C 259.763 195.336,261.600 197.796,261.600 198.292 C 261.600 198.433,261.985 198.958,262.456 199.459 C 262.926 199.960,263.511 200.712,263.756 201.129 C 264.921 203.120,267.569 207.063,269.100 209.090 C 270.035 210.327,270.800 211.550,270.800 211.808 C 270.800 212.065,271.160 212.602,271.600 213.000 C 272.040 213.398,272.400 213.944,272.400 214.213 C 272.400 214.482,272.653 214.912,272.963 215.169 C 273.273 215.426,273.821 216.259,274.182 217.018 C 274.543 217.778,275.009 218.400,275.219 218.400 C 275.428 218.400,275.600 218.639,275.600 218.930 C 275.600 219.222,276.050 219.883,276.600 220.400 C 277.150 220.917,277.600 221.569,277.600 221.849 C 277.600 222.129,278.050 222.844,278.600 223.438 C 279.150 224.031,279.600 224.761,279.600 225.058 C 279.600 225.356,279.783 225.600,280.006 225.600 C 280.230 225.600,280.725 226.275,281.106 227.100 C 281.488 227.925,281.937 228.780,282.105 229.000 C 282.272 229.220,282.947 230.100,283.605 230.955 C 284.262 231.810,284.800 232.665,284.800 232.855 C 284.800 233.045,285.115 233.516,285.500 233.902 C 286.382 234.787,288.800 238.426,288.800 238.869 C 288.800 239.051,289.074 239.515,289.408 239.900 C 290.965 241.693,293.600 245.222,293.600 245.514 C 293.600 245.693,294.410 246.953,295.400 248.314 C 296.390 249.674,297.203 250.925,297.207 251.094 C 297.211 251.262,297.754 252.210,298.413 253.200 C 299.072 254.190,299.834 255.341,300.106 255.758 C 300.378 256.174,301.014 256.984,301.519 257.558 C 302.734 258.935,304.400 261.531,304.400 262.044 C 304.400 262.269,304.850 263.043,305.400 263.764 C 305.950 264.486,306.400 265.194,306.400 265.338 C 306.400 265.482,306.715 265.942,307.100 266.359 C 309.109 268.540,309.511 269.083,309.794 270.000 C 309.963 270.550,310.340 271.270,310.632 271.600 C 310.924 271.930,311.522 272.595,311.960 273.079 C 313.106 274.342,314.000 276.207,314.000 277.334 C 314.000 279.809,308.877 285.964,306.272 286.618 C 305.681 286.766,304.530 287.228,303.714 287.644 C 301.405 288.821,97.793 288.831,95.594 287.653 C 94.827 287.243,93.571 286.769,92.802 286.600 C 89.967 285.978,83.930 279.565,83.370 276.580 C 83.212 275.736,82.762 274.495,82.370 273.823 C 81.979 273.150,81.533 271.880,81.379 271.000 C 81.225 270.120,80.868 269.130,80.587 268.800 C 80.305 268.470,79.860 267.390,79.598 266.400 C 79.336 265.410,78.978 264.420,78.802 264.200 C 78.626 263.980,78.211 262.900,77.881 261.800 C 77.087 259.154,75.766 256.150,75.260 255.837 C 75.037 255.699,74.650 254.602,74.400 253.400 C 74.150 252.198,73.783 251.113,73.583 250.990 C 73.384 250.867,72.957 249.918,72.635 248.883 C 72.313 247.847,71.484 245.560,70.793 243.800 C 70.103 242.040,69.434 240.240,69.308 239.800 C 69.182 239.360,68.768 238.550,68.389 238.000 C 68.010 237.450,67.565 236.370,67.400 235.600 C 67.235 234.830,66.785 233.750,66.399 233.200 C 66.013 232.650,65.566 231.390,65.405 230.400 C 65.244 229.410,64.879 228.330,64.594 228.000 C 64.308 227.670,63.860 226.590,63.599 225.600 C 63.337 224.610,62.510 222.575,61.762 221.078 C 61.013 219.581,60.400 218.049,60.400 217.675 C 60.400 217.300,59.950 216.148,59.400 215.115 C 58.850 214.082,58.400 212.908,58.400 212.507 C 58.400 212.106,58.150 211.421,57.844 210.984 C 57.538 210.547,57.001 209.292,56.652 208.195 C 55.969 206.052,54.407 201.709,53.659 199.874 C 53.407 199.255,53.200 198.652,53.200 198.536 C 53.200 198.419,52.855 197.840,52.434 197.248 C 52.013 196.657,51.538 195.459,51.379 194.586 C 51.220 193.714,50.776 192.550,50.393 192.000 C 50.011 191.450,49.570 190.235,49.414 189.300 C 49.257 188.365,48.971 187.600,48.776 187.600 C 48.581 187.600,48.124 186.565,47.759 185.300 C 47.395 184.035,46.490 181.789,45.748 180.310 C 45.007 178.830,44.394 177.300,44.387 176.910 C 44.381 176.519,43.932 175.300,43.391 174.200 C 42.850 173.100,42.406 171.861,42.404 171.447 C 42.402 171.033,42.059 170.133,41.643 169.447 C 41.227 168.761,40.756 167.584,40.596 166.831 C 40.437 166.078,39.607 164.111,38.753 162.460 C 37.899 160.810,37.200 159.107,37.200 158.677 C 37.200 158.247,36.855 157.333,36.434 156.647 C 36.012 155.961,35.537 154.680,35.378 153.800 C 35.219 152.920,34.776 151.750,34.393 151.200 C 34.011 150.650,33.564 149.400,33.401 148.423 C 33.237 147.446,32.855 146.398,32.552 146.095 C 30.883 144.426,32.960 140.077,35.763 139.373 C 36.771 139.121,39.963 140.016,41.037 140.853 C 41.779 141.431,46.176 143.590,46.622 143.595 C 46.855 143.598,47.655 144.050,48.400 144.600 C 49.145 145.150,50.058 145.600,50.429 145.600 C 50.799 145.600,51.323 145.867,51.594 146.193 C 51.865 146.519,53.282 147.395,54.743 148.140 C 56.204 148.884,58.837 150.238,60.592 151.147 C 62.348 152.056,63.982 152.800,64.223 152.800 C 64.464 152.800,65.083 153.250,65.600 153.800 C 66.117 154.350,66.737 154.800,66.978 154.800 C 67.219 154.800,68.402 155.336,69.608 155.991 C 72.743 157.695,76.628 159.600,76.967 159.600 C 77.615 159.600,75.936 158.336,74.730 157.916 C 74.018 157.668,72.818 157.045,72.062 156.532 C 71.307 156.020,70.521 155.600,70.316 155.600 C 70.111 155.600,69.673 155.330,69.343 155.000 C 69.013 154.670,68.316 154.400,67.794 154.400 C 67.272 154.400,66.610 154.073,66.323 153.674 C 65.893 153.077,63.197 151.614,60.000 150.242 C 59.670 150.100,58.680 149.545,57.800 149.009 C 56.920 148.473,55.424 147.668,54.475 147.220 C 53.526 146.773,52.478 146.135,52.146 145.803 C 51.814 145.472,51.220 145.200,50.825 145.200 C 50.431 145.200,49.679 144.885,49.154 144.500 C 48.629 144.115,47.120 143.280,45.800 142.644 C 44.480 142.008,43.130 141.330,42.800 141.136 C 42.470 140.942,41.570 140.497,40.800 140.147 C 40.030 139.797,39.287 139.331,39.149 139.111 C 39.012 138.892,38.086 138.621,37.092 138.509 C 33.291 138.081,30.169 143.168,32.000 146.805 C 32.220 147.242,32.580 147.958,32.800 148.395 C 33.020 148.832,33.200 149.485,33.200 149.847 C 33.200 150.209,33.545 151.067,33.966 151.753 C 34.388 152.439,34.861 153.720,35.017 154.600 C 35.173 155.480,35.538 156.473,35.828 156.806 C 36.118 157.140,36.555 158.307,36.800 159.400 C 37.045 160.493,37.480 161.660,37.768 161.994 C 38.055 162.327,38.612 163.461,39.005 164.513 C 39.397 165.565,39.872 166.521,40.059 166.637 C 40.247 166.752,40.400 167.281,40.400 167.811 C 40.400 168.342,40.749 169.398,41.176 170.158 C 41.603 170.918,42.072 172.177,42.218 172.956 C 42.364 173.734,42.726 174.573,43.022 174.818 C 43.318 175.064,43.680 176.063,43.827 177.037 C 43.973 178.012,44.431 179.241,44.846 179.768 C 45.261 180.295,45.602 180.968,45.604 181.263 C 45.606 181.558,46.050 182.700,46.591 183.800 C 47.132 184.900,47.581 186.181,47.587 186.646 C 47.594 187.111,47.960 187.950,48.400 188.509 C 48.840 189.069,49.200 189.993,49.200 190.563 C 49.200 191.133,49.534 191.934,49.941 192.341 C 50.359 192.759,50.775 193.906,50.895 194.966 C 51.022 196.096,51.444 197.208,51.948 197.744 C 52.410 198.236,52.902 199.260,53.043 200.019 C 53.183 200.779,53.511 201.760,53.771 202.200 C 54.032 202.640,54.480 203.808,54.768 204.797 C 55.055 205.785,55.540 206.950,55.845 207.386 C 56.150 207.821,56.400 208.550,56.400 209.004 C 56.400 209.459,56.750 210.516,57.177 211.354 C 57.604 212.192,58.066 213.388,58.203 214.011 C 58.339 214.635,58.701 215.352,59.006 215.605 C 59.311 215.858,59.680 216.863,59.827 217.837 C 59.973 218.812,60.431 220.041,60.846 220.568 C 61.261 221.095,61.602 221.768,61.604 222.063 C 61.606 222.358,62.050 223.500,62.591 224.600 C 63.132 225.700,63.581 226.960,63.589 227.400 C 63.597 227.840,63.962 228.789,64.401 229.510 C 64.841 230.230,65.200 231.183,65.200 231.628 C 65.200 232.073,65.650 233.282,66.200 234.315 C 66.750 235.348,67.200 236.573,67.200 237.036 C 67.200 237.499,67.549 238.280,67.975 238.772 C 68.402 239.263,68.875 240.229,69.026 240.917 C 69.177 241.605,69.626 242.805,70.025 243.584 C 70.423 244.363,70.869 245.669,71.016 246.486 C 71.163 247.303,71.535 248.180,71.842 248.435 C 72.149 248.690,72.400 249.243,72.400 249.665 C 72.400 250.087,72.745 251.108,73.167 251.935 C 73.588 252.761,74.059 254.106,74.212 254.924 C 74.366 255.742,74.715 256.544,74.989 256.706 C 75.263 256.868,75.720 257.720,76.004 258.600 C 76.289 259.480,76.742 260.560,77.012 261.000 C 77.282 261.440,77.615 262.412,77.753 263.160 C 77.891 263.908,78.338 265.258,78.747 266.160 C 79.155 267.062,79.714 268.430,79.990 269.200 C 80.266 269.970,80.812 271.500,81.204 272.600 C 81.596 273.700,82.204 275.140,82.556 275.800 C 82.907 276.460,83.196 277.379,83.198 277.842 C 83.199 278.304,83.605 279.148,84.100 279.717 C 88.161 284.380,88.946 285.200,89.349 285.200 C 89.601 285.200,90.032 285.560,90.307 286.000 C 90.582 286.440,91.189 286.800,91.656 286.800 C 92.123 286.800,93.157 287.205,93.953 287.700 L 95.400 288.600 199.810 288.600 L 304.220 288.600 305.364 287.700 C 305.993 287.205,306.853 286.800,307.274 286.800 C 308.879 286.800,315.200 279.244,315.200 277.325 C 315.200 276.900,315.464 276.204,315.787 275.776 C 316.110 275.349,316.380 274.532,316.387 273.960 C 316.394 273.387,316.850 272.073,317.400 271.038 C 317.950 270.004,318.400 268.714,318.400 268.171 C 318.400 267.628,318.850 266.471,319.400 265.600 C 319.950 264.729,320.400 263.598,320.400 263.088 C 320.400 262.578,320.564 261.989,320.765 261.780 C 321.266 261.259,323.200 256.402,323.200 255.666 C 323.200 255.338,323.718 254.244,324.352 253.235 C 324.985 252.226,325.624 250.595,325.771 249.610 C 325.918 248.626,326.283 247.546,326.583 247.210 C 326.883 246.875,327.426 245.568,327.790 244.307 C 328.155 243.046,328.621 241.911,328.826 241.784 C 329.032 241.657,329.200 241.113,329.200 240.575 C 329.200 240.037,329.560 238.925,330.000 238.104 C 330.440 237.284,330.800 236.408,330.800 236.160 C 330.800 235.911,331.137 235.279,331.548 234.754 C 331.959 234.229,332.427 233.170,332.587 232.400 C 332.747 231.630,333.220 230.405,333.639 229.677 C 334.057 228.950,334.400 228.108,334.400 227.807 C 334.400 227.287,336.515 221.749,337.219 220.425 C 337.402 220.081,337.653 219.318,337.776 218.728 C 337.900 218.138,338.274 217.383,338.607 217.050 C 338.940 216.717,339.391 215.502,339.609 214.350 C 339.828 213.198,340.262 211.973,340.573 211.628 C 340.885 211.283,341.359 210.100,341.626 209.000 C 341.894 207.900,342.340 206.730,342.617 206.400 C 342.894 206.070,343.340 204.990,343.607 204.000 C 343.874 203.010,344.325 201.660,344.610 201.000 C 345.408 199.146,346.325 196.704,346.633 195.608 C 346.787 195.062,347.230 194.162,347.619 193.608 C 348.007 193.053,348.447 191.890,348.596 191.021 C 348.744 190.153,349.196 189.023,349.600 188.509 C 350.003 187.996,350.450 186.887,350.592 186.045 C 350.735 185.203,351.290 183.648,351.826 182.589 C 352.361 181.531,352.800 180.425,352.800 180.133 C 352.800 179.666,354.979 174.429,356.600 171.000 C 356.912 170.340,357.293 169.080,357.446 168.200 C 357.600 167.320,358.071 166.133,358.493 165.561 C 358.914 164.990,359.364 163.742,359.492 162.788 C 359.620 161.834,360.417 159.853,361.262 158.387 C 362.108 156.920,362.800 155.308,362.800 154.804 C 362.800 153.886,363.067 153.229,365.755 147.544 C 367.134 144.627,367.568 142.800,366.882 142.800 C 366.707 142.800,365.878 141.900,365.039 140.800 C 363.219 138.413,361.665 138.123,359.673 139.800 C 359.019 140.350,358.313 140.800,358.102 140.800 C 357.892 140.800,356.970 141.343,356.054 142.007 C 355.138 142.670,353.536 143.499,352.494 143.848 C 351.452 144.198,350.330 144.705,350.000 144.976 C 349.670 145.247,348.821 145.697,348.113 145.977 C 347.406 146.257,346.619 146.737,346.364 147.043 C 346.110 147.349,345.619 147.600,345.273 147.600 C 344.670 147.600,341.983 149.249,340.871 150.300 C 340.581 150.575,340.091 150.800,339.783 150.800 C 339.121 150.800,334.634 153.034,333.906 153.726 C 333.628 153.991,331.240 155.261,328.600 156.548 C 321.523 159.999,320.679 160.447,319.800 161.218 C 319.360 161.605,315.472 163.643,311.160 165.747 C 306.848 167.851,303.101 169.838,302.833 170.161 C 302.564 170.484,301.772 170.870,301.072 171.019 C 300.373 171.167,299.508 171.546,299.151 171.860 C 298.318 172.594,291.551 175.998,290.923 175.999 C 290.660 176.000,290.202 176.347,289.905 176.772 C 289.607 177.196,288.832 177.674,288.182 177.833 C 287.532 177.992,286.510 178.529,285.910 179.026 C 285.311 179.524,284.141 180.149,283.310 180.415 C 282.480 180.681,281.440 181.223,281.000 181.620 C 280.560 182.016,279.723 182.459,279.140 182.604 C 278.556 182.748,277.700 183.220,277.236 183.653 C 276.772 184.085,275.638 184.704,274.716 185.030 C 273.794 185.355,272.761 185.872,272.420 186.179 C 272.079 186.486,271.260 186.863,270.600 187.017 C 269.940 187.170,269.219 187.518,268.998 187.790 C 268.777 188.062,266.617 189.234,264.198 190.395 C 261.779 191.555,259.740 192.661,259.667 192.852 C 259.284 193.851,257.386 192.170,256.306 189.874 C 255.925 189.063,255.430 188.400,255.206 188.400 C 254.983 188.400,254.800 188.162,254.800 187.872 C 254.800 187.582,254.395 186.974,253.900 186.521 C 253.405 186.068,252.460 184.761,251.800 183.615 C 251.140 182.470,250.375 181.291,250.100 180.995 C 249.825 180.699,249.600 180.291,249.600 180.087 C 249.600 179.883,249.150 179.231,248.600 178.638 C 248.050 178.044,247.600 177.331,247.600 177.052 C 247.600 176.773,247.150 176.153,246.600 175.675 C 246.050 175.197,245.600 174.608,245.600 174.366 C 245.600 174.124,245.234 173.448,244.787 172.863 C 244.339 172.278,243.040 170.366,241.899 168.613 C 240.759 166.860,239.550 165.105,239.213 164.713 C 238.876 164.321,238.303 163.658,237.939 163.239 C 237.576 162.821,237.162 162.111,237.020 161.662 C 236.877 161.213,235.959 159.814,234.980 158.553 C 234.001 157.292,233.200 156.049,233.200 155.791 C 233.200 155.533,232.840 154.907,232.400 154.400 C 231.960 153.893,231.600 153.350,231.600 153.194 C 231.600 153.038,231.105 152.276,230.500 151.500 C 229.273 149.927,229.241 149.881,226.302 145.386 C 225.146 143.619,223.970 141.909,223.689 141.586 C 223.409 141.264,222.617 140.100,221.929 139.000 C 219.354 134.878,218.585 133.752,217.112 131.944 C 216.281 130.924,215.600 129.856,215.600 129.570 C 215.600 129.285,215.215 128.642,214.744 128.141 C 213.854 127.193,213.600 126.802,212.092 124.054 C 211.592 123.144,211.007 122.400,210.792 122.400 C 210.576 122.400,210.400 122.194,210.400 121.941 C 210.400 121.405,207.766 117.350,207.184 116.990 C 206.966 116.856,206.543 116.173,206.243 115.473 C 204.895 112.322,198.589 109.276,197.400 111.200 M78.284 160.378 C 78.743 160.805,80.802 161.996,82.859 163.023 C 84.917 164.051,86.960 165.090,87.400 165.332 C 89.847 166.680,94.260 168.795,94.630 168.797 C 94.867 168.799,95.483 169.250,96.000 169.800 C 96.517 170.350,97.232 170.800,97.590 170.800 C 97.947 170.800,98.411 170.966,98.620 171.169 C 99.197 171.730,106.910 175.623,107.089 175.444 C 107.318 175.216,104.962 173.600,104.401 173.600 C 104.140 173.600,103.469 173.240,102.909 172.800 C 102.350 172.360,101.584 172.000,101.208 172.000 C 100.832 172.000,100.198 171.640,99.800 171.200 C 99.389 170.746,98.568 170.400,97.901 170.400 C 97.115 170.400,96.664 170.167,96.541 169.696 C 96.357 168.993,91.438 166.400,90.289 166.400 C 89.957 166.400,89.589 166.148,89.471 165.840 C 89.353 165.532,88.613 165.068,87.828 164.809 C 87.043 164.550,86.400 164.195,86.400 164.021 C 86.400 163.847,85.593 163.478,84.608 163.202 C 83.622 162.926,82.610 162.453,82.359 162.150 C 82.108 161.848,81.668 161.600,81.382 161.600 C 81.096 161.600,80.327 161.150,79.673 160.600 C 78.263 159.414,77.039 159.218,78.284 160.378 " stroke="none" fill="#fbc4c4" fill-rule="evenodd"></path><path id="path3" d="M196.980 112.163 C 196.309 112.455,195.272 113.303,194.674 114.047 C 193.265 115.802,193.136 115.978,192.229 117.390 C 191.808 118.044,191.311 118.764,191.124 118.990 C 190.374 119.895,187.389 124.669,186.929 125.700 C 186.659 126.305,186.262 126.800,186.046 126.800 C 185.830 126.800,185.553 127.115,185.429 127.500 C 185.305 127.885,184.663 128.830,184.003 129.600 C 183.342 130.370,182.801 131.105,182.801 131.234 C 182.800 131.492,177.964 138.918,176.962 140.200 C 175.298 142.329,173.135 145.561,172.411 147.000 C 171.968 147.880,170.784 149.590,169.780 150.800 C 168.777 152.010,167.707 153.578,167.404 154.285 C 167.101 154.993,165.851 156.926,164.626 158.582 C 163.402 160.237,162.400 161.740,162.400 161.921 C 162.400 162.101,162.059 162.615,161.643 163.062 C 161.226 163.509,160.592 164.398,160.235 165.038 C 159.877 165.677,158.970 167.010,158.219 168.000 C 157.468 168.990,156.841 169.955,156.827 170.144 C 156.780 170.748,154.279 174.400,153.912 174.400 C 153.718 174.400,153.301 174.985,152.985 175.700 C 152.670 176.415,151.873 177.720,151.214 178.600 C 150.556 179.480,149.827 180.632,149.596 181.160 C 149.364 181.688,148.485 182.948,147.642 183.960 C 146.334 185.531,143.706 189.490,142.159 192.222 C 141.561 193.277,140.121 193.422,139.067 192.532 L 138.200 191.800 138.962 192.700 C 140.500 194.516,144.367 192.229,144.407 189.480 C 144.411 189.216,144.861 188.576,145.407 188.058 C 145.953 187.540,146.400 186.775,146.400 186.358 C 146.400 185.941,146.625 185.599,146.900 185.597 C 147.175 185.596,147.705 185.101,148.077 184.497 C 148.449 183.894,149.391 182.500,150.171 181.400 C 150.950 180.300,151.591 179.215,151.594 178.989 C 151.597 178.763,151.965 178.265,152.411 177.883 C 152.857 177.501,153.330 176.651,153.461 175.994 C 153.593 175.337,153.951 174.800,154.259 174.800 C 154.566 174.800,155.022 174.350,155.273 173.800 C 155.523 173.250,155.877 172.800,156.059 172.800 C 156.241 172.800,156.668 172.215,157.009 171.500 C 158.243 168.912,158.943 167.791,159.633 167.300 C 160.020 167.024,160.455 166.259,160.600 165.600 C 160.745 164.940,161.023 164.400,161.218 164.400 C 161.413 164.400,162.599 162.825,163.854 160.900 C 165.108 158.975,166.465 157.078,166.867 156.684 C 167.270 156.291,167.600 155.643,167.600 155.246 C 167.600 154.848,167.960 154.107,168.400 153.600 C 168.840 153.093,169.200 152.563,169.200 152.422 C 169.200 152.281,170.009 151.274,170.998 150.183 C 171.987 149.092,172.797 147.911,172.798 147.558 C 172.799 147.206,173.205 146.445,173.700 145.869 C 175.540 143.727,176.400 142.457,176.400 141.883 C 176.400 141.558,176.850 140.997,177.400 140.637 C 177.950 140.276,178.400 139.744,178.400 139.453 C 178.400 139.162,178.755 138.602,179.190 138.209 C 179.624 137.816,180.096 137.127,180.239 136.678 C 180.381 136.229,180.658 135.668,180.854 135.431 C 182.480 133.462,183.600 131.803,183.600 131.363 C 183.600 131.073,184.005 130.395,184.500 129.856 C 185.917 128.313,188.800 124.211,188.800 123.738 C 188.800 123.615,189.250 122.981,189.800 122.327 C 190.350 121.673,190.800 120.836,190.800 120.466 C 190.800 120.095,191.160 119.568,191.600 119.293 C 192.040 119.018,192.400 118.524,192.400 118.194 C 192.400 117.864,192.850 117.203,193.400 116.725 C 193.950 116.247,194.400 115.625,194.400 115.342 C 194.400 115.059,194.760 114.635,195.200 114.400 C 195.640 114.165,196.000 113.729,196.000 113.433 C 196.000 112.754,197.248 112.412,199.757 112.405 C 201.750 112.400,204.384 114.157,204.396 115.500 C 204.398 115.775,204.715 116.349,205.100 116.775 C 205.485 117.201,206.107 117.966,206.483 118.475 C 206.859 118.984,207.591 119.940,208.110 120.600 C 208.629 121.260,209.283 122.372,209.564 123.071 C 209.844 123.770,210.327 124.440,210.637 124.559 C 210.946 124.678,211.200 125.132,211.200 125.568 C 211.200 126.004,211.438 126.504,211.728 126.680 C 212.019 126.856,212.957 128.145,213.813 129.545 C 214.669 130.945,215.601 132.179,215.885 132.288 C 216.168 132.397,216.400 132.723,216.400 133.012 C 216.400 133.302,216.850 134.073,217.400 134.727 C 217.950 135.381,218.400 136.017,218.400 136.140 C 218.400 136.263,218.805 136.974,219.300 137.719 C 219.795 138.465,220.650 139.811,221.200 140.710 C 221.750 141.610,222.515 142.431,222.900 142.536 C 223.285 142.640,223.600 143.057,223.600 143.463 C 223.601 143.868,224.051 144.723,224.600 145.362 C 225.150 146.001,225.600 146.754,225.600 147.034 C 225.600 147.314,225.842 147.784,226.137 148.080 C 226.432 148.375,226.896 149.032,227.168 149.540 C 227.767 150.659,228.695 151.839,229.900 153.014 C 230.395 153.497,230.800 154.186,230.800 154.546 C 230.800 154.906,231.160 155.560,231.600 156.000 C 232.040 156.440,232.400 156.980,232.400 157.200 C 232.400 157.420,232.715 157.930,233.100 158.334 C 233.898 159.170,234.902 160.797,235.806 162.717 C 236.146 163.442,236.690 164.136,237.013 164.260 C 237.336 164.384,237.600 164.726,237.600 165.020 C 237.600 165.314,237.931 165.790,238.337 166.077 C 238.742 166.365,239.306 167.050,239.591 167.600 C 239.876 168.150,240.444 168.922,240.854 169.316 C 241.264 169.709,241.600 170.356,241.600 170.754 C 241.600 171.151,241.960 171.802,242.400 172.200 C 242.840 172.598,243.200 173.121,243.200 173.363 C 243.200 173.604,244.010 174.671,245.000 175.735 C 245.990 176.798,246.800 177.984,246.800 178.372 C 246.800 178.759,247.160 179.402,247.600 179.800 C 248.040 180.198,248.400 180.752,248.400 181.031 C 248.400 181.310,248.850 182.073,249.400 182.727 C 249.950 183.381,250.400 184.085,250.400 184.291 C 250.400 184.498,251.116 185.442,251.991 186.390 C 252.866 187.338,253.681 188.425,253.801 188.804 C 253.922 189.184,254.376 189.816,254.810 190.209 C 255.245 190.602,255.600 191.225,255.600 191.592 C 255.600 191.960,256.073 192.697,256.651 193.230 C 257.228 193.764,258.713 195.710,259.951 197.556 C 261.188 199.402,262.470 201.308,262.800 201.792 C 263.130 202.276,263.922 203.466,264.560 204.436 C 267.666 209.159,270.091 212.661,270.893 213.582 C 271.172 213.902,271.615 214.664,271.878 215.275 C 272.141 215.886,272.546 216.614,272.779 216.893 C 273.500 217.758,275.987 221.341,276.711 222.559 C 277.090 223.196,277.715 224.001,278.100 224.348 C 278.485 224.694,278.800 225.180,278.800 225.427 C 278.800 225.674,279.144 226.187,279.564 226.567 C 279.984 226.948,280.445 227.725,280.588 228.295 C 280.853 229.351,281.103 229.726,284.133 233.606 C 285.081 234.819,286.377 236.709,287.013 237.806 C 288.828 240.937,291.636 244.968,292.245 245.320 C 292.550 245.496,292.800 245.876,292.800 246.165 C 292.800 246.646,294.303 248.846,295.735 250.461 C 296.057 250.824,296.447 251.544,296.601 252.061 C 296.899 253.062,298.533 255.644,299.719 256.987 C 300.114 257.434,300.675 258.070,300.967 258.400 C 301.258 258.730,301.794 259.585,302.158 260.300 C 302.523 261.015,302.996 261.600,303.210 261.600 C 303.425 261.600,303.600 261.905,303.600 262.278 C 303.600 263.042,305.038 265.295,307.288 268.056 C 308.119 269.076,308.800 270.086,308.800 270.301 C 308.800 270.646,310.298 272.761,311.695 274.388 C 313.485 276.471,313.502 278.802,311.742 280.699 C 311.180 281.304,310.477 282.268,310.180 282.841 C 309.884 283.413,308.995 284.448,308.207 285.141 C 306.517 286.624,306.743 286.856,308.466 285.406 C 309.798 284.285,312.743 280.687,313.500 279.254 C 314.447 277.463,313.882 275.197,311.960 273.079 C 311.522 272.595,310.924 271.930,310.632 271.600 C 310.340 271.270,309.963 270.550,309.794 270.000 C 309.511 269.083,309.109 268.540,307.100 266.359 C 306.715 265.942,306.400 265.482,306.400 265.338 C 306.400 265.194,305.950 264.486,305.400 263.764 C 304.850 263.043,304.400 262.269,304.400 262.044 C 304.400 261.531,302.734 258.935,301.519 257.558 C 301.014 256.984,300.378 256.174,300.106 255.758 C 299.834 255.341,299.072 254.190,298.413 253.200 C 297.754 252.210,297.211 251.262,297.207 251.094 C 297.203 250.925,296.390 249.674,295.400 248.314 C 294.410 246.953,293.600 245.693,293.600 245.514 C 293.600 245.222,290.965 241.693,289.408 239.900 C 289.074 239.515,288.800 239.051,288.800 238.869 C 288.800 238.426,286.382 234.787,285.500 233.902 C 285.115 233.516,284.800 233.045,284.800 232.855 C 284.800 232.665,284.262 231.810,283.605 230.955 C 282.947 230.100,282.272 229.220,282.105 229.000 C 281.937 228.780,281.488 227.925,281.106 227.100 C 280.725 226.275,280.230 225.600,280.006 225.600 C 279.783 225.600,279.600 225.356,279.600 225.058 C 279.600 224.761,279.150 224.031,278.600 223.438 C 278.050 222.844,277.600 222.129,277.600 221.849 C 277.600 221.569,277.150 220.917,276.600 220.400 C 276.050 219.883,275.600 219.222,275.600 218.930 C 275.600 218.639,275.428 218.400,275.219 218.400 C 275.009 218.400,274.543 217.778,274.182 217.018 C 273.821 216.259,273.273 215.426,272.963 215.169 C 272.653 214.912,272.400 214.482,272.400 214.213 C 272.400 213.944,272.040 213.398,271.600 213.000 C 271.160 212.602,270.800 212.065,270.800 211.808 C 270.800 211.550,270.035 210.327,269.100 209.090 C 267.569 207.063,264.921 203.120,263.756 201.129 C 263.511 200.712,262.926 199.960,262.456 199.459 C 261.985 198.958,261.600 198.433,261.600 198.292 C 261.600 197.796,259.763 195.336,258.297 193.870 C 257.481 193.055,256.522 191.822,256.164 191.131 C 255.807 190.440,255.174 189.509,254.757 189.062 C 254.341 188.615,254.000 188.110,254.000 187.940 C 254.000 187.770,253.673 187.309,253.274 186.916 C 252.070 185.728,247.200 178.154,247.200 177.468 C 247.200 177.116,246.848 176.640,246.418 176.409 C 245.987 176.179,244.737 174.508,243.638 172.695 C 241.412 169.023,240.096 167.051,239.200 166.046 C 238.043 164.750,236.400 162.450,236.398 162.127 C 236.397 161.947,235.702 160.884,234.853 159.764 C 234.004 158.645,233.240 157.565,233.154 157.364 C 232.601 156.064,230.265 152.400,229.989 152.400 C 229.805 152.400,229.550 152.072,229.422 151.671 C 229.295 151.269,228.878 150.594,228.495 150.171 C 227.564 149.138,225.600 146.099,225.600 145.690 C 225.600 145.510,225.325 145.011,224.989 144.581 C 223.082 142.144,220.400 138.427,220.400 138.221 C 220.400 137.838,218.351 134.754,216.798 132.800 C 216.011 131.810,215.148 130.550,214.881 130.000 C 214.613 129.450,213.676 128.010,212.798 126.800 C 211.920 125.590,211.201 124.403,211.201 124.162 C 211.200 123.921,210.840 123.398,210.400 123.000 C 209.960 122.602,209.600 122.116,209.600 121.921 C 209.600 121.726,208.835 120.563,207.900 119.336 C 206.965 118.110,205.953 116.633,205.650 116.053 C 203.763 112.437,200.111 110.799,196.980 112.163 M35.000 139.658 C 34.134 140.128,31.990 142.353,32.016 142.754 C 32.025 142.889,32.531 142.417,33.141 141.705 C 34.546 140.065,36.275 139.420,37.759 139.984 C 39.348 140.589,40.011 140.432,38.600 139.786 C 37.145 139.119,36.064 139.081,35.000 139.658 M40.846 141.145 C 41.371 141.555,42.250 142.003,42.800 142.141 C 43.529 142.324,43.456 142.233,42.531 141.807 C 41.832 141.486,41.147 141.038,41.007 140.811 C 40.867 140.585,40.559 140.400,40.322 140.400 C 40.086 140.400,40.321 140.735,40.846 141.145 M47.052 144.176 C 47.741 144.476,48.426 144.919,48.576 145.160 C 48.725 145.402,49.052 145.600,49.301 145.600 C 49.551 145.600,49.145 145.150,48.400 144.600 C 47.655 144.050,46.765 143.607,46.422 143.616 C 46.080 143.624,46.363 143.876,47.052 144.176 M32.025 144.871 C 32.011 145.241,32.254 145.797,32.564 146.107 C 32.874 146.417,33.209 147.104,33.309 147.635 C 33.484 148.561,33.493 148.557,33.546 147.524 C 33.575 146.932,33.407 146.328,33.172 146.183 C 32.937 146.037,32.588 145.532,32.397 145.059 C 32.138 144.417,32.044 144.370,32.025 144.871 M50.614 145.981 C 51.062 146.162,51.669 146.601,51.963 146.955 C 52.257 147.310,52.670 147.600,52.880 147.600 C 53.090 147.600,52.727 147.150,52.073 146.600 C 51.419 146.050,50.640 145.611,50.342 145.625 C 50.044 145.639,50.166 145.799,50.614 145.981 M53.600 147.763 C 53.600 147.969,58.730 150.800,59.103 150.800 C 59.490 150.800,58.130 149.879,55.923 148.648 C 54.082 147.620,53.600 147.437,53.600 147.763 M33.663 149.400 C 33.638 149.840,33.970 150.650,34.400 151.200 C 34.830 151.750,35.186 151.997,35.191 151.749 C 35.196 151.501,34.941 151.083,34.624 150.820 C 34.307 150.557,33.972 149.950,33.878 149.471 C 33.726 148.689,33.704 148.681,33.663 149.400 M60.200 151.278 C 60.640 151.527,61.092 151.868,61.204 152.034 C 61.316 152.200,61.946 152.462,62.604 152.615 C 63.534 152.832,63.373 152.661,61.879 151.847 C 60.822 151.271,59.832 150.805,59.679 150.812 C 59.525 150.819,59.760 151.028,60.200 151.278 M64.000 152.925 C 64.000 152.993,64.585 153.472,65.300 153.988 L 66.600 154.927 65.630 153.863 C 64.802 152.955,64.000 152.493,64.000 152.925 M35.603 154.806 C 35.604 155.133,35.963 155.940,36.400 156.600 C 37.428 158.152,37.428 157.622,36.400 155.704 C 35.960 154.884,35.601 154.479,35.603 154.806 M68.000 155.600 C 69.857 156.616,70.558 156.615,68.890 155.599 C 68.170 155.159,67.360 154.808,67.090 154.817 C 66.821 154.826,67.230 155.178,68.000 155.600 M71.600 157.400 C 72.345 157.950,73.126 158.400,73.334 158.400 C 73.541 158.400,73.049 157.950,72.238 157.400 C 71.428 156.850,70.647 156.400,70.505 156.400 C 70.362 156.400,70.855 156.850,71.600 157.400 M37.236 158.574 C 37.194 159.469,38.789 162.944,39.100 162.633 C 39.215 162.519,39.025 161.993,38.679 161.465 C 38.333 160.936,37.875 159.896,37.661 159.152 C 37.440 158.384,37.257 158.134,37.236 158.574 M74.624 158.987 C 75.051 159.310,75.580 159.575,75.800 159.575 C 76.020 159.575,75.851 159.310,75.424 158.987 C 74.996 158.664,74.467 158.400,74.247 158.400 C 74.027 158.400,74.196 158.664,74.624 158.987 M78.406 160.662 C 78.400 161.132,82.748 163.785,83.042 163.491 C 83.131 163.402,82.258 162.819,81.102 162.196 C 79.946 161.573,78.868 160.869,78.706 160.631 C 78.501 160.331,78.410 160.340,78.406 160.662 M84.176 164.213 C 84.604 164.536,85.144 164.794,85.376 164.787 C 85.609 164.780,85.451 164.510,85.024 164.187 C 84.596 163.864,84.056 163.606,83.824 163.613 C 83.591 163.620,83.749 163.890,84.176 164.213 M87.541 165.805 C 89.783 167.087,90.204 167.084,88.314 165.800 C 87.505 165.250,86.608 164.802,86.321 164.805 C 86.035 164.807,86.583 165.257,87.541 165.805 M40.654 166.800 C 40.871 168.132,42.379 171.063,42.393 170.180 C 42.397 169.949,42.219 169.579,41.997 169.357 C 41.775 169.135,41.331 168.154,41.010 167.177 C 40.508 165.650,40.458 165.597,40.654 166.800 M90.950 167.632 C 91.532 168.090,92.224 168.392,92.489 168.304 C 92.753 168.216,92.364 167.841,91.624 167.472 C 89.842 166.583,89.669 166.625,90.950 167.632 M94.433 168.900 C 94.525 168.955,95.140 169.450,95.800 170.000 L 97.000 171.000 96.030 169.900 C 95.497 169.295,94.882 168.800,94.664 168.800 C 94.445 168.800,94.342 168.845,94.433 168.900 M42.440 171.400 C 42.422 171.840,42.850 173.100,43.391 174.200 C 43.932 175.300,44.381 175.925,44.387 175.589 C 44.394 175.253,44.144 174.613,43.831 174.166 C 43.519 173.720,43.085 172.735,42.868 171.977 C 42.634 171.164,42.459 170.927,42.440 171.400 M98.310 171.601 C 99.030 172.041,99.750 172.396,99.910 172.391 C 100.468 172.374,98.194 170.818,97.600 170.810 C 97.270 170.806,97.589 171.162,98.310 171.601 M100.400 172.557 C 100.400 172.644,102.284 173.642,104.587 174.775 C 106.890 175.908,108.881 177.008,109.011 177.218 C 109.141 177.428,109.429 177.600,109.652 177.600 C 110.546 177.600,108.790 176.457,104.859 174.482 C 100.718 172.400,100.400 172.263,100.400 172.557 M44.400 177.124 C 44.400 177.353,45.120 179.029,46.000 180.849 C 46.880 182.669,47.600 183.920,47.600 183.629 C 47.600 183.339,46.880 181.662,46.000 179.904 C 45.120 178.146,44.400 176.895,44.400 177.124 M111.738 178.636 C 112.576 179.205,113.348 179.586,113.452 179.481 C 113.665 179.268,111.100 177.600,110.560 177.600 C 110.370 177.600,110.900 178.066,111.738 178.636 M114.576 180.213 C 115.004 180.536,115.544 180.794,115.776 180.787 C 116.009 180.780,115.851 180.510,115.424 180.187 C 114.996 179.864,114.456 179.606,114.224 179.613 C 113.991 179.620,114.149 179.890,114.576 180.213 M117.800 181.790 C 118.680 182.332,119.580 182.775,119.800 182.775 C 120.020 182.775,119.480 182.332,118.600 181.790 C 117.720 181.248,116.820 180.804,116.600 180.804 C 116.380 180.804,116.920 181.248,117.800 181.790 M121.527 183.800 C 122.181 184.350,122.838 184.800,122.988 184.800 C 123.139 184.800,122.727 184.350,122.073 183.800 C 121.419 183.250,120.762 182.800,120.612 182.800 C 120.461 182.800,120.873 183.250,121.527 183.800 M124.712 185.501 C 130.910 188.805,134.117 190.416,134.242 190.291 C 134.324 190.209,132.638 189.262,130.495 188.185 C 128.353 187.109,126.171 185.907,125.646 185.514 C 125.121 185.121,124.401 184.800,124.046 184.801 C 123.691 184.801,123.990 185.116,124.712 185.501 M49.655 190.200 C 49.635 190.640,49.970 191.450,50.400 192.000 C 50.830 192.550,51.211 193.450,51.246 194.000 C 51.305 194.943,51.319 194.948,51.482 194.101 C 51.578 193.602,51.308 192.711,50.874 192.101 C 50.445 191.495,50.003 190.640,49.893 190.200 L 49.693 189.400 49.655 190.200 M135.200 191.000 C 135.474 191.330,135.878 191.600,136.098 191.600 C 136.321 191.600,136.278 191.335,136.000 191.000 C 135.726 190.670,135.322 190.400,135.102 190.400 C 134.879 190.400,134.922 190.665,135.200 191.000 M51.611 195.600 C 51.615 195.930,51.989 196.650,52.444 197.200 C 52.898 197.750,53.153 197.974,53.010 197.699 C 51.819 195.394,51.606 195.074,51.611 195.600 M53.600 199.953 C 53.600 200.173,53.760 200.451,53.955 200.572 C 54.150 200.693,54.431 201.442,54.580 202.236 C 54.730 203.031,54.942 203.592,55.052 203.481 C 55.344 203.189,54.447 200.076,53.989 199.793 C 53.775 199.661,53.600 199.733,53.600 199.953 M55.409 204.600 C 55.578 205.040,56.037 206.300,56.430 207.400 C 56.823 208.500,57.156 209.220,57.170 209.000 C 57.222 208.183,56.288 205.378,55.705 204.602 C 55.104 203.803,55.103 203.803,55.409 204.600 M57.213 209.851 C 57.239 210.560,58.400 211.807,58.400 211.125 C 58.400 210.780,58.130 210.274,57.800 210.000 C 57.470 209.726,57.206 209.659,57.213 209.851 M58.432 212.518 C 58.414 212.913,58.850 214.082,59.400 215.115 C 59.950 216.148,60.400 216.720,60.400 216.386 C 60.400 216.052,60.156 215.423,59.858 214.989 C 59.561 214.555,59.125 213.660,58.890 213.000 C 58.631 212.273,58.451 212.083,58.432 212.518 M60.432 217.920 C 60.396 218.498,61.507 220.800,61.821 220.800 C 61.931 220.800,61.771 220.305,61.465 219.700 C 61.160 219.095,60.809 218.330,60.686 218.000 C 60.536 217.597,60.453 217.571,60.432 217.920 M62.724 223.000 C 62.926 223.440,63.192 224.070,63.314 224.400 C 63.507 224.918,63.541 224.915,63.568 224.376 C 63.586 224.034,63.320 223.404,62.978 222.976 C 62.366 222.212,62.362 222.213,62.724 223.000 M63.829 226.200 C 63.957 226.860,64.302 227.670,64.595 228.000 C 64.887 228.330,65.209 229.050,65.309 229.600 L 65.491 230.600 65.546 229.631 C 65.575 229.099,65.353 228.379,65.052 228.031 C 64.751 227.684,64.300 226.860,64.050 226.200 L 63.595 225.000 63.829 226.200 M65.663 231.400 C 65.638 231.840,65.970 232.650,66.400 233.200 C 66.830 233.750,67.186 233.997,67.191 233.749 C 67.196 233.501,66.941 233.083,66.624 232.820 C 66.307 232.557,65.972 231.950,65.878 231.471 C 65.726 230.689,65.704 230.681,65.663 231.400 M67.609 236.433 C 67.614 236.745,67.985 237.450,68.433 238.000 L 69.248 239.000 68.573 237.600 C 67.748 235.888,67.597 235.706,67.609 236.433 M69.202 239.611 C 69.203 239.715,69.649 240.880,70.192 242.200 C 71.210 244.671,71.558 244.773,70.737 242.360 C 70.325 241.147,69.197 239.128,69.202 239.611 M71.409 245.400 C 71.578 245.840,72.037 247.100,72.430 248.200 C 72.823 249.300,73.156 250.020,73.170 249.800 C 73.222 248.983,72.288 246.178,71.705 245.402 C 71.104 244.603,71.103 244.603,71.409 245.400 M74.598 253.932 C 74.767 255.089,76.400 257.855,76.400 256.985 C 76.400 256.808,76.145 256.379,75.834 256.031 C 75.523 255.684,75.073 254.770,74.835 254.000 L 74.403 252.600 74.598 253.932 M76.634 258.200 C 77.982 262.032,78.387 262.939,78.151 261.600 C 78.015 260.830,77.555 259.570,77.128 258.800 C 76.702 258.030,76.480 257.760,76.634 258.200 M78.413 263.254 C 78.406 263.394,78.669 264.024,78.998 264.654 C 79.326 265.284,79.596 265.519,79.598 265.176 C 79.600 264.590,78.440 262.708,78.413 263.254 M80.000 267.897 C 80.000 268.120,80.270 268.526,80.600 268.800 C 80.930 269.074,81.225 269.771,81.254 270.349 C 81.303 271.293,81.327 271.308,81.482 270.499 C 81.584 269.972,81.312 269.160,80.828 268.545 C 80.373 267.966,80.000 267.674,80.000 267.897 M81.600 271.935 C 81.600 272.579,82.805 274.928,83.023 274.710 C 83.114 274.619,82.831 273.845,82.394 272.988 C 81.957 272.132,81.600 271.658,81.600 271.935 M83.625 277.521 C 83.553 279.000,91.024 286.700,92.106 286.263 C 92.420 286.136,92.368 286.052,91.964 286.032 C 91.180 285.993,85.728 280.634,85.391 279.571 C 85.256 279.147,84.972 278.800,84.760 278.800 C 84.548 278.800,84.211 278.395,84.012 277.900 C 83.813 277.405,83.639 277.235,83.625 277.521 M93.880 286.808 C 94.584 287.030,95.270 287.390,95.404 287.606 C 95.538 287.823,95.829 288.000,96.052 288.000 C 96.994 288.000,95.133 286.773,93.923 286.596 L 92.600 286.403 93.880 286.808 M303.800 287.227 C 303.140 287.650,302.785 287.997,303.011 287.998 C 303.237 287.999,303.777 287.752,304.211 287.448 C 304.645 287.145,305.360 286.805,305.800 286.694 L 306.600 286.493 305.800 286.476 C 305.360 286.466,304.460 286.804,303.800 287.227 M148.100 288.300 C 176.425 288.357,222.775 288.357,251.100 288.300 C 279.425 288.243,256.250 288.197,199.600 288.197 C 142.950 288.197,119.775 288.243,148.100 288.300 " stroke="none" fill="#f8acac" fill-rule="evenodd"></path></g></svg>