<svg id="svg" version="1.1" xmlns="http://www.w3.org/2000/svg" xmlns:xlink="http://www.w3.org/1999/xlink" width="400" height="337.59999999999997" viewBox="0, 0, 400,337.59999999999997"><g id="svgg"><path id="path0" d="M370.946 207.432 C 370.946 207.625,369.932 207.770,368.581 207.770 C 367.230 207.770,366.216 207.915,366.216 208.108 C 366.216 208.301,365.199 208.446,363.841 208.446 C 362.041 208.446,361.418 208.569,361.271 208.953 C 361.124 209.335,360.506 209.459,358.748 209.459 C 357.420 209.459,356.419 209.605,356.419 209.797 C 356.419 209.990,355.405 210.135,354.054 210.135 C 352.703 210.135,351.689 210.280,351.689 210.473 C 351.689 210.659,351.308 210.811,350.842 210.811 L 349.996 210.811 350.116 263.429 C 350.232 314.487,350.350 320.218,351.285 320.530 C 351.507 320.604,351.689 321.184,351.689 321.819 C 351.689 322.454,351.841 322.973,352.027 322.973 C 352.213 322.973,352.365 323.189,352.365 323.452 C 352.365 324.055,353.461 326.009,353.801 326.011 C 353.940 326.013,354.054 326.176,354.054 326.375 C 354.054 326.575,354.244 326.949,354.476 327.208 C 355.394 328.231,355.743 328.697,355.743 328.895 C 355.743 329.169,356.649 330.068,356.926 330.068 C 357.045 330.068,357.355 330.258,357.614 330.490 C 358.714 331.477,359.111 331.757,359.409 331.757 C 359.583 331.757,359.813 331.985,359.919 332.264 C 360.026 332.542,360.347 332.770,360.631 332.770 C 360.916 332.770,361.149 332.922,361.149 333.108 C 361.149 333.294,361.529 333.446,361.993 333.446 C 362.458 333.446,362.838 333.598,362.838 333.784 C 362.838 333.970,363.218 334.122,363.682 334.122 C 364.208 334.122,364.527 334.313,364.527 334.628 C 364.527 334.964,364.863 335.135,365.521 335.135 C 366.067 335.135,366.608 335.287,366.723 335.473 C 366.838 335.659,367.455 335.811,368.094 335.811 C 368.734 335.811,369.257 335.963,369.257 336.149 C 369.257 336.336,370.158 336.486,371.284 336.486 C 372.860 336.486,373.311 336.599,373.311 336.993 C 373.311 337.409,373.906 337.500,376.637 337.500 C 378.467 337.500,381.355 337.599,383.056 337.720 L 386.149 337.939 386.149 336.557 C 386.149 335.797,386.301 335.081,386.486 334.966 C 386.672 334.851,386.824 333.787,386.824 332.601 C 386.824 331.416,386.976 330.351,387.162 330.236 C 387.348 330.122,387.500 329.143,387.500 328.062 C 387.500 326.727,387.663 325.961,388.007 325.676 C 388.351 325.390,388.514 324.625,388.514 323.289 C 388.514 322.208,388.666 321.230,388.851 321.115 C 389.037 321.000,389.189 319.775,389.189 318.392 L 389.189 315.878 386.969 315.878 C 385.446 315.878,384.590 315.719,384.242 315.372 C 383.964 315.093,383.366 314.865,382.915 314.865 C 382.464 314.865,382.095 314.713,382.095 314.527 C 382.095 314.341,381.793 314.189,381.423 314.189 C 380.558 314.189,377.365 311.022,377.365 310.164 C 377.365 309.803,377.137 309.280,376.858 309.001 C 376.510 308.653,376.351 307.797,376.351 306.274 C 376.351 305.019,376.204 304.054,376.014 304.054 C 375.790 304.054,375.676 287.669,375.676 255.574 L 375.676 207.095 373.311 207.095 C 371.959 207.095,370.946 207.239,370.946 207.432 M37.314 219.224 C 37.138 219.392,34.300 219.585,31.008 219.653 C 26.860 219.738,24.894 219.903,24.606 220.192 C 24.335 220.462,23.087 220.608,21.047 220.608 C 19.178 220.608,17.905 220.745,17.905 220.946 C 17.905 221.138,16.906 221.284,15.582 221.284 C 13.929 221.284,13.137 221.430,12.838 221.791 C 12.607 222.069,12.056 222.297,11.614 222.297 L 10.811 222.297 10.811 279.392 L 10.811 336.486 24.324 336.486 L 37.838 336.486 37.838 317.399 L 37.838 298.311 45.439 298.311 C 51.971 298.311,53.041 298.239,53.041 297.804 C 53.041 297.381,53.733 297.297,57.244 297.297 C 59.681 297.297,61.534 297.155,61.655 296.959 C 61.770 296.774,62.758 296.622,63.851 296.622 C 64.944 296.622,65.932 296.470,66.047 296.284 C 66.162 296.098,66.920 295.946,67.732 295.946 C 68.594 295.946,69.419 295.735,69.715 295.439 C 70.000 295.155,70.825 294.932,71.597 294.932 C 72.354 294.932,72.973 294.780,72.973 294.595 C 72.973 294.409,73.434 294.257,73.997 294.257 C 74.596 294.257,75.102 294.046,75.216 293.750 C 75.327 293.461,75.830 293.243,76.387 293.243 C 76.925 293.243,77.365 293.091,77.365 292.905 C 77.365 292.720,77.821 292.568,78.378 292.568 C 78.936 292.568,79.392 292.416,79.392 292.230 C 79.392 292.044,79.772 291.892,80.236 291.892 C 80.762 291.892,81.081 291.700,81.081 291.385 C 81.081 291.100,81.383 290.878,81.771 290.878 C 82.150 290.878,82.787 290.574,83.186 290.203 C 83.585 289.831,84.187 289.527,84.523 289.527 C 84.860 289.527,85.135 289.299,85.135 289.020 C 85.135 288.742,85.421 288.514,85.770 288.514 C 86.457 288.514,89.865 285.454,89.865 284.836 C 89.865 284.629,90.035 284.459,90.242 284.459 C 90.767 284.459,93.243 281.777,93.243 281.208 C 93.243 280.952,93.395 280.743,93.581 280.743 C 93.767 280.743,93.919 280.515,93.919 280.236 C 93.919 279.958,94.068 279.730,94.250 279.730 C 94.433 279.730,94.677 279.350,94.794 278.885 C 94.910 278.421,95.141 278.041,95.307 278.041 C 95.473 278.041,95.608 277.745,95.608 277.385 C 95.608 277.024,95.760 276.635,95.946 276.520 C 96.132 276.405,96.284 275.881,96.284 275.354 C 96.284 274.815,96.505 274.312,96.791 274.202 C 97.084 274.090,97.297 273.584,97.297 273.004 C 97.297 272.451,97.449 271.905,97.635 271.791 C 97.821 271.676,97.973 270.907,97.973 270.081 C 97.973 269.256,98.125 268.581,98.311 268.581 C 98.517 268.581,98.649 267.017,98.649 264.563 C 98.649 261.303,98.744 260.509,99.155 260.351 C 99.850 260.084,99.850 256.993,99.155 256.298 C 98.766 255.909,98.649 254.928,98.649 252.071 C 98.649 249.955,98.503 248.261,98.311 248.142 C 98.125 248.027,97.973 247.267,97.973 246.453 C 97.973 245.638,97.821 244.878,97.635 244.764 C 97.449 244.649,97.297 244.194,97.297 243.754 C 97.297 243.314,97.069 242.726,96.791 242.447 C 96.512 242.168,96.284 241.625,96.284 241.240 C 96.284 240.855,96.132 240.541,95.946 240.541 C 95.760 240.541,95.608 240.160,95.608 239.696 C 95.608 239.231,95.456 238.851,95.270 238.851 C 95.084 238.851,94.932 238.547,94.932 238.176 C 94.932 237.800,94.707 237.500,94.426 237.500 C 94.147 237.500,93.919 237.210,93.919 236.855 C 93.919 236.501,93.235 235.507,92.399 234.646 C 91.562 233.786,90.878 232.936,90.878 232.757 C 90.878 232.579,90.764 232.432,90.625 232.432 C 90.193 232.431,88.514 230.855,88.514 230.451 C 88.514 230.240,88.319 230.068,88.081 230.068 C 87.844 230.068,87.430 229.764,87.162 229.392 C 86.894 229.020,86.329 228.716,85.905 228.716 C 85.446 228.716,85.135 228.512,85.135 228.209 C 85.135 227.931,84.907 227.703,84.628 227.703 C 84.350 227.703,84.122 227.551,84.122 227.365 C 84.122 227.179,83.818 227.027,83.446 227.027 C 83.074 227.027,82.770 226.878,82.770 226.696 C 82.770 226.513,82.390 226.269,81.926 226.152 C 81.461 226.036,81.081 225.805,81.081 225.639 C 81.081 225.473,80.851 225.338,80.570 225.338 C 80.289 225.338,79.794 225.203,79.472 225.037 C 79.149 224.872,78.277 224.470,77.534 224.143 C 76.791 223.816,75.918 223.420,75.596 223.261 C 75.273 223.103,74.636 222.973,74.180 222.973 C 73.724 222.973,73.257 222.821,73.142 222.635 C 73.027 222.449,72.258 222.297,71.433 222.297 C 70.324 222.297,69.932 222.165,69.932 221.791 C 69.932 221.408,69.522 221.284,68.263 221.284 C 67.345 221.284,66.500 221.132,66.385 220.946 C 66.270 220.760,65.215 220.608,64.039 220.608 C 62.800 220.608,61.495 220.396,60.934 220.103 C 60.260 219.752,58.915 219.598,56.503 219.597 C 54.421 219.595,53.041 219.460,53.041 219.257 C 53.041 218.826,37.766 218.794,37.314 219.224 M55.809 243.271 C 55.876 243.472,56.839 243.771,57.949 243.934 C 61.176 244.408,62.162 244.651,62.162 244.971 C 62.162 245.135,62.378 245.270,62.642 245.270 C 63.244 245.270,65.198 246.366,65.201 246.706 C 65.202 246.845,65.431 246.959,65.709 246.959 C 65.988 246.959,66.216 247.111,66.216 247.297 C 66.216 247.483,66.520 247.635,66.892 247.635 C 67.264 247.635,67.568 247.827,67.568 248.061 C 67.568 248.295,67.948 248.897,68.412 249.397 C 68.877 249.898,69.257 250.534,69.257 250.810 C 69.257 251.086,69.409 251.405,69.595 251.520 C 69.780 251.635,69.932 252.100,69.932 252.554 C 69.932 253.062,70.127 253.378,70.439 253.378 C 70.867 253.378,70.946 254.168,70.946 258.457 C 70.946 262.659,70.859 263.568,70.439 263.729 C 70.160 263.836,69.932 264.287,69.932 264.732 C 69.932 265.177,69.780 265.541,69.595 265.541 C 69.409 265.541,69.257 265.845,69.257 266.216 C 69.257 266.588,69.105 266.892,68.919 266.892 C 68.733 266.892,68.581 267.120,68.581 267.399 C 68.581 267.677,68.467 267.907,68.328 267.908 C 68.188 267.910,67.390 268.587,66.554 269.413 C 65.690 270.267,64.706 270.922,64.274 270.931 C 63.830 270.940,63.514 271.157,63.514 271.453 C 63.514 271.731,63.218 271.959,62.858 271.959 C 62.497 271.959,62.108 272.111,61.993 272.297 C 61.878 272.483,61.194 272.635,60.473 272.635 C 59.752 272.635,59.068 272.787,58.953 272.973 C 58.838 273.159,58.069 273.311,57.244 273.311 C 56.135 273.311,55.743 273.443,55.743 273.818 C 55.743 274.255,54.523 274.324,46.791 274.324 L 37.838 274.324 37.838 258.615 L 37.838 242.905 46.762 242.905 C 52.867 242.905,55.725 243.021,55.809 243.271 M129.609 245.777 C 129.207 246.179,128.126 246.284,124.368 246.284 C 121.577 246.284,119.549 246.422,119.426 246.622 C 119.311 246.807,118.086 246.959,116.703 246.959 C 115.252 246.959,114.189 247.102,114.189 247.297 C 114.189 247.484,113.310 247.635,112.227 247.635 C 111.024 247.635,110.010 247.827,109.608 248.131 C 109.248 248.404,108.307 248.632,107.517 248.638 C 106.727 248.644,106.081 248.792,106.081 248.968 C 106.081 249.144,105.359 249.334,104.476 249.390 L 102.872 249.493 102.774 252.455 C 102.694 254.871,102.772 255.453,103.196 255.616 C 103.594 255.769,103.716 256.358,103.716 258.124 C 103.716 259.394,103.868 260.527,104.054 260.642 C 104.240 260.757,104.392 261.973,104.392 263.345 C 104.392 264.716,104.544 265.932,104.730 266.047 C 104.916 266.162,105.068 267.071,105.068 268.067 C 105.068 270.738,105.215 270.946,107.111 270.946 C 108.009 270.946,108.838 270.794,108.953 270.608 C 109.068 270.422,109.685 270.270,110.324 270.270 C 111.132 270.270,111.486 270.116,111.486 269.764 C 111.486 269.369,111.937 269.257,113.514 269.257 C 114.640 269.257,115.541 269.107,115.541 268.919 C 115.541 268.722,116.660 268.581,118.223 268.581 C 119.699 268.581,121.000 268.429,121.115 268.243 C 121.242 268.037,123.871 267.905,127.872 267.905 C 131.873 267.905,134.501 268.037,134.628 268.243 C 134.743 268.429,135.351 268.581,135.980 268.581 C 136.608 268.581,137.216 268.733,137.331 268.919 C 137.446 269.105,137.987 269.257,138.533 269.257 C 139.191 269.257,139.527 269.428,139.527 269.764 C 139.527 270.042,139.755 270.270,140.034 270.270 C 140.313 270.270,140.541 270.422,140.541 270.608 C 140.541 270.794,140.769 270.946,141.047 270.946 C 141.326 270.946,141.555 271.060,141.556 271.199 C 141.556 271.339,142.013 271.939,142.569 272.532 C 143.126 273.126,143.581 273.839,143.581 274.117 C 143.581 274.395,143.733 274.716,143.919 274.831 C 144.105 274.946,144.257 275.340,144.257 275.706 C 144.257 276.073,144.485 276.460,144.764 276.567 C 145.155 276.717,145.270 277.369,145.270 279.428 C 145.270 281.573,145.171 282.095,144.764 282.095 C 144.485 282.095,144.257 281.943,144.257 281.757 C 144.257 281.553,142.849 281.419,140.709 281.419 C 138.570 281.419,137.162 281.285,137.162 281.081 C 137.162 280.871,135.254 280.743,132.115 280.743 C 129.114 280.743,126.982 280.880,126.858 281.081 C 126.743 281.268,125.222 281.419,123.460 281.419 C 121.559 281.419,120.270 281.555,120.270 281.757 C 120.270 281.943,119.434 282.095,118.412 282.095 C 116.986 282.095,116.554 282.212,116.554 282.601 C 116.554 282.984,116.141 283.108,114.865 283.108 C 113.936 283.108,113.176 283.260,113.176 283.446 C 113.176 283.632,112.644 283.784,111.993 283.784 C 111.343 283.784,110.811 283.936,110.811 284.122 C 110.811 284.307,110.502 284.459,110.125 284.459 C 109.747 284.459,109.351 284.688,109.244 284.966 C 109.137 285.245,108.762 285.473,108.410 285.473 C 108.058 285.473,107.770 285.625,107.770 285.811 C 107.770 285.997,107.390 286.149,106.926 286.149 C 106.400 286.149,106.081 286.340,106.081 286.655 C 106.081 286.937,105.781 287.162,105.405 287.162 C 105.034 287.162,104.730 287.314,104.730 287.500 C 104.730 287.686,104.502 287.838,104.223 287.838 C 103.944 287.838,103.716 287.990,103.716 288.176 C 103.716 288.361,103.488 288.514,103.209 288.514 C 102.931 288.514,102.703 288.672,102.703 288.867 C 102.703 289.325,101.150 290.878,100.691 290.878 C 100.497 290.878,100.338 291.028,100.338 291.210 C 100.338 291.393,99.806 292.090,99.155 292.759 C 98.505 293.429,97.973 294.192,97.973 294.455 C 97.973 294.717,97.821 294.932,97.635 294.932 C 97.449 294.932,97.297 295.313,97.297 295.777 C 97.297 296.303,97.106 296.622,96.791 296.622 C 96.475 296.622,96.284 296.941,96.284 297.466 C 96.284 297.931,96.132 298.311,95.946 298.311 C 95.760 298.311,95.608 298.834,95.608 299.473 C 95.608 300.113,95.456 300.730,95.270 300.845 C 95.081 300.962,94.932 302.571,94.932 304.513 C 94.932 306.554,94.782 308.124,94.565 308.340 C 94.301 308.605,94.301 308.771,94.565 308.935 C 94.796 309.077,94.932 310.655,94.932 313.196 C 94.932 315.660,95.064 317.230,95.270 317.230 C 95.456 317.230,95.608 317.829,95.608 318.561 C 95.608 319.293,95.760 319.987,95.946 320.101 C 96.132 320.216,96.284 320.686,96.284 321.145 C 96.284 321.605,96.512 322.068,96.791 322.175 C 97.069 322.282,97.297 322.648,97.297 322.989 C 97.297 323.330,97.449 323.703,97.635 323.818 C 97.821 323.932,97.973 324.266,97.973 324.559 C 97.973 324.852,98.353 325.444,98.818 325.874 C 99.282 326.305,99.662 326.797,99.662 326.969 C 99.662 327.331,102.177 330.068,102.509 330.068 C 102.631 330.068,102.915 330.221,103.139 330.409 C 103.364 330.597,104.079 331.202,104.730 331.755 C 105.380 332.307,106.102 332.762,106.334 332.765 C 106.567 332.768,106.757 332.922,106.757 333.108 C 106.757 333.294,107.137 333.446,107.601 333.446 C 108.066 333.446,108.446 333.598,108.446 333.784 C 108.446 333.970,108.826 334.122,109.291 334.122 C 109.816 334.122,110.135 334.313,110.135 334.628 C 110.135 334.982,110.492 335.135,111.318 335.135 C 111.968 335.135,112.500 335.287,112.500 335.473 C 112.500 335.659,113.032 335.811,113.682 335.811 C 114.333 335.811,114.865 335.963,114.865 336.149 C 114.865 336.336,115.766 336.486,116.892 336.486 C 118.398 336.486,118.919 336.607,118.919 336.956 C 118.919 338.069,151.161 338.077,151.790 336.964 C 151.985 336.619,152.761 336.486,154.578 336.486 C 156.030 336.486,157.095 336.344,157.095 336.149 C 157.095 335.956,158.108 335.811,159.459 335.811 C 160.811 335.811,161.824 335.666,161.824 335.473 C 161.824 335.286,162.713 335.135,163.815 335.135 C 165.273 335.135,165.858 335.000,166.001 334.628 C 166.146 334.250,166.751 334.122,168.395 334.122 C 170.396 334.122,170.612 334.053,170.782 333.361 C 171.204 331.645,170.791 276.919,170.355 276.774 C 170.057 276.674,169.932 275.696,169.932 273.452 C 169.932 271.556,169.796 270.270,169.595 270.270 C 169.409 270.270,169.257 269.581,169.257 268.739 C 169.257 267.690,169.097 267.147,168.750 267.014 C 168.437 266.894,168.243 266.381,168.243 265.673 C 168.243 265.043,168.091 264.527,167.905 264.527 C 167.720 264.527,167.568 263.995,167.568 263.345 C 167.568 262.694,167.416 262.162,167.230 262.162 C 167.044 262.162,166.889 261.896,166.886 261.571 C 166.883 261.246,166.503 260.622,166.041 260.184 C 165.580 259.747,165.203 259.166,165.203 258.893 C 165.203 258.316,164.400 257.432,163.875 257.432 C 163.676 257.432,163.514 257.128,163.514 256.757 C 163.514 256.385,163.361 256.081,163.176 256.081 C 162.990 256.081,162.838 255.853,162.838 255.574 C 162.838 255.296,162.679 255.068,162.485 255.068 C 162.290 255.068,161.751 254.688,161.287 254.223 C 160.822 253.758,160.286 253.378,160.096 253.378 C 159.640 253.378,158.784 252.512,158.784 252.051 C 158.784 251.852,158.556 251.689,158.277 251.689 C 157.998 251.689,157.770 251.537,157.770 251.351 C 157.770 251.166,157.466 251.014,157.095 251.014 C 156.723 251.014,156.419 250.861,156.419 250.676 C 156.419 250.490,156.039 250.338,155.574 250.338 C 155.049 250.338,154.730 250.146,154.730 249.831 C 154.730 249.519,154.413 249.324,153.905 249.324 C 153.452 249.324,152.986 249.172,152.872 248.986 C 152.757 248.801,152.232 248.649,151.705 248.649 C 151.166 248.649,150.663 248.427,150.554 248.142 C 150.432 247.826,149.917 247.635,149.186 247.635 C 148.541 247.635,147.919 247.483,147.804 247.297 C 147.689 247.111,146.844 246.959,145.926 246.959 C 145.008 246.959,144.257 246.807,144.257 246.622 C 144.257 246.413,142.503 246.284,139.672 246.284 C 136.047 246.284,134.981 246.178,134.580 245.777 C 134.245 245.442,133.403 245.270,132.095 245.270 C 130.786 245.270,129.944 245.442,129.609 245.777 M301.569 245.777 C 301.185 246.160,300.233 246.284,297.659 246.284 C 295.616 246.284,294.257 246.419,294.257 246.622 C 294.257 246.807,293.582 246.959,292.756 246.959 C 291.931 246.959,291.162 247.111,291.047 247.297 C 290.932 247.483,290.478 247.635,290.038 247.635 C 289.598 247.635,289.009 247.863,288.731 248.142 C 288.452 248.421,287.909 248.649,287.524 248.649 C 287.139 248.649,286.824 248.801,286.824 248.986 C 286.824 249.172,286.463 249.324,286.021 249.324 C 285.579 249.324,285.029 249.552,284.797 249.831 C 284.566 250.110,284.120 250.338,283.806 250.338 C 283.492 250.338,282.909 250.642,282.510 251.014 C 282.111 251.385,281.475 251.689,281.095 251.689 C 280.716 251.689,280.405 251.852,280.405 252.051 C 280.405 252.598,279.512 253.378,278.885 253.378 C 278.258 253.378,277.365 254.158,277.365 254.706 C 277.365 254.905,277.224 255.068,277.053 255.068 C 276.558 255.068,273.311 258.209,273.311 258.689 C 273.311 258.927,273.152 259.122,272.958 259.122 C 272.499 259.122,270.946 260.675,270.946 261.133 C 270.946 261.328,270.718 261.486,270.439 261.486 C 270.158 261.486,269.932 261.787,269.932 262.162 C 269.932 262.534,269.780 262.838,269.595 262.838 C 269.409 262.838,269.257 263.066,269.257 263.345 C 269.257 263.623,269.115 263.851,268.942 263.851 C 268.768 263.851,268.522 264.182,268.394 264.586 C 268.265 264.989,267.875 265.626,267.526 266.001 C 267.177 266.375,266.892 266.941,266.892 267.257 C 266.892 267.574,266.664 267.921,266.385 268.028 C 266.106 268.135,265.878 268.531,265.878 268.908 C 265.878 269.286,265.726 269.595,265.541 269.595 C 265.355 269.595,265.203 269.966,265.203 270.419 C 265.203 270.873,265.051 271.338,264.865 271.453 C 264.679 271.568,264.527 272.016,264.527 272.450 C 264.527 272.884,264.299 273.326,264.020 273.433 C 263.727 273.545,263.514 274.051,263.514 274.632 C 263.514 275.184,263.361 275.730,263.176 275.845 C 262.990 275.959,262.838 276.729,262.838 277.554 C 262.838 278.379,262.686 279.054,262.500 279.054 C 262.307 279.054,262.162 280.056,262.162 281.383 C 262.162 283.141,262.038 283.759,261.655 283.906 C 261.223 284.072,261.149 285.366,261.149 292.690 C 261.149 300.013,261.223 301.308,261.655 301.474 C 262.034 301.619,262.162 302.225,262.162 303.875 C 262.162 305.120,262.309 306.081,262.500 306.081 C 262.686 306.081,262.838 306.841,262.838 307.770 C 262.838 308.699,262.990 309.459,263.176 309.459 C 263.361 309.459,263.514 309.992,263.514 310.642 C 263.514 311.468,263.666 311.824,264.020 311.824 C 264.374 311.824,264.527 312.181,264.527 313.007 C 264.527 313.657,264.679 314.189,264.865 314.189 C 265.051 314.189,265.203 314.569,265.203 315.034 C 265.203 315.498,265.355 315.878,265.541 315.878 C 265.726 315.878,265.878 316.187,265.878 316.565 C 265.878 316.942,266.106 317.338,266.385 317.445 C 266.664 317.552,266.892 317.928,266.892 318.279 C 266.892 318.631,267.044 318.919,267.230 318.919 C 267.416 318.919,267.568 319.154,267.568 319.441 C 267.568 319.728,267.948 320.343,268.412 320.808 C 268.877 321.272,269.257 321.856,269.257 322.106 C 269.257 322.774,275.842 329.392,276.507 329.392 C 277.145 329.392,278.041 330.167,278.041 330.719 C 278.041 330.918,278.307 331.081,278.632 331.081 C 278.957 331.082,279.665 331.462,280.205 331.926 C 280.744 332.390,281.391 332.770,281.640 332.770 C 281.890 332.770,282.095 332.922,282.095 333.108 C 282.095 333.294,282.475 333.446,282.939 333.446 C 283.404 333.446,283.784 333.598,283.784 333.784 C 283.784 333.970,284.072 334.122,284.423 334.122 C 284.775 334.122,285.150 334.350,285.257 334.628 C 285.371 334.925,285.877 335.135,286.476 335.135 C 287.039 335.135,287.500 335.287,287.500 335.473 C 287.500 335.659,287.947 335.811,288.494 335.811 C 289.040 335.811,289.581 335.963,289.696 336.149 C 289.811 336.334,290.504 336.486,291.236 336.486 C 292.152 336.486,292.568 336.634,292.568 336.959 C 292.568 338.112,323.736 338.201,324.380 337.050 C 324.624 336.615,325.192 336.486,326.875 336.486 C 328.102 336.486,329.054 336.339,329.054 336.149 C 329.054 335.963,329.814 335.811,330.743 335.811 C 331.672 335.811,332.432 335.659,332.432 335.473 C 332.432 335.287,332.965 335.135,333.615 335.135 C 334.441 335.135,334.797 334.982,334.797 334.628 C 334.797 334.274,335.154 334.122,335.980 334.122 C 336.630 334.122,337.162 333.970,337.162 333.784 C 337.162 333.598,337.542 333.446,338.007 333.446 C 339.037 333.446,339.303 329.892,338.345 328.933 C 337.997 328.586,337.838 327.730,337.838 326.207 C 337.838 324.952,337.691 323.986,337.500 323.986 C 337.307 323.986,337.162 322.973,337.162 321.622 C 337.162 320.270,337.017 319.257,336.824 319.257 C 336.634 319.257,336.486 318.308,336.486 317.085 C 336.486 315.605,336.325 314.752,335.980 314.406 C 335.701 314.128,335.473 313.433,335.473 312.862 C 335.473 311.792,333.176 311.232,332.601 312.162 C 332.487 312.348,332.040 312.500,331.609 312.500 C 331.178 312.500,330.637 312.728,330.405 313.007 C 330.174 313.285,329.471 313.514,328.844 313.514 C 328.216 313.514,327.703 313.666,327.703 313.851 C 327.703 314.037,326.943 314.189,326.014 314.189 C 325.084 314.189,324.324 314.319,324.324 314.478 C 324.324 314.637,323.149 314.856,321.713 314.965 C 320.276 315.073,319.048 315.323,318.982 315.520 C 318.829 315.980,305.068 316.021,305.068 315.561 C 305.068 315.387,304.345 315.151,303.463 315.037 C 302.580 314.923,301.594 314.686,301.271 314.510 C 300.949 314.333,300.227 314.189,299.667 314.189 C 299.107 314.189,298.649 314.037,298.649 313.851 C 298.649 313.666,298.361 313.514,298.009 313.514 C 297.657 313.514,297.282 313.285,297.175 313.007 C 297.068 312.728,296.705 312.500,296.369 312.500 C 296.033 312.500,295.538 312.196,295.270 311.824 C 295.002 311.453,294.650 311.149,294.487 311.149 C 294.080 311.149,290.878 307.849,290.878 307.431 C 290.878 307.246,290.650 307.095,290.372 307.095 C 290.056 307.095,289.865 306.776,289.865 306.250 C 289.865 305.785,289.713 305.405,289.527 305.405 C 289.341 305.405,289.189 305.025,289.189 304.561 C 289.189 304.096,289.037 303.716,288.851 303.716 C 288.666 303.716,288.514 303.185,288.514 302.536 L 288.514 301.355 315.963 301.269 L 343.412 301.182 343.501 290.456 C 343.560 283.373,343.474 279.730,343.248 279.730 C 343.055 279.730,342.905 278.855,342.905 277.727 C 342.905 276.397,342.735 275.554,342.399 275.217 C 342.120 274.938,341.892 274.252,341.892 273.693 C 341.892 273.133,341.740 272.581,341.554 272.466 C 341.368 272.351,341.214 271.924,341.211 271.517 C 341.204 270.455,340.340 268.120,339.900 267.974 C 339.695 267.905,339.527 267.482,339.527 267.033 C 339.527 266.584,339.375 266.216,339.189 266.216 C 339.003 266.216,338.851 265.836,338.851 265.372 C 338.851 264.846,338.660 264.527,338.345 264.527 C 338.066 264.527,337.838 264.304,337.838 264.031 C 337.838 263.283,336.532 261.074,335.611 260.265 C 335.163 259.872,334.797 259.357,334.797 259.122 C 334.797 258.887,334.265 258.193,333.615 257.579 C 332.965 256.966,332.432 256.302,332.432 256.104 C 332.432 255.905,332.273 255.743,332.079 255.743 C 331.885 255.743,331.346 255.363,330.881 254.899 C 330.417 254.434,329.907 254.054,329.748 254.054 C 329.589 254.054,328.927 253.522,328.277 252.872 C 327.627 252.221,326.851 251.689,326.554 251.689 C 326.257 251.689,326.014 251.537,326.014 251.351 C 326.014 251.166,325.762 251.014,325.454 251.014 C 325.147 251.014,324.397 250.633,323.788 250.169 C 323.179 249.704,322.366 249.324,321.982 249.324 C 321.598 249.324,321.284 249.172,321.284 248.986 C 321.284 248.801,320.969 248.649,320.584 248.649 C 320.199 248.649,319.656 248.421,319.377 248.142 C 319.099 247.863,318.510 247.635,318.070 247.635 C 317.630 247.635,317.176 247.483,317.061 247.297 C 316.946 247.111,316.025 246.959,315.014 246.959 C 314.003 246.959,313.176 246.807,313.176 246.622 C 313.176 246.415,311.611 246.284,309.158 246.284 C 305.898 246.284,305.103 246.188,304.945 245.777 C 304.818 245.445,304.291 245.270,303.413 245.270 C 302.674 245.270,301.848 245.497,301.569 245.777 M205.236 246.622 C 205.120 246.810,203.550 246.959,201.689 246.959 C 199.828 246.959,198.258 247.109,198.142 247.297 C 198.027 247.483,197.041 247.635,195.950 247.635 C 194.638 247.635,193.796 247.807,193.460 248.142 C 193.113 248.490,192.257 248.649,190.734 248.649 C 189.479 248.649,188.514 248.796,188.514 248.986 C 188.514 249.172,187.673 249.324,186.645 249.324 C 185.295 249.324,184.722 249.465,184.582 249.831 C 184.450 250.174,183.913 250.338,182.923 250.338 C 182.118 250.338,181.365 250.490,181.250 250.676 C 181.135 250.861,180.746 251.014,180.385 251.014 C 179.740 251.014,179.730 251.672,179.730 293.754 L 179.730 336.494 192.821 336.406 L 205.912 336.318 205.998 302.787 L 206.084 269.257 207.941 269.257 C 208.962 269.257,209.797 269.105,209.797 268.919 C 209.797 268.709,211.655 268.581,214.696 268.581 C 217.736 268.581,219.595 268.709,219.595 268.919 C 219.595 269.105,220.137 269.257,220.800 269.257 C 221.564 269.257,222.409 269.565,223.112 270.101 C 223.721 270.566,224.471 270.946,224.779 270.946 C 225.086 270.946,225.338 271.140,225.338 271.378 C 225.338 271.616,225.642 272.029,226.014 272.297 C 226.385 272.565,226.689 273.060,226.689 273.396 C 226.689 273.732,226.917 274.095,227.196 274.202 C 227.475 274.309,227.703 274.684,227.703 275.036 C 227.703 275.388,227.855 275.676,228.041 275.676 C 228.226 275.676,228.378 276.177,228.378 276.791 C 228.378 277.404,228.514 278.050,228.681 278.226 C 228.847 278.403,229.046 279.602,229.123 280.891 C 229.207 282.290,229.425 283.288,229.665 283.368 C 229.972 283.470,230.068 289.804,230.068 309.994 L 230.068 336.486 242.838 336.486 C 252.320 336.486,255.712 336.382,256.014 336.081 C 256.540 335.554,256.607 285.291,256.081 284.966 C 255.883 284.844,255.743 282.887,255.743 280.241 C 255.743 276.676,255.636 275.617,255.236 275.217 C 254.909 274.889,254.730 274.053,254.730 272.848 C 254.730 271.824,254.578 270.892,254.392 270.777 C 254.206 270.662,254.054 269.969,254.054 269.237 C 254.054 268.279,253.912 267.905,253.547 267.905 C 253.193 267.905,253.041 267.549,253.041 266.723 C 253.041 266.073,252.889 265.541,252.703 265.541 C 252.517 265.541,252.365 265.169,252.365 264.716 C 252.365 264.262,252.213 263.797,252.027 263.682 C 251.841 263.568,251.689 263.179,251.689 262.818 C 251.689 262.457,251.461 262.162,251.182 262.162 C 250.867 262.162,250.676 261.843,250.676 261.318 C 250.676 260.853,250.524 260.473,250.338 260.473 C 250.152 260.473,250.000 260.237,250.000 259.949 C 250.000 259.662,249.468 258.878,248.818 258.208 C 248.167 257.539,247.635 256.835,247.635 256.644 C 247.635 256.263,245.334 254.054,244.937 254.054 C 244.801 254.054,244.125 253.522,243.435 252.872 C 242.746 252.221,241.964 251.689,241.699 251.689 C 241.433 251.689,241.216 251.537,241.216 251.351 C 241.216 251.166,240.836 251.014,240.372 251.014 C 239.907 251.014,239.527 250.861,239.527 250.676 C 239.527 250.490,239.147 250.338,238.682 250.338 C 238.157 250.338,237.838 250.146,237.838 249.831 C 237.838 249.552,237.543 249.324,237.182 249.324 C 236.821 249.324,236.432 249.172,236.318 248.986 C 236.203 248.801,235.727 248.649,235.260 248.649 C 234.793 248.649,234.183 248.421,233.904 248.142 C 233.626 247.863,232.800 247.635,232.070 247.635 C 231.340 247.635,230.743 247.483,230.743 247.297 C 230.743 247.104,229.730 246.959,228.378 246.959 C 227.027 246.959,226.014 246.815,226.014 246.622 C 226.014 246.404,222.360 246.284,215.729 246.284 C 209.238 246.284,205.368 246.408,205.236 246.622 M307.770 268.243 C 307.770 268.429,308.302 268.581,308.953 268.581 C 309.603 268.581,310.135 268.733,310.135 268.919 C 310.135 269.105,310.439 269.257,310.811 269.257 C 311.186 269.257,311.486 269.482,311.486 269.764 C 311.486 270.042,311.681 270.270,311.919 270.270 C 312.156 270.270,312.570 270.574,312.838 270.946 C 313.106 271.318,313.519 271.622,313.757 271.622 C 313.995 271.622,314.189 271.816,314.189 272.054 C 314.189 272.291,314.493 272.705,314.865 272.973 C 315.236 273.241,315.541 273.638,315.541 273.856 C 315.541 274.074,315.769 274.340,316.047 274.446 C 316.326 274.553,316.554 274.874,316.554 275.158 C 316.554 275.443,316.706 275.676,316.892 275.676 C 317.078 275.676,317.230 276.208,317.230 276.858 C 317.230 277.508,317.382 278.041,317.568 278.041 C 317.753 278.041,317.905 278.784,317.905 279.694 C 317.905 280.851,318.057 281.405,318.412 281.541 C 318.691 281.648,318.919 282.044,318.919 282.422 C 318.919 283.102,318.772 283.108,303.632 283.108 L 288.345 283.109 288.462 281.419 C 288.526 280.490,288.716 279.730,288.884 279.730 C 289.052 279.730,289.189 279.198,289.189 278.547 C 289.189 277.897,289.341 277.365,289.527 277.365 C 289.713 277.365,289.865 277.001,289.865 276.556 C 289.865 276.112,290.093 275.660,290.372 275.554 C 290.650 275.447,290.878 275.126,290.878 274.842 C 290.878 274.557,291.030 274.324,291.216 274.324 C 291.402 274.324,291.558 274.134,291.563 273.902 C 291.574 273.376,294.707 270.270,295.227 270.270 C 295.436 270.270,295.608 270.042,295.608 269.764 C 295.608 269.448,295.927 269.257,296.453 269.257 C 296.917 269.257,297.297 269.105,297.297 268.919 C 297.297 268.733,297.744 268.581,298.291 268.581 C 298.837 268.581,299.378 268.429,299.493 268.243 C 299.614 268.049,301.411 267.905,303.736 267.905 C 306.200 267.905,307.770 268.037,307.770 268.243 M142.736 299.324 C 142.851 299.510,143.468 299.662,144.108 299.662 L 145.270 299.662 145.270 308.615 L 145.270 317.568 136.824 317.568 C 129.542 317.568,128.378 317.498,128.378 317.061 C 128.378 316.707,128.022 316.554,127.196 316.554 C 126.546 316.554,126.014 316.402,126.014 316.216 C 126.014 316.030,125.704 315.878,125.326 315.878 C 124.118 315.878,121.959 314.269,121.959 313.369 C 121.959 313.077,121.807 312.838,121.622 312.838 C 121.436 312.838,121.284 312.458,121.284 311.993 C 121.284 311.468,121.092 311.149,120.777 311.149 C 120.369 311.149,120.270 310.622,120.270 308.435 C 120.270 306.335,120.385 305.678,120.777 305.528 C 121.056 305.421,121.284 305.039,121.284 304.680 C 121.284 303.925,123.776 301.351,124.507 301.351 C 124.778 301.351,125.000 301.199,125.000 301.014 C 125.000 300.828,125.380 300.676,125.845 300.676 C 126.370 300.676,126.689 300.484,126.689 300.169 C 126.689 299.786,127.102 299.662,128.378 299.662 C 129.307 299.662,130.068 299.510,130.068 299.324 C 130.068 299.111,132.369 298.986,136.298 298.986 C 140.087 298.986,142.610 299.119,142.736 299.324 " stroke="none" fill="#040404" fill-rule="evenodd"></path><path id="path1" d="M-0.000 95.947 L -0.000 191.893 95.355 191.808 L 190.709 191.723 190.795 95.861 L 190.880 0.000 95.440 0.000 L 0.000 0.000 -0.000 95.947 M209.205 95.861 L 209.291 191.723 304.645 191.808 L 400.000 191.893 400.000 95.947 L 400.000 0.000 304.560 0.000 L 209.120 0.000 209.205 95.861 M307.642 19.096 C 308.785 19.968,309.569 21.341,309.951 23.142 C 310.069 23.699,310.304 24.764,310.473 25.507 C 310.643 26.250,310.788 27.563,310.796 28.424 C 310.811 29.983,311.672 31.081,312.880 31.081 C 314.135 31.081,316.216 35.102,316.216 37.524 C 316.216 38.118,316.357 39.154,316.530 39.826 C 316.897 41.257,317.545 45.399,317.962 48.986 C 318.671 55.074,318.883 56.682,319.177 58.196 C 319.651 60.642,319.663 60.636,321.125 57.264 C 321.447 56.520,321.995 55.314,322.342 54.582 C 322.689 53.850,322.973 53.055,322.973 52.814 C 322.973 50.804,327.797 48.397,330.082 49.266 C 331.208 49.694,333.108 51.668,333.108 52.409 C 333.108 52.734,333.260 53.095,333.446 53.209 C 333.632 53.324,333.784 53.759,333.784 54.175 C 333.784 54.592,333.927 55.077,334.102 55.253 C 334.435 55.589,335.073 57.829,335.373 59.716 C 335.469 60.322,335.683 60.901,335.848 61.003 C 336.013 61.105,336.149 61.501,336.149 61.883 C 336.149 62.266,336.393 63.359,336.692 64.313 C 337.678 67.465,337.838 68.114,337.838 68.971 C 337.838 69.438,337.949 69.931,338.086 70.068 C 338.736 70.718,339.613 76.505,340.189 83.953 C 340.362 86.182,340.657 89.147,340.845 90.541 C 341.033 91.934,341.193 94.109,341.201 95.375 C 341.218 97.944,341.515 98.045,342.574 95.841 C 343.971 92.938,345.395 91.391,346.996 91.039 C 347.529 90.922,348.052 90.686,348.158 90.515 C 348.585 89.824,350.832 90.202,351.860 91.137 C 352.917 92.099,354.730 94.391,354.730 94.765 C 354.730 95.351,355.824 95.946,356.902 95.946 C 357.970 95.946,358.108 95.847,358.108 95.085 C 358.108 93.110,359.912 90.873,362.987 89.037 C 367.247 86.492,370.069 87.757,372.752 93.412 C 373.457 94.899,374.176 96.379,374.348 96.701 C 374.521 97.024,374.662 97.520,374.662 97.804 C 374.662 98.088,374.794 98.584,374.955 98.907 C 375.398 99.795,376.062 101.754,376.242 102.703 C 376.330 103.167,376.532 103.851,376.692 104.223 C 376.851 104.595,377.054 105.355,377.142 105.912 C 377.231 106.470,377.560 107.838,377.874 108.953 C 378.188 110.068,378.521 111.664,378.613 112.500 C 378.706 113.336,378.919 114.165,379.087 114.341 C 379.255 114.518,379.392 115.250,379.392 115.968 C 379.392 116.686,379.539 117.548,379.718 117.884 C 380.032 118.471,380.593 121.089,380.971 123.735 C 381.071 124.433,381.288 125.088,381.455 125.191 C 381.621 125.294,381.758 125.711,381.760 126.118 C 381.762 126.525,382.142 127.671,382.605 128.665 C 384.966 133.737,382.505 138.851,377.704 138.851 C 375.593 138.851,372.635 136.145,372.635 134.213 C 372.635 133.865,372.514 133.437,372.367 133.260 C 372.101 132.942,371.320 130.477,370.660 127.872 C 370.471 127.128,370.099 125.684,369.832 124.662 C 368.881 121.025,368.581 119.572,368.581 118.596 C 368.581 118.052,368.449 117.526,368.287 117.426 C 368.125 117.326,367.904 116.519,367.795 115.632 C 367.686 114.746,367.372 113.260,367.098 112.331 L 366.600 110.642 366.577 112.251 C 366.564 113.136,366.411 114.125,366.237 114.447 C 366.062 114.770,365.829 115.459,365.719 115.979 C 364.709 120.757,355.743 120.829,355.743 116.059 C 355.743 115.774,355.591 115.541,355.405 115.541 C 355.220 115.541,355.068 115.017,355.068 114.378 C 355.068 113.739,354.929 113.130,354.759 113.025 C 354.589 112.920,354.348 112.227,354.223 111.485 C 354.097 110.742,353.816 110.135,353.597 110.135 C 353.378 110.135,352.624 109.827,351.921 109.450 C 350.312 108.587,350.142 108.705,349.854 110.879 C 349.725 111.854,349.493 112.808,349.339 112.998 C 349.185 113.189,348.971 114.029,348.865 114.865 C 348.338 118.985,348.253 119.235,346.925 120.603 L 345.609 121.959 342.261 121.959 C 338.279 121.959,336.311 121.157,334.082 118.625 C 331.805 116.038,331.552 115.127,331.106 107.939 C 330.957 105.524,330.735 103.167,330.615 102.703 C 330.405 101.899,329.989 96.923,329.384 88.007 C 328.942 81.482,328.501 77.602,328.088 76.583 C 327.876 76.060,327.703 75.203,327.703 74.679 C 327.703 74.155,327.493 73.228,327.237 72.618 L 326.771 71.510 326.605 72.833 C 326.309 75.207,325.628 78.202,325.311 78.530 C 325.140 78.707,325.000 79.496,325.000 80.284 C 325.000 81.072,324.848 81.811,324.662 81.926 C 324.476 82.041,324.324 82.424,324.324 82.778 C 324.324 84.859,320.806 86.703,318.169 86.004 C 311.913 84.347,311.295 83.145,309.475 69.088 C 309.176 66.778,308.774 64.245,308.103 60.453 C 307.920 59.419,307.770 57.953,307.770 57.195 C 307.770 55.811,307.408 55.405,306.170 55.405 C 305.424 55.405,303.389 53.790,303.038 52.921 C 302.813 52.363,302.740 52.586,302.722 53.885 C 302.709 54.814,302.553 56.106,302.375 56.757 C 302.196 57.407,301.887 59.079,301.688 60.473 C 301.052 64.910,300.967 65.161,299.551 66.769 C 298.058 68.465,297.017 71.481,296.979 74.220 C 296.968 74.999,296.807 75.730,296.622 75.845 C 296.436 75.959,296.284 76.726,296.284 77.549 C 296.284 78.371,296.135 79.693,295.953 80.485 C 295.510 82.421,294.954 85.769,294.565 88.851 C 294.389 90.245,294.111 92.449,293.947 93.750 C 293.783 95.051,293.396 97.559,293.087 99.324 C 292.778 101.090,292.439 103.136,292.335 103.872 C 292.140 105.249,290.900 107.459,289.701 108.569 C 288.296 109.868,286.912 110.811,286.409 110.811 C 285.860 110.811,285.847 110.931,285.171 122.466 C 284.653 131.291,284.101 138.002,283.773 139.447 C 283.593 140.240,283.446 141.497,283.446 142.241 C 283.446 143.103,283.139 144.081,282.601 144.932 C 282.137 145.668,281.757 146.415,281.757 146.592 C 281.757 147.379,279.760 148.311,278.073 148.311 C 276.637 148.311,276.351 148.412,276.351 148.922 C 276.351 149.258,276.128 149.828,275.855 150.189 C 275.583 150.549,275.354 151.254,275.349 151.754 C 275.343 152.254,275.186 152.757,275.000 152.872 C 274.814 152.986,274.662 153.303,274.662 153.574 C 274.662 155.497,271.974 157.668,269.172 158.008 C 267.932 158.158,267.568 158.339,267.568 158.803 C 267.568 159.134,267.349 159.835,267.082 160.361 C 266.816 160.887,266.212 162.154,265.742 163.176 C 264.220 166.483,261.572 168.619,258.345 169.142 C 257.513 169.277,256.832 169.742,255.991 170.748 C 252.391 175.055,247.594 173.007,245.775 166.385 C 245.468 165.270,245.077 163.891,244.906 163.321 C 244.735 162.750,244.595 161.740,244.595 161.076 C 244.595 159.805,244.195 159.459,242.729 159.459 C 242.290 159.459,241.838 159.307,241.723 159.122 C 241.608 158.936,240.848 158.784,240.034 158.784 C 239.220 158.784,238.459 158.936,238.345 159.122 C 237.836 159.944,235.406 159.426,233.592 158.108 C 232.657 157.429,231.342 154.901,230.957 153.041 C 230.861 152.576,230.529 151.284,230.219 150.169 C 229.909 149.054,229.580 147.534,229.489 146.791 C 229.397 146.047,229.186 145.295,229.019 145.118 C 228.853 144.942,228.716 144.362,228.716 143.829 C 228.716 143.297,228.553 142.557,228.354 142.185 C 228.156 141.813,227.844 140.721,227.661 139.758 C 226.872 135.587,226.719 134.852,226.204 132.770 C 225.527 130.035,225.042 125.993,225.242 124.753 C 226.123 119.281,233.365 118.844,235.155 124.155 C 235.406 124.899,235.732 125.651,235.880 125.828 C 236.028 126.004,236.149 126.440,236.149 126.796 C 236.149 127.152,236.393 128.224,236.692 129.178 C 237.685 132.353,237.838 132.981,237.838 133.897 C 237.838 134.397,237.971 135.070,238.133 135.393 C 238.532 136.185,239.533 140.527,239.530 141.450 C 239.528 141.857,239.679 142.284,239.865 142.399 C 240.051 142.513,240.203 143.055,240.203 143.601 C 240.203 144.234,240.377 144.595,240.682 144.595 C 241.146 144.595,243.237 145.583,243.581 145.965 C 243.935 146.359,245.845 146.927,247.511 147.134 C 252.235 147.722,254.730 150.451,254.730 155.032 C 254.730 155.586,254.939 155.743,255.676 155.743 C 256.826 155.743,257.432 155.194,257.432 154.151 C 257.432 153.721,257.570 153.105,257.739 152.783 C 258.191 151.919,259.122 148.668,259.122 147.954 C 259.122 147.615,259.274 147.243,259.459 147.128 C 259.645 147.014,259.797 146.521,259.797 146.034 C 259.797 141.966,262.980 137.500,265.879 137.500 C 267.907 137.500,268.581 137.254,268.581 136.514 C 268.581 136.197,268.961 135.149,269.426 134.187 C 269.890 133.224,270.270 132.279,270.270 132.087 C 270.270 131.896,270.961 131.048,271.806 130.204 C 273.670 128.339,273.976 126.253,274.991 108.446 C 275.556 98.546,277.328 94.932,281.618 94.932 C 282.581 94.932,282.804 94.348,283.162 90.878 C 283.710 85.586,284.707 78.415,284.990 77.731 C 285.112 77.437,285.346 76.246,285.511 75.084 C 286.370 69.035,287.155 65.097,287.590 64.663 C 287.726 64.526,287.838 64.140,287.838 63.805 C 287.838 63.207,288.868 61.132,289.660 60.135 C 290.712 58.811,291.461 55.288,292.531 46.622 C 292.886 43.742,293.557 40.933,293.946 40.693 C 294.117 40.587,294.257 40.259,294.257 39.964 C 294.257 39.668,294.770 38.928,295.398 38.318 C 296.682 37.071,297.297 35.613,297.297 33.816 C 297.297 33.145,297.458 32.066,297.654 31.417 C 297.850 30.768,298.159 29.096,298.341 27.703 C 299.149 21.509,299.503 20.482,301.279 19.185 C 303.044 17.896,306.014 17.854,307.642 19.096 M68.074 37.060 C 68.446 37.271,69.309 37.686,69.991 37.982 C 71.840 38.784,74.389 40.923,75.818 42.869 L 77.083 44.592 119.031 44.678 L 160.980 44.764 160.980 51.858 L 160.980 58.953 118.956 59.122 C 78.434 59.285,76.918 59.313,76.557 59.919 C 75.273 62.075,70.962 65.878,69.803 65.878 C 69.502 65.878,69.257 65.999,69.257 66.146 C 69.257 66.612,65.002 67.568,62.927 67.568 C 59.155 67.568,53.086 64.739,51.597 62.287 C 51.454 62.051,51.140 61.660,50.899 61.419 C 50.659 61.177,50.190 60.564,49.857 60.056 L 49.253 59.132 39.407 59.042 L 29.561 58.953 29.561 51.858 L 29.561 44.764 39.418 44.674 L 49.274 44.584 50.537 42.865 C 51.955 40.932,54.498 38.795,56.360 37.972 C 57.043 37.670,58.057 37.207,58.615 36.944 C 59.836 36.367,67.009 36.455,68.074 37.060 M127.411 80.273 C 131.427 81.477,134.170 83.336,136.326 86.318 C 136.864 87.061,137.360 87.745,137.430 87.838 C 137.499 87.931,142.826 88.083,149.268 88.176 L 160.980 88.345 160.980 95.439 L 160.980 102.534 149.071 102.623 C 139.090 102.697,137.162 102.788,137.162 103.188 C 137.162 104.190,132.652 108.281,130.236 109.469 C 127.546 110.792,121.731 111.326,119.485 110.456 C 115.487 108.908,112.070 106.344,110.618 103.802 L 109.991 102.705 69.776 102.620 L 29.561 102.534 29.561 95.439 L 29.561 88.345 69.633 88.259 L 109.705 88.173 110.342 87.276 C 112.276 84.555,115.852 81.419,117.022 81.419 C 117.322 81.419,117.568 81.284,117.568 81.119 C 117.568 80.955,117.986 80.737,118.497 80.636 C 119.008 80.535,119.958 80.305,120.608 80.125 C 122.460 79.614,125.427 79.679,127.411 80.273 M66.385 123.720 C 70.496 124.597,73.950 126.975,76.217 130.489 L 77.034 131.754 119.007 131.840 L 160.980 131.926 160.980 138.851 L 160.980 145.777 118.923 145.946 L 76.867 146.115 76.412 147.065 C 75.054 149.898,69.414 153.681,65.709 154.243 C 62.930 154.665,59.144 154.308,57.601 153.479 C 57.230 153.279,56.332 152.833,55.607 152.487 C 54.127 151.781,50.721 148.557,49.790 146.981 L 49.179 145.946 39.278 145.946 L 29.378 145.946 29.469 138.936 L 29.561 131.926 39.401 131.836 L 49.241 131.747 50.181 130.316 C 52.275 127.125,55.895 124.545,59.291 123.821 C 63.162 122.996,63.007 122.999,66.385 123.720 " stroke="none" fill="#04ac44" fill-rule="evenodd"></path><path id="path2" d="M301.296 19.185 C 299.922 20.203,298.861 22.224,299.086 23.394 C 299.225 24.117,299.235 24.113,299.295 23.311 C 299.454 21.143,301.240 19.097,303.420 18.582 L 304.561 18.312 303.547 18.290 C 302.947 18.277,302.030 18.642,301.296 19.185 M306.475 18.792 C 307.649 19.280,309.459 21.436,309.459 22.346 C 309.459 22.567,309.555 22.652,309.673 22.535 C 310.430 21.778,307.275 18.223,305.880 18.261 C 305.485 18.271,305.715 18.477,306.475 18.792 M309.965 24.662 C 310.081 25.313,310.253 26.681,310.346 27.703 C 310.623 30.742,310.747 31.082,311.577 31.074 L 312.331 31.066 311.613 30.482 C 311.034 30.011,310.855 29.387,310.686 27.254 C 310.571 25.800,310.314 24.355,310.115 24.045 C 309.835 23.608,309.801 23.748,309.965 24.662 M298.542 25.467 C 298.415 25.798,298.326 26.550,298.345 27.139 C 298.378 28.182,298.387 28.175,298.690 26.881 C 299.025 25.453,298.922 24.476,298.542 25.467 M297.704 31.060 C 297.480 32.029,297.297 33.320,297.297 33.928 C 297.297 35.616,296.657 37.095,295.398 38.318 C 294.770 38.928,294.257 39.549,294.257 39.699 C 294.257 40.852,297.285 36.599,297.457 35.204 C 297.565 34.330,297.821 32.837,298.026 31.886 C 298.230 30.935,298.333 29.964,298.254 29.728 C 298.175 29.492,297.928 30.091,297.704 31.060 M313.848 32.388 C 314.807 33.396,315.198 34.189,315.557 35.851 C 315.813 37.037,316.081 37.722,316.152 37.373 C 316.486 35.743,314.110 31.081,312.944 31.081 C 312.758 31.081,313.164 31.669,313.848 32.388 M58.819 36.835 C 58.374 37.023,58.095 37.262,58.199 37.366 C 58.303 37.470,58.720 37.377,59.125 37.160 C 59.949 36.719,66.601 36.839,67.736 37.316 C 68.305 37.554,68.342 37.524,67.973 37.127 C 67.433 36.547,60.061 36.312,58.819 36.835 M70.146 38.385 C 71.837 39.209,75.503 42.650,76.309 44.171 L 76.712 44.930 118.677 45.016 L 160.642 45.101 160.642 51.858 L 160.642 58.615 118.793 58.784 L 76.945 58.953 76.098 60.051 C 75.632 60.655,75.423 61.149,75.632 61.149 C 75.842 61.149,76.014 61.026,76.014 60.875 C 76.014 59.200,73.436 59.305,118.976 59.122 L 160.980 58.953 160.980 51.858 L 160.980 44.764 119.031 44.678 L 77.083 44.592 75.842 42.902 C 74.068 40.486,70.118 37.456,68.824 37.520 C 68.598 37.532,69.192 37.921,70.146 38.385 M53.691 39.655 C 52.655 40.468,51.238 41.910,50.541 42.859 L 49.274 44.584 39.446 44.674 C 31.807 44.744,29.597 44.860,29.530 45.194 C 29.482 45.431,29.520 45.469,29.614 45.279 C 29.726 45.054,33.270 44.932,39.712 44.932 L 49.638 44.932 50.043 44.172 C 50.865 42.628,52.583 40.764,54.362 39.488 C 55.368 38.766,56.052 38.176,55.883 38.176 C 55.713 38.176,54.727 38.841,53.691 39.655 M316.274 39.865 C 316.290 41.259,316.822 42.700,316.834 41.385 C 316.840 40.828,316.714 40.068,316.554 39.696 C 316.290 39.082,316.265 39.097,316.274 39.865 M293.821 40.771 C 293.383 41.502,292.572 45.484,292.607 46.733 C 292.650 48.287,292.667 48.232,293.253 44.595 C 293.478 43.201,293.808 41.782,293.987 41.441 C 294.303 40.837,294.151 40.222,293.821 40.771 M317.095 45.101 C 317.206 46.216,317.413 47.889,317.554 48.818 L 317.810 50.507 317.836 48.818 C 317.850 47.889,317.644 46.216,317.377 45.101 L 316.892 43.074 317.095 45.101 M292.123 49.116 C 291.996 49.447,291.907 50.199,291.926 50.788 C 291.959 51.830,291.968 51.824,292.271 50.529 C 292.606 49.102,292.503 48.124,292.123 49.116 M326.689 49.331 C 325.404 49.631,322.962 52.051,322.988 53.000 C 322.996 53.301,323.298 52.989,323.658 52.308 C 325.487 48.844,329.892 48.364,332.083 51.389 C 332.647 52.167,333.108 52.582,333.108 52.311 C 333.108 51.666,331.148 49.671,330.138 49.287 C 329.218 48.937,328.332 48.948,326.689 49.331 M317.930 51.520 C 317.938 51.892,318.070 52.804,318.224 53.547 L 318.503 54.899 318.537 53.378 C 318.556 52.542,318.423 51.630,318.243 51.351 C 317.973 50.933,317.918 50.962,317.930 51.520 M302.260 54.561 C 301.680 58.883,301.663 59.795,302.208 57.432 C 302.487 56.225,302.673 54.628,302.623 53.885 C 302.540 52.656,302.508 52.717,302.260 54.561 M303.041 52.941 C 303.041 53.398,305.402 55.414,305.905 55.386 C 306.095 55.375,305.955 55.185,305.595 54.963 C 305.234 54.742,304.512 54.109,303.990 53.556 C 303.468 53.004,303.041 52.727,303.041 52.941 M291.234 55.405 C 290.807 57.968,290.393 59.212,289.660 60.135 C 288.950 61.029,287.837 63.183,287.865 63.608 C 287.880 63.835,288.152 63.488,288.469 62.838 C 288.786 62.187,289.534 60.904,290.131 59.985 C 290.728 59.066,291.216 57.955,291.216 57.516 C 291.216 57.077,291.384 56.052,291.589 55.238 C 291.794 54.423,291.893 53.558,291.809 53.314 C 291.725 53.071,291.466 54.012,291.234 55.405 M321.306 56.779 C 320.882 57.718,320.601 58.551,320.682 58.632 C 320.762 58.713,321.175 58.011,321.599 57.072 C 322.023 56.134,322.304 55.300,322.224 55.219 C 322.143 55.139,321.730 55.841,321.306 56.779 M333.784 55.342 C 333.784 55.568,333.924 56.016,334.096 56.339 C 334.268 56.662,334.648 57.762,334.940 58.784 C 335.523 60.827,335.419 59.518,334.806 57.095 C 334.429 55.606,333.784 54.500,333.784 55.342 M307.921 57.770 C 308.081 60.833,308.816 66.001,309.170 66.549 C 309.410 66.920,309.449 66.783,309.311 66.047 C 309.207 65.490,308.959 63.742,308.760 62.162 C 308.561 60.583,308.269 58.530,308.111 57.601 L 307.824 55.912 307.921 57.770 M318.581 56.844 C 318.581 57.938,319.383 60.811,319.689 60.811 C 319.863 60.811,319.892 60.545,319.754 60.220 C 319.617 59.894,319.396 58.981,319.264 58.189 C 319.022 56.729,318.581 55.862,318.581 56.844 M29.613 58.868 C 29.699 59.008,34.161 59.122,39.528 59.122 L 49.286 59.122 49.885 60.135 C 50.214 60.693,50.622 61.149,50.792 61.149 C 50.961 61.149,50.719 60.655,50.254 60.051 L 49.408 58.953 39.432 58.784 C 33.945 58.691,29.526 58.729,29.613 58.868 M301.405 60.515 C 301.376 60.817,301.265 61.577,301.160 62.204 C 301.003 63.138,301.038 63.236,301.350 62.746 C 301.559 62.417,301.670 61.657,301.595 61.057 C 301.521 60.457,301.435 60.213,301.405 60.515 M335.497 61.044 C 335.573 61.921,336.101 62.665,336.125 61.929 C 336.138 61.522,335.997 61.095,335.811 60.980 C 335.625 60.865,335.484 60.894,335.497 61.044 M51.390 62.078 C 51.600 62.403,52.248 63.038,52.829 63.489 C 53.714 64.176,53.669 64.080,52.550 62.898 C 51.107 61.373,50.789 61.149,51.390 62.078 M73.802 62.922 L 72.466 64.358 73.902 63.023 C 74.692 62.288,75.338 61.642,75.338 61.587 C 75.338 61.331,75.044 61.587,73.802 62.922 M336.315 63.851 C 336.921 66.798,337.684 69.322,337.775 68.683 C 337.833 68.274,337.719 67.638,337.521 67.269 C 337.324 66.900,337.155 66.246,337.147 65.816 C 337.139 65.386,336.909 64.578,336.636 64.020 C 336.202 63.131,336.163 63.110,336.315 63.851 M54.377 64.678 C 54.807 65.196,57.724 66.713,57.918 66.519 C 57.996 66.441,57.155 65.901,56.047 65.320 C 54.940 64.740,54.188 64.451,54.377 64.678 M70.777 65.060 C 70.034 65.504,69.654 65.869,69.932 65.871 C 70.211 65.873,70.895 65.501,71.453 65.044 C 72.711 64.013,72.522 64.018,70.777 65.060 M300.491 64.914 C 300.365 65.313,299.700 66.263,299.015 67.026 C 297.860 68.311,296.578 71.691,297.062 72.175 C 297.158 72.271,297.431 71.464,297.667 70.381 C 297.995 68.882,298.446 68.020,299.556 66.771 C 300.357 65.868,301.014 64.918,301.014 64.659 C 301.014 63.962,300.753 64.089,300.491 64.914 M287.387 64.752 C 287.264 64.876,287.172 65.294,287.184 65.681 C 287.203 66.328,287.231 66.320,287.529 65.576 C 287.860 64.749,287.791 64.349,287.387 64.752 M59.459 67.031 C 60.970 67.651,64.971 67.656,66.723 67.041 C 68.015 66.587,68.022 66.577,66.892 66.801 C 65.345 67.109,60.961 67.102,59.459 66.791 L 58.277 66.545 59.459 67.031 M286.554 68.428 C 286.331 69.261,286.166 70.434,286.188 71.035 C 286.210 71.651,286.285 71.833,286.361 71.453 C 286.434 71.081,286.669 69.978,286.883 69.001 C 287.363 66.804,287.107 66.358,286.554 68.428 M309.465 69.792 C 309.467 70.519,309.626 71.343,309.816 71.622 C 310.063 71.981,310.097 71.639,309.937 70.439 C 309.655 68.331,309.458 68.061,309.465 69.792 M337.843 70.335 C 337.853 71.183,338.503 71.882,338.508 71.050 C 338.511 70.643,338.361 70.216,338.176 70.101 C 337.990 69.987,337.840 70.092,337.843 70.335 M326.689 71.058 C 326.689 71.194,326.917 71.851,327.196 72.518 C 327.475 73.185,327.714 74.207,327.728 74.788 C 327.758 76.010,328.650 78.579,328.691 77.558 C 328.705 77.199,328.577 76.439,328.408 75.869 C 328.238 75.298,327.925 74.071,327.712 73.142 C 327.382 71.701,326.689 70.290,326.689 71.058 M326.068 73.986 C 325.820 75.194,325.478 76.623,325.308 77.162 C 324.918 78.403,324.918 78.807,325.308 78.565 C 325.478 78.461,325.717 77.730,325.839 76.941 C 325.961 76.152,326.213 75.015,326.399 74.415 C 326.585 73.814,326.689 72.978,326.629 72.557 C 326.567 72.122,326.325 72.742,326.068 73.986 M338.739 73.649 C 338.861 74.485,339.065 76.081,339.192 77.196 L 339.424 79.223 339.469 77.365 C 339.494 76.343,339.290 74.747,339.015 73.818 L 338.517 72.128 338.739 73.649 M285.704 73.102 C 285.577 73.433,285.488 74.186,285.507 74.774 C 285.540 75.817,285.549 75.810,285.852 74.516 C 286.187 73.089,286.084 72.111,285.704 73.102 M310.294 74.324 C 310.352 75.346,310.564 76.715,310.767 77.365 C 311.191 78.725,311.048 77.099,310.471 73.986 L 310.189 72.466 310.294 74.324 M296.668 73.986 C 296.637 74.265,296.518 74.873,296.402 75.338 C 296.240 75.990,296.285 76.096,296.602 75.801 C 296.828 75.592,296.947 74.984,296.868 74.450 C 296.788 73.916,296.698 73.708,296.668 73.986 M284.974 77.618 C 284.671 78.823,284.118 82.811,283.957 84.966 L 283.830 86.655 284.132 85.135 C 284.298 84.299,284.593 82.475,284.787 81.081 C 284.982 79.688,285.233 78.129,285.346 77.618 C 285.459 77.107,285.474 76.689,285.380 76.689 C 285.286 76.689,285.103 77.107,284.974 77.618 M295.879 78.209 C 295.658 79.858,295.233 82.581,294.773 85.304 C 294.613 86.245,294.646 86.508,294.881 86.171 C 295.067 85.904,295.312 84.764,295.426 83.637 C 295.540 82.510,295.791 80.970,295.984 80.215 C 296.178 79.461,296.284 78.320,296.221 77.682 C 296.116 76.630,296.084 76.680,295.879 78.209 M311.171 79.604 C 311.140 80.603,312.002 82.559,312.728 83.135 C 313.278 83.571,313.274 83.523,312.689 82.608 C 312.335 82.055,311.854 80.991,311.620 80.244 C 311.362 79.421,311.185 79.169,311.171 79.604 M339.749 81.757 C 339.861 83.150,340.009 84.354,340.078 84.431 C 340.348 84.736,340.137 80.533,339.850 79.899 C 339.655 79.467,339.618 80.137,339.749 81.757 M120.675 80.043 C 120.062 80.199,119.454 80.438,119.324 80.575 C 119.194 80.711,119.620 80.690,120.270 80.529 C 121.750 80.163,125.849 80.154,127.196 80.515 C 128.086 80.753,128.128 80.735,127.540 80.366 C 126.733 79.860,122.229 79.648,120.675 80.043 M324.344 81.550 C 323.990 82.994,323.535 83.852,322.687 84.675 C 322.044 85.300,321.678 85.811,321.873 85.811 C 322.422 85.811,324.324 83.495,324.324 82.826 C 324.324 82.498,324.488 82.066,324.689 81.865 C 324.889 81.665,325.003 81.065,324.942 80.531 C 324.852 79.747,324.737 79.943,324.344 81.550 M328.779 81.419 C 328.771 82.255,328.894 83.243,329.054 83.615 C 329.455 84.548,329.466 83.150,329.073 81.250 L 328.794 79.899 328.779 81.419 M130.335 81.654 C 132.463 82.689,135.111 84.995,136.514 87.033 L 137.526 88.505 149.084 88.594 L 160.642 88.682 160.642 95.439 L 160.642 102.196 148.818 102.374 L 136.993 102.551 148.986 102.543 L 160.980 102.534 160.980 95.439 L 160.980 88.345 149.268 88.176 C 142.826 88.083,137.499 87.931,137.430 87.838 C 137.360 87.745,136.864 87.061,136.326 86.318 C 134.497 83.789,130.297 80.651,128.885 80.758 C 128.699 80.773,129.352 81.176,130.335 81.654 M114.519 82.885 C 112.742 84.279,111.769 85.305,110.342 87.287 L 109.705 88.173 69.661 88.259 C 34.410 88.334,29.599 88.405,29.462 88.851 C 29.337 89.260,29.394 89.277,29.755 88.936 C 30.108 88.603,38.643 88.514,70.084 88.514 L 109.966 88.514 111.592 86.318 C 112.485 85.110,113.323 84.122,113.453 84.122 C 113.583 84.122,114.079 83.761,114.554 83.320 C 115.030 82.878,115.865 82.276,116.409 81.982 C 116.953 81.687,117.171 81.440,116.892 81.433 C 116.613 81.425,115.545 82.079,114.519 82.885 M313.519 83.674 C 313.513 84.088,317.135 86.018,317.407 85.746 C 317.492 85.661,316.765 85.235,315.791 84.799 C 314.817 84.363,313.909 83.843,313.772 83.642 C 313.600 83.389,313.522 83.399,313.519 83.674 M318.834 86.159 C 319.288 86.341,319.902 86.341,320.355 86.159 C 320.975 85.910,320.836 85.854,319.595 85.854 C 318.353 85.854,318.214 85.910,318.834 86.159 M329.558 89.020 C 329.704 93.566,330.367 101.651,330.737 103.378 C 331.038 104.786,331.050 104.736,330.896 102.703 C 330.804 101.495,330.576 98.454,330.389 95.946 C 330.201 93.438,329.916 90.169,329.754 88.682 L 329.460 85.980 329.558 89.020 M340.414 89.358 C 340.523 90.659,340.720 93.278,340.851 95.178 C 340.982 97.079,341.194 98.739,341.321 98.867 C 341.449 98.994,341.554 98.936,341.554 98.737 C 341.554 98.538,342.086 97.434,342.736 96.284 C 344.001 94.047,344.111 93.760,343.580 94.088 C 343.394 94.204,342.938 94.963,342.568 95.777 C 341.499 98.123,341.332 97.866,341.085 93.485 C 340.957 91.215,340.709 88.826,340.534 88.176 C 340.290 87.268,340.262 87.543,340.414 89.358 M283.339 88.305 C 283.212 88.636,283.123 89.388,283.142 89.977 C 283.175 91.020,283.184 91.013,283.487 89.719 C 283.822 88.291,283.719 87.314,283.339 88.305 M362.987 89.040 C 361.883 89.701,360.676 90.558,360.304 90.944 C 359.482 91.799,359.679 91.695,362.611 89.725 C 365.471 87.804,367.545 87.601,369.563 89.045 L 370.777 89.914 369.607 88.876 C 367.891 87.353,365.714 87.407,362.987 89.040 M294.314 88.725 C 294.282 89.120,294.171 89.956,294.065 90.583 C 293.909 91.514,293.944 91.614,294.254 91.126 C 294.464 90.798,294.575 89.961,294.503 89.268 C 294.430 88.574,294.345 88.330,294.314 88.725 M347.635 90.738 C 347.032 91.073,346.954 91.208,347.362 91.211 C 347.676 91.214,348.027 91.064,348.142 90.878 C 348.680 90.007,350.690 90.540,352.286 91.976 C 353.163 92.766,353.654 93.108,353.376 92.736 C 351.576 90.326,349.610 89.642,347.635 90.738 M371.525 91.807 C 372.021 92.690,372.929 94.552,373.541 95.946 C 374.153 97.340,374.656 98.212,374.658 97.884 C 374.660 97.556,374.523 97.024,374.352 96.701 C 374.181 96.379,373.396 94.785,372.607 93.159 C 371.818 91.533,371.049 90.203,370.897 90.203 C 370.746 90.203,371.028 90.925,371.525 91.807 M344.993 92.175 C 344.402 92.703,343.919 93.270,343.919 93.435 C 343.919 93.601,344.261 93.390,344.679 92.967 C 345.097 92.545,345.743 91.983,346.115 91.718 C 346.486 91.454,346.628 91.233,346.429 91.227 C 346.230 91.221,345.584 91.648,344.993 92.175 M358.636 93.195 C 358.313 93.912,358.117 94.863,358.201 95.307 C 358.345 96.067,358.357 96.060,358.400 95.196 C 358.425 94.691,358.747 93.741,359.116 93.085 C 359.484 92.429,359.659 91.892,359.505 91.892 C 359.351 91.892,358.960 92.478,358.636 93.195 M293.438 94.172 C 293.308 95.241,293.142 96.875,293.070 97.804 L 292.939 99.493 293.272 97.973 C 293.677 96.126,294.060 92.230,293.837 92.230 C 293.748 92.230,293.569 93.104,293.438 94.172 M282.664 94.003 C 282.491 94.663,282.201 94.935,281.666 94.940 C 279.979 94.956,276.669 97.077,276.700 98.121 C 276.706 98.318,277.034 98.046,277.429 97.516 C 278.207 96.472,280.634 95.270,281.964 95.270 C 282.847 95.270,283.246 94.680,283.037 93.685 C 282.940 93.225,282.848 93.303,282.664 94.003 M353.716 93.761 C 353.716 94.482,355.503 96.280,356.183 96.245 C 356.840 96.210,356.851 96.186,356.274 96.039 C 355.530 95.850,354.730 95.135,354.730 94.660 C 354.730 94.484,354.502 94.150,354.223 93.919 C 353.944 93.688,353.716 93.617,353.716 93.761 M374.686 98.882 C 374.762 99.759,375.290 100.503,375.314 99.767 C 375.327 99.359,375.186 98.932,375.000 98.818 C 374.814 98.703,374.673 98.732,374.686 98.882 M292.443 101.132 C 292.302 101.848,292.265 102.512,292.360 102.608 C 292.616 102.864,292.987 101.170,292.833 100.449 C 292.753 100.076,292.599 100.347,292.443 101.132 M275.542 101.922 C 275.429 102.816,275.276 105.068,275.201 106.926 C 275.127 108.784,275.122 109.772,275.191 109.122 C 275.260 108.471,275.494 106.300,275.711 104.297 C 276.095 100.744,275.950 98.691,275.542 101.922 M375.351 101.078 C 375.344 101.392,375.490 101.743,375.676 101.858 C 375.861 101.973,376.034 102.476,376.060 102.976 C 376.098 103.743,376.128 103.770,376.249 103.144 C 376.329 102.737,376.162 101.977,375.879 101.455 C 375.535 100.821,375.360 100.696,375.351 101.078 M29.530 102.103 C 29.600 102.449,37.559 102.551,69.804 102.620 L 109.991 102.705 110.629 103.802 C 111.673 105.596,115.959 109.492,116.401 109.049 C 116.493 108.958,115.995 108.502,115.294 108.037 C 113.703 106.981,112.006 105.281,110.897 103.632 L 110.045 102.365 69.916 102.365 C 42.847 102.365,29.730 102.252,29.614 102.019 C 29.520 101.828,29.482 101.866,29.530 102.103 M136.363 103.863 C 135.574 105.068,135.680 105.324,136.525 104.251 C 136.918 103.751,137.166 103.270,137.078 103.181 C 136.989 103.092,136.667 103.399,136.363 103.863 M291.943 104.072 C 291.832 105.948,288.242 110.094,286.318 110.566 C 285.687 110.721,285.685 110.735,286.286 110.772 C 287.376 110.838,289.891 108.697,291.326 106.480 C 291.947 105.520,292.223 104.711,292.132 104.115 L 291.993 103.209 291.943 104.072 M376.574 105.135 C 376.858 106.629,377.027 106.758,377.027 105.482 C 377.027 104.904,376.877 104.339,376.694 104.226 C 376.486 104.098,376.441 104.439,376.574 105.135 M377.037 107.095 C 377.037 107.373,377.185 107.829,377.365 108.108 C 377.656 108.559,377.692 108.559,377.692 108.108 C 377.692 107.829,377.545 107.373,377.365 107.095 C 377.074 106.644,377.037 106.644,377.037 107.095 M131.757 108.328 C 130.528 109.225,130.610 109.252,132.179 108.465 C 132.690 108.209,133.108 107.872,133.108 107.716 C 133.108 107.340,133.117 107.336,131.757 108.328 M331.131 109.797 C 331.109 111.005,331.239 112.221,331.419 112.500 C 331.821 113.122,331.828 111.814,331.434 109.291 L 331.171 107.601 331.131 109.797 M349.822 109.375 C 349.717 109.886,349.486 110.854,349.309 111.526 C 348.907 113.048,348.906 113.265,349.301 113.021 C 349.473 112.915,349.719 111.991,349.847 110.970 C 350.118 108.799,350.398 108.524,351.564 109.288 C 352.037 109.598,352.500 109.774,352.594 109.680 C 352.787 109.488,350.901 108.446,350.361 108.446 C 350.170 108.446,349.927 108.864,349.822 109.375 M116.992 109.309 C 118.282 110.722,125.949 111.390,128.209 110.285 C 129.025 109.887,129.058 109.835,128.378 110.020 C 127.914 110.147,126.040 110.311,124.214 110.385 C 121.036 110.513,120.349 110.401,117.399 109.272 C 117.018 109.127,116.840 109.143,116.992 109.309 M377.732 109.628 C 377.733 110.863,378.668 113.838,378.688 112.669 C 378.698 112.111,378.487 111.047,378.219 110.304 C 377.951 109.561,377.732 109.257,377.732 109.628 M353.436 110.005 C 353.781 110.109,354.089 110.692,354.226 111.504 C 354.417 112.633,355.078 113.770,355.062 112.942 C 355.043 111.915,354.034 109.957,353.495 109.901 C 352.997 109.849,352.985 109.870,353.436 110.005 M366.785 111.233 C 367.064 112.667,367.851 114.826,367.882 114.241 C 367.911 113.682,366.897 110.135,366.707 110.135 C 366.632 110.135,366.667 110.629,366.785 111.233 M285.348 114.244 C 285.189 116.040,285.132 117.712,285.221 117.960 C 285.479 118.682,285.871 114.877,285.748 112.838 C 285.649 111.200,285.602 111.366,285.348 114.244 M366.262 112.500 C 366.232 112.779,366.112 113.387,365.997 113.851 C 365.834 114.504,365.880 114.609,366.197 114.315 C 366.422 114.105,366.542 113.497,366.462 112.963 C 366.383 112.430,366.293 112.221,366.262 112.500 M274.569 113.809 C 274.435 114.436,274.345 115.957,274.369 117.188 L 274.414 119.426 274.709 116.723 C 275.042 113.674,274.961 111.988,274.569 113.809 M331.791 114.222 C 331.670 117.304,336.902 122.024,340.318 121.914 L 341.723 121.869 340.203 121.629 C 336.302 121.013,332.942 118.028,332.081 114.415 C 331.847 113.434,331.823 113.418,331.791 114.222 M348.695 114.696 C 348.664 115.068,348.555 115.752,348.452 116.216 C 348.290 116.945,348.317 116.979,348.647 116.461 C 348.857 116.131,348.967 115.447,348.890 114.941 C 348.799 114.341,348.731 114.256,348.695 114.696 M378.750 114.592 C 378.851 115.917,379.324 116.737,379.358 115.645 C 379.377 115.052,379.240 114.473,379.054 114.358 C 378.868 114.243,378.731 114.348,378.750 114.592 M365.429 115.844 C 365.173 117.123,363.260 119.129,362.079 119.356 L 361.318 119.503 362.066 119.549 C 363.519 119.638,366.233 116.436,365.801 115.141 C 365.722 114.902,365.554 115.219,365.429 115.844 M367.939 116.112 C 367.921 116.705,368.057 117.284,368.243 117.399 C 368.632 117.639,368.632 117.091,368.243 115.878 C 367.985 115.072,367.971 115.082,367.939 116.112 M355.770 116.144 C 355.701 117.264,357.840 119.570,358.953 119.576 C 359.447 119.578,359.331 119.433,358.520 119.033 C 357.469 118.515,356.407 117.334,355.987 116.216 C 355.862 115.884,355.787 115.859,355.770 116.144 M347.973 118.018 C 347.973 119.181,345.994 121.288,344.595 121.614 L 343.412 121.890 344.511 121.925 C 345.965 121.971,348.311 119.673,348.311 118.203 C 348.311 117.667,348.235 117.230,348.142 117.230 C 348.049 117.230,347.973 117.584,347.973 118.018 M379.557 118.412 C 380.171 121.430,380.428 122.579,380.728 123.649 L 381.059 124.831 380.921 123.649 C 380.652 121.339,380.036 118.467,379.696 117.937 C 379.436 117.531,379.401 117.648,379.557 118.412 M368.723 119.088 C 368.876 121.020,369.600 124.405,369.987 125.000 C 370.230 125.373,370.263 125.284,370.113 124.662 C 370.001 124.198,369.749 122.981,369.552 121.959 C 369.355 120.938,369.064 119.569,368.905 118.919 L 368.615 117.736 368.723 119.088 M284.681 122.889 C 284.164 133.700,284.151 134.212,284.467 131.419 C 284.842 128.101,285.281 118.581,285.060 118.581 C 284.965 118.581,284.794 120.519,284.681 122.889 M273.976 121.875 C 273.950 126.679,273.463 128.546,271.802 130.207 C 270.960 131.050,270.270 131.896,270.270 132.087 C 270.270 132.279,269.890 133.224,269.426 134.187 C 268.961 135.149,268.583 136.175,268.585 136.465 C 268.587 136.756,269.107 135.808,269.740 134.358 C 271.178 131.063,271.785 130.133,272.793 129.673 C 273.232 129.473,273.680 128.986,273.788 128.591 C 274.091 127.483,274.457 119.932,274.207 119.932 C 274.086 119.932,273.982 120.807,273.976 121.875 M230.743 120.643 C 231.394 120.843,232.382 121.232,232.939 121.508 L 233.953 122.009 233.155 121.308 C 232.716 120.923,232.108 120.606,231.804 120.603 C 231.499 120.601,230.870 120.527,230.405 120.439 C 229.941 120.352,230.093 120.443,230.743 120.643 M227.351 121.160 C 226.322 121.798,225.332 123.422,225.353 124.436 C 225.362 124.918,225.531 124.707,225.846 123.818 C 226.347 122.404,227.702 121.070,228.873 120.837 C 229.546 120.703,229.546 120.699,228.885 120.663 C 228.514 120.643,227.823 120.866,227.351 121.160 M234.037 122.521 C 234.269 122.615,234.459 122.889,234.459 123.131 C 234.459 123.373,234.687 124.007,234.964 124.539 C 235.621 125.799,235.620 125.096,234.962 123.521 C 234.680 122.848,234.262 122.309,234.033 122.324 C 233.706 122.345,233.707 122.388,234.037 122.521 M61.577 123.308 C 59.202 123.666,59.680 123.818,63.184 123.818 C 65.015 123.818,66.257 123.726,65.943 123.615 C 64.846 123.225,62.996 123.095,61.577 123.308 M57.432 124.307 C 57.154 124.461,56.356 124.867,55.659 125.209 C 54.962 125.550,54.392 125.965,54.392 126.132 C 54.392 126.298,54.582 126.277,54.814 126.085 C 55.046 125.892,56.073 125.354,57.095 124.888 C 58.117 124.423,58.725 124.038,58.446 124.034 C 58.167 124.030,57.711 124.153,57.432 124.307 M69.257 124.925 C 70.279 125.419,71.267 125.937,71.453 126.075 C 73.110 127.314,74.624 128.812,75.730 130.309 L 77.048 132.095 118.930 132.095 L 160.811 132.095 160.811 138.850 L 160.811 145.605 119.088 145.693 L 77.365 145.781 119.172 145.779 L 160.980 145.777 160.980 138.851 L 160.980 131.926 119.007 131.840 L 77.034 131.754 76.217 130.489 C 74.337 127.574,69.548 123.905,67.757 124.007 C 67.560 124.018,68.235 124.431,69.257 124.925 M381.105 125.233 C 381.181 126.110,381.709 126.854,381.733 126.118 C 381.746 125.711,381.605 125.284,381.419 125.169 C 381.233 125.054,381.092 125.083,381.105 125.233 M235.497 125.909 C 235.573 126.786,236.101 127.530,236.125 126.794 C 236.138 126.386,235.997 125.959,235.811 125.845 C 235.625 125.730,235.484 125.759,235.497 125.909 M370.299 126.520 C 370.289 126.892,370.428 127.424,370.608 127.703 C 371.042 128.374,371.042 127.530,370.608 126.520 L 370.318 125.845 370.299 126.520 M52.472 127.618 C 51.725 128.315,50.692 129.531,50.175 130.321 L 49.235 131.757 39.502 131.757 C 34.149 131.757,29.699 131.871,29.613 132.010 C 29.526 132.149,33.923 132.221,39.382 132.169 L 49.308 132.075 49.907 131.193 C 50.237 130.708,51.328 129.420,52.332 128.331 C 54.410 126.077,54.474 125.749,52.472 127.618 M225.388 128.209 C 225.366 128.953,225.577 130.245,225.857 131.081 L 226.365 132.601 226.154 131.250 C 226.037 130.507,225.826 129.215,225.685 128.378 L 225.428 126.858 225.388 128.209 M381.760 127.252 C 381.758 127.469,382.061 128.356,382.432 129.223 C 385.616 136.650,377.439 142.342,373.496 135.444 C 373.027 134.624,372.641 134.153,372.639 134.399 C 372.623 136.151,375.695 138.851,377.704 138.851 C 382.505 138.851,384.966 133.737,382.605 128.665 C 382.142 127.671,381.762 127.036,381.760 127.252 M236.320 128.716 C 236.440 129.181,236.678 130.169,236.849 130.912 C 237.021 131.655,237.309 132.796,237.489 133.446 L 237.816 134.628 237.683 133.446 C 237.471 131.550,236.869 129.066,236.470 128.445 C 236.167 127.973,236.141 128.021,236.320 128.716 M370.961 128.931 C 370.953 129.328,371.168 130.164,371.439 130.789 C 372.078 132.261,372.096 131.320,371.462 129.561 C 371.148 128.687,370.970 128.464,370.961 128.931 M226.380 133.615 C 226.370 133.986,226.509 134.519,226.689 134.797 C 227.123 135.469,227.123 134.625,226.689 133.615 L 226.399 132.939 226.380 133.615 M283.847 135.473 C 283.809 136.123,283.699 137.492,283.603 138.514 C 283.462 140.021,283.497 140.216,283.789 139.544 C 283.987 139.090,284.097 137.721,284.033 136.504 C 283.969 135.287,283.885 134.823,283.847 135.473 M237.843 135.537 C 237.853 136.386,238.503 137.084,238.508 136.253 C 238.511 135.846,238.361 135.419,238.176 135.304 C 237.990 135.189,237.840 135.294,237.843 135.537 M227.186 136.824 C 227.449 139.091,228.000 141.541,228.380 142.136 C 228.709 142.652,228.735 142.618,228.563 141.892 C 228.453 141.427,228.214 140.363,228.032 139.527 C 227.851 138.691,227.555 137.475,227.376 136.824 L 227.049 135.642 227.186 136.824 M238.713 138.514 C 239.210 141.260,239.448 142.095,239.483 141.216 C 239.502 140.752,239.288 139.688,239.008 138.851 C 238.592 137.608,238.538 137.547,238.713 138.514 M263.313 138.429 C 262.753 138.940,262.535 139.175,262.829 138.951 C 263.124 138.727,263.892 138.315,264.537 138.035 C 265.374 137.672,265.512 137.523,265.021 137.513 C 264.642 137.506,263.874 137.918,263.313 138.429 M260.903 141.797 C 260.133 143.952,259.799 145.187,259.821 145.801 C 259.834 146.159,260.061 145.693,260.325 144.764 C 260.589 143.834,260.956 142.628,261.140 142.083 C 261.569 140.813,261.350 140.548,260.903 141.797 M283.159 142.684 C 283.131 143.213,282.787 144.096,282.396 144.646 C 282.004 145.197,281.757 145.721,281.847 145.811 C 282.203 146.167,283.475 143.443,283.345 142.603 C 283.211 141.733,283.209 141.734,283.159 142.684 M239.551 142.632 C 239.608 143.703,240.154 144.471,240.179 143.517 C 240.192 143.017,240.051 142.513,239.865 142.399 C 239.679 142.284,239.538 142.389,239.551 142.632 M228.740 144.152 C 228.727 144.559,228.868 144.987,229.054 145.101 C 229.454 145.348,229.454 145.018,229.054 144.088 C 228.774 143.436,228.763 143.439,228.740 144.152 M241.001 145.103 C 242.243 145.751,242.893 145.756,242.041 145.112 C 241.680 144.839,241.081 144.612,240.709 144.607 C 240.169 144.600,240.228 144.700,241.001 145.103 M29.392 145.693 C 29.392 145.832,33.844 145.946,39.285 145.946 L 49.179 145.946 49.745 146.904 C 51.086 149.175,55.561 153.046,56.835 153.038 C 57.070 153.036,56.539 152.618,55.653 152.109 C 53.901 151.101,50.338 147.757,50.338 147.121 C 50.338 145.752,49.497 145.632,39.258 145.534 C 33.831 145.482,29.392 145.553,29.392 145.693 M243.197 146.059 C 243.685 146.647,248.606 148.002,250.110 147.963 C 251.082 147.938,249.319 147.351,247.635 147.139 C 245.505 146.871,243.581 146.273,243.581 145.878 C 243.581 145.730,243.410 145.608,243.202 145.608 C 242.924 145.608,242.923 145.729,243.197 146.059 M75.706 147.422 C 74.609 149.016,71.436 152.027,70.853 152.027 C 70.656 152.027,70.593 152.124,70.712 152.243 C 71.225 152.756,75.588 148.726,76.502 146.895 C 77.188 145.519,76.871 145.729,75.706 147.422 M229.538 146.959 C 229.703 148.542,230.598 151.999,230.919 152.296 C 231.060 152.427,231.059 152.078,230.915 151.520 C 230.772 150.963,230.530 149.975,230.379 149.324 C 230.227 148.674,229.948 147.610,229.759 146.959 L 229.414 145.777 229.538 146.959 M281.325 146.718 C 281.227 146.973,280.638 147.432,280.016 147.738 C 279.394 148.045,279.113 148.298,279.392 148.301 C 280.031 148.309,281.999 146.756,281.714 146.468 C 281.598 146.351,281.422 146.463,281.325 146.718 M259.347 147.185 C 259.223 147.309,259.131 147.727,259.143 148.114 C 259.163 148.761,259.191 148.752,259.488 148.008 C 259.819 147.181,259.750 146.781,259.347 147.185 M251.182 148.368 C 251.554 148.575,252.162 148.987,252.534 149.285 C 252.994 149.654,252.949 149.531,252.390 148.900 C 251.940 148.390,251.332 147.978,251.039 147.983 C 250.636 147.991,250.671 148.085,251.182 148.368 M275.849 149.197 C 275.212 150.722,275.214 151.037,275.855 150.189 C 276.128 149.828,276.351 149.269,276.351 148.945 C 276.351 148.605,276.671 148.296,277.111 148.211 L 277.872 148.065 277.116 148.019 C 276.547 147.984,276.234 148.276,275.849 149.197 M258.487 150.605 C 258.248 151.480,257.895 152.523,257.703 152.923 C 257.511 153.323,257.423 153.855,257.507 154.105 C 257.591 154.356,257.818 154.029,258.011 153.378 C 258.204 152.728,258.558 151.549,258.797 150.758 C 259.035 149.968,259.162 149.252,259.077 149.167 C 258.993 149.083,258.727 149.729,258.487 150.605 M253.311 150.591 C 253.472 150.916,253.798 152.095,254.035 153.209 C 254.272 154.324,254.520 155.427,254.587 155.659 C 254.769 156.290,256.608 156.168,257.121 155.490 C 257.502 154.987,257.498 154.962,257.095 155.321 C 256.293 156.036,254.730 155.859,254.730 155.053 C 254.730 153.879,253.652 150.000,253.325 150.000 C 253.145 150.000,253.139 150.245,253.311 150.591 M274.906 151.801 C 274.529 152.758,274.590 153.247,275.032 152.806 C 275.235 152.603,275.344 152.154,275.275 151.810 C 275.153 151.205,275.140 151.204,274.906 151.801 M57.919 153.520 C 58.280 153.814,59.116 154.037,59.777 154.015 L 60.980 153.976 59.797 153.723 C 59.147 153.584,58.311 153.361,57.939 153.227 C 57.273 152.989,57.273 152.993,57.919 153.520 M68.134 153.262 C 68.013 153.384,67.341 153.594,66.642 153.730 L 65.372 153.976 66.554 154.004 C 67.204 154.020,68.032 153.809,68.392 153.537 C 68.753 153.264,68.892 153.041,68.702 153.041 C 68.512 153.041,68.256 153.140,68.134 153.262 M231.095 153.467 C 231.088 153.795,231.211 154.327,231.371 154.650 C 232.401 156.738,232.991 157.672,233.599 158.181 C 234.733 159.132,234.892 158.860,233.789 157.855 C 233.229 157.344,232.397 156.014,231.940 154.899 C 231.483 153.784,231.103 153.140,231.095 153.467 M274.179 153.992 C 274.040 154.422,273.446 155.322,272.859 155.991 C 272.271 156.660,272.019 157.132,272.297 157.041 C 272.975 156.818,274.752 154.151,274.572 153.626 C 274.494 153.397,274.317 153.562,274.179 153.992 M61.918 154.450 C 62.544 154.678,63.276 154.681,64.114 154.458 C 65.303 154.142,65.252 154.123,63.176 154.116 C 61.305 154.109,61.119 154.158,61.918 154.450 M270.866 157.287 C 270.761 157.393,269.961 157.583,269.089 157.709 C 267.614 157.923,267.471 158.033,267.034 159.291 C 266.441 160.997,266.442 161.088,267.050 160.284 C 267.323 159.923,267.551 159.307,267.557 158.915 C 267.566 158.310,267.833 158.171,269.315 157.995 C 270.811 157.818,272.492 157.095,271.408 157.095 C 271.216 157.095,270.972 157.181,270.866 157.287 M239.189 158.446 C 238.817 158.686,239.060 158.775,240.098 158.779 C 240.877 158.781,241.608 158.936,241.723 159.122 C 241.838 159.307,242.341 159.448,242.841 159.433 C 243.574 159.412,243.423 159.286,242.061 158.784 C 240.055 158.044,239.849 158.019,239.189 158.446 M235.356 159.206 C 235.442 159.345,236.103 159.459,236.824 159.459 C 237.546 159.459,238.206 159.345,238.292 159.206 C 238.379 159.067,237.718 158.953,236.824 158.953 C 235.931 158.953,235.270 159.067,235.356 159.206 M244.623 161.294 C 244.607 161.838,244.739 162.750,244.916 163.321 C 245.093 163.891,245.418 165.085,245.638 165.973 C 245.859 166.860,246.119 167.507,246.216 167.410 C 246.313 167.313,246.227 166.662,246.025 165.965 C 245.822 165.267,245.431 163.708,245.154 162.500 C 244.835 161.108,244.641 160.666,244.623 161.294 M265.538 162.925 C 265.100 163.899,264.170 165.300,263.471 166.038 C 262.772 166.777,262.278 167.458,262.373 167.553 C 262.678 167.858,264.859 165.090,265.766 163.249 C 266.249 162.267,266.575 161.394,266.489 161.309 C 266.404 161.224,265.976 161.951,265.538 162.925 M261.149 167.905 C 260.870 168.085,259.768 168.407,258.699 168.620 C 257.631 168.833,256.757 169.127,256.757 169.274 C 256.757 169.421,256.143 170.161,255.392 170.919 C 254.642 171.677,254.178 172.297,254.362 172.297 C 254.546 172.297,255.268 171.613,255.967 170.777 C 256.666 169.941,257.482 169.257,257.782 169.257 C 258.571 169.257,261.453 168.233,261.675 167.874 C 261.915 167.486,261.786 167.494,261.149 167.905 M246.292 168.107 C 246.240 170.544,250.885 173.737,253.066 172.763 C 253.691 172.485,253.532 172.427,252.137 172.427 C 249.875 172.427,248.374 171.506,247.221 169.411 C 246.714 168.490,246.296 167.903,246.292 168.107 " stroke="none" fill="#42bd72" fill-rule="evenodd"></path><path id="path3" d="M305.613 18.853 C 307.479 19.622,308.054 20.151,308.782 21.772 C 309.373 23.085,309.550 24.057,310.015 28.547 C 310.252 30.835,310.577 31.419,311.612 31.419 C 312.341 31.420,314.180 32.768,314.200 33.316 C 314.223 33.946,315.203 34.976,315.203 34.369 C 315.203 33.445,312.716 31.081,311.744 31.081 C 310.768 31.081,310.476 30.553,310.467 28.773 C 310.437 22.772,307.855 18.116,304.638 18.262 C 304.410 18.273,304.848 18.539,305.613 18.853 M301.655 19.353 C 300.057 20.428,299.481 21.863,298.841 26.351 C 298.537 28.488,298.141 30.885,297.961 31.677 C 297.782 32.470,297.648 33.534,297.664 34.042 L 297.693 34.966 298.003 33.953 C 298.287 33.022,298.513 31.536,299.321 25.305 C 299.803 21.590,300.909 19.792,303.209 18.989 C 304.000 18.712,304.067 18.629,303.513 18.608 C 303.122 18.593,302.286 18.929,301.655 19.353 M315.402 36.486 C 315.511 37.323,315.723 38.843,315.872 39.865 C 316.021 40.887,316.317 43.099,316.529 44.780 C 316.962 48.221,317.698 51.106,317.386 48.142 C 316.859 43.133,315.962 37.199,315.548 35.980 C 315.246 35.091,315.228 35.153,315.402 36.486 M297.348 36.029 C 297.320 36.427,296.651 37.440,295.861 38.278 C 295.072 39.117,294.249 40.387,294.033 41.101 C 293.419 43.126,292.814 46.515,292.977 47.006 C 293.059 47.250,293.309 46.466,293.533 45.262 C 294.316 41.065,294.707 40.091,296.219 38.569 C 297.362 37.420,297.645 36.911,297.537 36.205 C 297.430 35.512,297.387 35.471,297.348 36.029 M57.683 37.672 C 54.472 38.972,51.435 41.556,50.043 44.172 L 49.638 44.932 39.690 44.932 L 29.743 44.932 29.556 45.693 C 29.453 46.111,29.412 49.189,29.465 52.534 L 29.561 58.615 39.436 58.704 L 49.311 58.794 50.626 60.574 C 57.137 69.388,69.217 69.385,75.730 60.569 L 77.048 58.784 118.741 58.784 C 141.672 58.784,160.504 58.670,160.590 58.530 C 160.676 58.391,141.846 58.316,118.745 58.364 L 76.743 58.451 75.512 60.128 C 68.973 69.036,56.215 68.840,50.473 59.743 L 49.660 58.456 39.779 58.367 L 29.899 58.277 29.899 52.027 L 29.899 45.777 39.668 45.608 L 49.437 45.439 51.013 43.412 C 52.897 40.988,55.741 38.725,57.601 38.170 C 58.345 37.949,59.302 37.631,59.729 37.465 C 64.178 35.729,72.653 39.008,75.394 43.526 C 75.807 44.207,76.382 44.916,76.671 45.101 C 77.398 45.569,160.853 45.905,160.698 45.439 C 160.624 45.217,146.230 45.072,118.649 45.016 L 76.712 44.930 76.325 44.171 C 73.380 38.398,63.981 35.121,57.683 37.672 M292.259 50.929 C 292.029 52.555,291.701 54.523,291.529 55.302 C 291.357 56.081,291.216 57.077,291.216 57.516 C 291.216 57.955,290.728 59.066,290.132 59.985 C 288.651 62.266,288.014 63.707,287.522 65.886 C 287.292 66.904,286.965 68.286,286.795 68.958 C 286.625 69.630,286.496 70.542,286.508 70.985 C 286.541 72.212,287.042 70.831,287.335 68.710 C 287.752 65.683,288.847 62.612,290.225 60.610 C 291.413 58.883,291.978 56.478,292.778 49.747 C 293.129 46.798,292.707 47.759,292.259 50.929 M327.031 49.573 C 324.972 49.958,324.299 50.874,321.626 56.926 C 319.301 62.192,319.418 62.306,318.114 53.547 C 317.578 49.954,317.622 51.963,318.184 56.757 C 318.836 62.325,319.366 62.628,321.284 58.530 C 322.046 56.905,322.813 55.310,322.990 54.988 C 323.166 54.665,323.311 54.225,323.311 54.010 C 323.311 50.209,330.114 48.384,331.930 51.698 C 332.859 53.393,333.446 54.850,333.446 55.462 C 333.446 55.807,333.594 56.354,333.776 56.677 C 333.958 57.000,334.272 57.925,334.474 58.733 C 334.676 59.542,334.918 60.127,335.012 60.033 C 335.178 59.867,334.644 57.593,334.123 56.250 C 333.979 55.878,333.661 54.908,333.416 54.095 C 332.301 50.387,330.292 48.964,327.031 49.573 M302.581 51.248 C 302.462 51.367,302.376 51.781,302.389 52.168 C 302.412 52.860,302.417 52.861,302.703 52.196 C 302.901 51.735,303.004 51.681,303.029 52.027 C 303.111 53.181,305.762 55.405,307.055 55.405 C 307.417 55.405,307.791 55.595,307.884 55.828 C 308.018 56.158,308.061 56.156,308.081 55.817 C 308.096 55.579,307.842 55.302,307.517 55.201 C 305.616 54.613,304.625 53.913,303.758 52.545 C 303.230 51.712,302.700 51.128,302.581 51.248 M301.913 54.223 C 301.696 55.142,301.408 57.197,300.822 61.993 C 300.557 64.163,299.963 65.466,298.680 66.694 C 297.293 68.021,296.523 70.605,296.105 75.338 C 295.972 76.840,296.334 75.386,297.366 70.270 C 297.626 68.982,298.076 68.049,298.833 67.230 C 300.410 65.523,300.857 64.397,301.316 60.980 C 301.541 59.307,301.886 57.171,302.083 56.233 C 302.485 54.314,302.329 52.461,301.913 54.223 M308.188 57.432 C 308.188 58.083,308.304 59.071,308.446 59.628 L 308.704 60.642 308.704 59.459 C 308.704 58.809,308.588 57.821,308.446 57.264 L 308.188 56.250 308.188 57.432 M335.135 61.241 C 335.135 61.726,335.287 62.216,335.473 62.331 C 335.659 62.446,335.811 62.837,335.811 63.200 C 335.811 63.564,336.201 65.341,336.677 67.150 C 338.067 72.429,338.125 72.673,338.655 75.507 C 339.064 77.693,339.130 77.854,339.002 76.351 C 338.786 73.814,338.475 72.318,336.861 66.075 C 335.433 60.548,335.135 59.714,335.135 61.241 M308.947 62.669 C 309.078 64.778,309.392 67.091,310.324 72.804 C 310.627 74.662,311.010 77.056,311.176 78.124 C 311.925 82.957,315.098 85.811,319.721 85.811 C 321.646 85.811,323.988 84.178,323.985 82.838 C 323.984 82.459,323.771 82.613,323.357 83.291 C 320.970 87.206,312.936 85.034,312.057 80.236 C 311.955 79.679,311.624 77.931,311.322 76.351 C 310.729 73.256,310.327 70.643,309.788 66.385 C 309.243 62.081,308.785 60.056,308.947 62.669 M326.375 71.199 C 326.396 72.014,326.433 72.045,326.676 71.453 C 326.974 70.725,326.925 70.659,327.796 72.973 C 327.925 73.315,327.996 73.237,328.014 72.735 C 328.051 71.702,327.348 70.270,326.804 70.270 C 326.530 70.270,326.361 70.636,326.375 71.199 M285.653 75.591 C 285.313 77.589,284.924 80.059,284.789 81.081 C 284.654 82.103,284.278 84.611,283.954 86.655 C 283.630 88.699,283.269 91.434,283.152 92.732 L 282.939 95.092 281.757 95.296 C 277.199 96.081,275.436 99.555,275.354 107.911 C 275.325 110.832,275.657 109.376,276.039 104.905 C 276.615 98.170,277.656 96.414,281.297 96.038 C 283.323 95.829,283.276 95.900,283.580 92.568 C 283.778 90.401,284.212 87.326,284.986 82.601 C 286.197 75.218,286.636 71.959,286.422 71.959 C 286.339 71.959,285.993 73.594,285.653 75.591 M325.739 73.723 C 325.536 74.518,325.198 76.005,324.986 77.027 C 324.774 78.049,324.444 79.438,324.252 80.113 C 324.061 80.788,323.974 81.548,324.059 81.802 C 324.144 82.056,324.399 81.427,324.624 80.405 C 325.321 77.250,325.708 75.565,326.084 74.061 C 326.282 73.266,326.369 72.540,326.276 72.447 C 326.183 72.354,325.941 72.928,325.739 73.723 M328.217 74.831 C 328.318 75.574,328.543 77.247,328.718 78.547 C 329.138 81.679,330.010 90.678,330.402 95.946 C 331.237 107.139,331.463 109.778,331.746 111.655 C 332.316 115.423,331.878 108.572,330.570 93.243 C 329.440 79.991,328.929 75.538,328.401 74.324 C 328.079 73.583,328.056 73.645,328.217 74.831 M295.343 79.237 C 294.842 81.839,294.652 83.059,294.265 86.149 C 294.090 87.542,293.872 89.063,293.779 89.527 C 293.687 89.992,293.366 92.196,293.065 94.426 C 292.763 96.655,292.376 99.029,292.205 99.701 C 292.033 100.373,291.892 101.372,291.892 101.922 C 291.892 104.489,290.068 107.560,287.393 109.498 C 286.653 110.034,286.260 110.472,286.520 110.471 C 287.295 110.467,290.146 107.821,291.008 106.306 C 291.758 104.987,292.295 102.505,293.213 96.115 C 293.399 94.814,293.788 92.154,294.076 90.203 C 294.364 88.252,294.755 85.591,294.944 84.291 C 295.133 82.990,295.454 81.066,295.656 80.016 C 295.859 78.966,295.958 77.908,295.877 77.666 C 295.796 77.423,295.556 78.130,295.343 79.237 M339.384 81.419 C 339.471 82.813,339.678 85.701,339.844 87.838 C 340.011 89.975,340.255 93.319,340.388 95.270 C 340.744 100.484,340.979 100.685,342.704 97.253 C 345.076 92.536,345.239 92.370,348.666 91.201 C 350.437 90.596,351.679 91.380,353.655 94.351 C 354.561 95.713,355.493 96.759,355.764 96.719 C 358.193 96.364,358.529 96.129,359.056 94.420 C 359.810 91.972,362.657 89.500,365.878 88.497 L 366.723 88.234 365.822 88.205 C 363.417 88.127,358.446 92.767,358.446 95.090 C 358.446 96.526,355.818 96.615,354.645 95.219 C 354.134 94.611,353.716 93.937,353.716 93.721 C 353.716 92.099,349.669 90.033,348.053 90.830 C 344.528 92.570,344.958 92.067,341.690 98.273 C 341.177 99.247,341.019 98.574,340.749 94.257 C 340.389 88.513,339.825 82.159,339.535 80.574 C 339.257 79.055,339.241 79.140,339.384 81.419 M120.101 80.559 C 118.058 81.063,115.753 82.208,114.566 83.309 C 114.084 83.756,113.583 84.122,113.453 84.122 C 113.323 84.122,112.485 85.110,111.592 86.318 L 109.966 88.514 70.084 88.514 C 39.516 88.514,30.108 88.608,29.797 88.919 C 29.369 89.347,29.192 100.775,29.597 101.830 C 29.782 102.314,33.650 102.365,69.924 102.365 L 110.045 102.365 110.897 103.632 C 113.376 107.320,118.476 110.530,121.719 110.444 C 122.548 110.422,122.286 110.283,120.608 109.853 C 116.519 108.806,113.715 106.986,111.761 104.113 C 111.171 103.244,110.450 102.382,110.158 102.196 C 109.817 101.978,95.466 101.798,69.764 101.689 L 29.899 101.520 29.899 95.270 L 29.899 89.020 70.101 88.926 L 110.304 88.832 111.458 87.132 C 112.823 85.122,114.956 83.185,116.771 82.311 C 117.488 81.965,118.307 81.567,118.590 81.426 C 123.689 78.893,132.072 81.533,135.798 86.845 L 137.193 88.834 148.970 88.927 C 155.447 88.978,160.676 88.906,160.590 88.767 C 160.504 88.628,155.280 88.514,148.983 88.514 L 137.532 88.514 136.517 87.037 C 132.819 81.663,126.206 79.053,120.101 80.559 M368.000 88.692 C 370.628 89.657,374.448 97.370,376.171 105.192 C 376.288 105.725,376.474 106.071,376.583 105.962 C 376.780 105.765,376.207 103.169,375.678 101.858 C 375.528 101.486,374.995 99.966,374.493 98.480 C 372.447 92.424,369.548 88.141,367.536 88.199 C 366.878 88.219,366.966 88.313,368.000 88.692 M149.041 101.689 C 137.672 101.855,137.428 101.873,136.879 102.584 C 134.467 105.702,133.775 106.439,132.319 107.444 C 130.030 109.021,129.510 109.257,127.196 109.766 C 124.414 110.377,124.328 110.416,125.680 110.446 C 129.140 110.524,134.511 107.100,136.675 103.437 L 137.308 102.365 148.870 102.365 C 156.695 102.365,160.505 102.248,160.656 102.005 C 160.975 101.487,161.647 101.506,149.041 101.689 M376.844 107.264 C 377.056 108.709,377.581 111.282,378.223 114.020 C 378.527 115.321,378.894 117.069,379.037 117.905 C 379.492 120.569,380.464 124.378,380.643 124.199 C 380.799 124.043,380.529 122.598,379.719 119.257 C 379.439 118.102,378.223 112.322,377.692 109.628 C 377.546 108.885,377.262 107.821,377.061 107.264 L 376.696 106.250 376.844 107.264 M349.349 109.544 C 349.127 110.519,348.820 112.002,348.666 112.838 C 347.457 119.415,347.254 119.881,345.090 121.052 C 344.323 121.467,344.239 121.598,344.731 121.608 C 345.085 121.616,345.928 121.040,346.603 120.330 C 347.886 118.982,347.818 119.212,349.657 110.037 C 350.011 108.275,350.174 108.197,351.792 109.012 C 352.571 109.405,353.438 109.800,353.716 109.889 C 353.995 109.978,354.416 110.791,354.653 111.697 C 355.981 116.790,356.729 118.170,358.651 119.082 C 360.864 120.132,363.899 119.087,365.039 116.882 C 365.896 115.225,365.572 114.947,364.671 116.566 C 362.694 120.115,358.370 120.012,356.617 116.375 C 356.262 115.637,355.844 114.770,355.688 114.447 C 355.533 114.125,355.405 113.521,355.405 113.107 C 355.405 111.980,354.359 109.459,353.891 109.459 C 353.346 109.459,351.416 108.486,351.169 108.087 C 350.589 107.148,349.738 107.829,349.349 109.544 M366.380 110.389 C 366.277 110.899,366.046 111.784,365.867 112.355 C 365.549 113.367,365.443 115.399,365.746 114.665 C 365.830 114.462,366.099 113.322,366.344 112.131 L 366.788 109.966 367.300 111.824 C 367.581 112.846,368.054 114.671,368.351 115.878 C 368.850 117.912,368.900 116.993,368.415 114.696 C 367.392 109.851,366.758 108.510,366.380 110.389 M274.912 113.682 C 273.901 129.624,273.986 129.020,272.644 129.788 C 271.654 130.356,270.292 132.696,269.091 135.895 C 268.508 137.450,268.446 137.500,267.099 137.507 C 264.518 137.521,262.215 139.072,261.341 141.385 C 260.833 142.730,260.122 145.708,260.274 145.859 C 260.359 145.944,260.598 145.353,260.805 144.544 C 262.031 139.752,263.904 137.838,267.362 137.838 C 268.698 137.838,268.811 137.762,269.240 136.571 C 270.423 133.290,271.692 131.079,273.026 129.971 L 274.428 128.806 274.723 123.609 C 274.886 120.751,275.106 116.892,275.213 115.034 C 275.320 113.176,275.349 111.275,275.278 110.811 C 275.206 110.346,275.042 111.639,274.912 113.682 M285.246 110.895 C 285.099 111.128,284.950 112.990,284.915 115.034 L 284.850 118.750 285.146 115.541 C 285.308 113.775,285.521 111.913,285.618 111.402 C 285.807 110.403,285.673 110.219,285.246 110.895 M332.117 114.358 C 332.056 116.978,337.177 121.687,339.991 121.599 C 340.440 121.585,340.204 121.410,339.358 121.132 C 336.119 120.067,333.917 118.093,332.748 115.203 C 332.392 114.325,332.126 113.968,332.117 114.358 M368.919 118.689 C 368.919 119.266,369.082 120.023,370.312 125.169 C 371.397 129.704,371.642 129.579,370.645 125.000 C 370.463 124.164,370.080 122.356,369.793 120.982 C 369.282 118.533,368.919 117.580,368.919 118.689 M284.350 122.973 C 283.914 128.009,283.441 134.989,283.286 138.682 C 283.169 141.470,283.228 141.174,283.623 136.993 C 284.502 127.679,284.871 122.478,284.749 121.115 C 284.669 120.213,284.536 120.830,284.350 122.973 M227.092 121.899 C 225.666 123.231,225.217 125.131,225.660 127.967 C 226.281 131.944,227.602 138.187,227.881 138.466 C 228.281 138.867,228.015 137.231,227.008 133.108 C 225.200 125.711,225.457 123.251,228.209 121.568 C 228.848 121.178,229.017 120.948,228.667 120.947 C 228.362 120.947,227.653 121.375,227.092 121.899 M232.177 121.549 C 233.413 122.104,235.135 124.809,235.135 126.196 C 235.135 126.472,235.273 126.962,235.441 127.285 C 235.610 127.608,236.018 129.088,236.349 130.574 C 236.954 133.298,237.755 135.389,237.319 133.108 C 236.672 129.723,235.593 125.818,234.949 124.526 C 234.680 123.986,234.459 123.392,234.459 123.205 C 234.459 122.613,232.341 120.945,231.611 120.963 C 231.111 120.976,231.273 121.142,232.177 121.549 M341.976 121.855 C 342.302 121.939,342.834 121.939,343.159 121.855 C 343.484 121.770,343.218 121.700,342.568 121.700 C 341.917 121.700,341.651 121.770,341.976 121.855 M59.966 123.937 C 58.463 124.214,56.893 124.972,57.787 124.990 C 58.075 124.995,58.481 124.830,58.689 124.622 C 58.922 124.389,60.544 124.240,62.923 124.234 C 68.383 124.218,71.816 125.879,74.982 130.068 C 75.614 130.904,76.361 131.778,76.643 132.010 C 77.047 132.343,85.981 132.432,118.786 132.432 C 151.775 132.432,160.452 132.520,160.587 132.855 C 160.689 133.107,160.768 133.039,160.784 132.686 C 160.809 132.126,158.601 132.095,118.930 132.095 L 77.048 132.095 75.730 130.309 C 74.624 128.812,73.103 127.307,71.453 126.076 C 69.045 124.279,63.608 123.267,59.966 123.937 M380.767 125.402 C 380.754 125.902,380.895 126.405,381.081 126.520 C 381.267 126.635,381.419 127.005,381.419 127.342 C 381.419 127.679,381.742 128.684,382.136 129.576 C 383.479 132.613,382.585 136.310,380.228 137.464 C 376.623 139.229,374.462 137.696,372.650 132.088 C 372.043 130.212,371.468 128.758,371.370 128.855 C 371.273 128.953,371.348 129.455,371.537 129.972 C 371.726 130.489,372.078 131.596,372.319 132.432 C 373.886 137.877,376.706 139.733,380.408 137.757 C 382.403 136.692,383.207 135.012,383.016 132.308 C 382.860 130.091,380.808 123.792,380.767 125.402 M55.049 125.960 C 53.599 126.888,51.149 129.384,49.904 131.203 L 49.300 132.084 39.431 132.174 L 29.561 132.264 29.469 138.658 C 29.418 142.175,29.494 145.170,29.638 145.314 C 29.781 145.458,29.854 142.619,29.800 139.004 L 29.702 132.432 39.513 132.432 C 49.825 132.432,50.676 132.304,50.676 130.748 C 50.676 130.171,53.896 127.148,55.530 126.191 C 56.390 125.686,57.095 125.212,57.095 125.137 C 57.095 124.806,56.446 125.067,55.049 125.960 M237.535 135.204 C 237.516 135.706,237.637 136.466,237.805 136.893 C 237.973 137.320,238.373 138.961,238.694 140.541 C 239.545 144.731,239.803 145.224,241.385 145.687 C 242.128 145.904,242.813 146.181,242.905 146.301 C 243.444 147.000,247.869 148.311,249.689 148.311 C 251.436 148.311,253.125 150.396,253.646 153.195 C 254.144 155.870,254.390 156.274,255.669 156.522 C 256.716 156.725,257.770 155.979,257.770 155.035 C 257.770 154.703,257.922 154.338,258.108 154.223 C 258.294 154.108,258.437 153.681,258.427 153.274 C 258.413 152.735,258.253 152.903,257.836 153.890 C 257.521 154.636,257.141 155.434,256.990 155.664 C 256.633 156.209,254.744 156.205,254.587 155.659 C 254.520 155.427,254.272 154.324,254.035 153.209 C 253.159 149.095,250.951 147.385,246.410 147.309 C 245.726 147.298,244.001 146.635,242.905 145.963 C 242.627 145.792,241.904 145.453,241.299 145.209 C 240.121 144.734,239.816 144.118,239.160 140.878 C 238.235 136.314,237.579 134.025,237.535 135.204 M228.041 139.347 C 228.041 139.682,228.188 140.505,228.369 141.177 C 228.550 141.849,229.005 143.677,229.380 145.239 C 229.755 146.802,230.161 148.170,230.282 148.280 C 230.492 148.470,230.339 147.563,229.720 144.932 C 229.566 144.282,229.205 142.702,228.917 141.421 C 228.386 139.058,228.041 138.242,228.041 139.347 M282.816 142.535 C 282.523 145.560,279.590 148.244,277.273 147.609 C 276.274 147.335,275.000 149.035,275.000 150.642 C 275.000 151.010,274.848 151.405,274.662 151.520 C 274.476 151.635,274.324 152.027,274.324 152.392 C 274.324 153.022,272.954 155.473,272.154 156.273 C 271.747 156.680,270.473 157.049,268.530 157.323 C 267.422 157.479,267.239 157.656,266.727 159.069 C 264.373 165.559,262.607 167.543,258.697 168.094 C 257.454 168.269,256.895 168.561,256.231 169.380 C 254.173 171.919,254.107 171.959,252.006 171.959 C 249.815 171.959,247.297 170.191,247.297 168.653 C 247.297 168.264,247.165 167.864,247.004 167.764 C 246.843 167.664,246.439 166.249,246.107 164.619 C 245.774 162.989,245.364 161.427,245.195 161.149 C 244.892 160.650,244.941 161.017,245.620 164.358 C 246.892 170.614,249.193 173.134,252.983 172.423 C 254.035 172.226,256.757 169.944,256.757 169.260 C 256.757 169.105,257.403 168.871,258.193 168.739 C 262.501 168.022,264.780 165.641,266.912 159.628 C 267.377 158.318,267.688 157.919,268.300 157.850 C 272.336 157.396,273.351 156.411,275.170 151.182 L 276.228 148.142 277.894 148.130 C 279.757 148.117,281.260 147.326,281.619 146.169 C 281.744 145.768,282.140 145.021,282.500 144.510 C 282.862 143.997,283.089 143.240,283.009 142.820 C 282.928 142.403,282.842 142.274,282.816 142.535 M49.779 146.226 C 50.086 146.566,50.338 146.992,50.338 147.173 C 50.338 148.632,57.658 153.753,59.664 153.699 C 60.016 153.689,59.696 153.445,58.953 153.155 C 58.209 152.866,57.119 152.416,56.529 152.156 C 54.736 151.363,52.078 149.057,50.924 147.291 C 50.323 146.372,49.693 145.618,49.525 145.614 C 49.357 145.611,49.471 145.886,49.779 146.226 M75.869 146.537 C 74.535 149.018,70.563 152.128,67.568 153.037 C 66.641 153.318,66.277 153.550,66.637 153.632 C 67.817 153.899,72.081 151.480,73.834 149.548 C 76.816 146.263,77.313 145.608,76.828 145.608 C 76.575 145.608,76.144 146.026,75.869 146.537 M259.348 148.480 C 259.008 149.780,258.657 151.225,258.569 151.689 L 258.409 152.534 258.922 151.689 C 259.205 151.225,259.441 150.381,259.447 149.814 C 259.454 149.247,259.623 148.620,259.824 148.420 C 260.024 148.219,260.138 147.619,260.077 147.085 C 259.991 146.330,259.829 146.639,259.348 148.480 M230.428 149.044 C 230.399 149.769,231.402 153.729,231.783 154.392 C 232.012 154.791,232.076 154.741,232.084 154.158 C 232.090 153.751,231.943 153.324,231.757 153.209 C 231.571 153.095,231.417 152.668,231.414 152.260 C 231.407 151.351,230.460 148.257,230.428 149.044 M61.909 153.962 C 62.606 154.035,63.746 154.035,64.443 153.962 C 65.139 153.889,64.569 153.830,63.176 153.830 C 61.782 153.830,61.212 153.889,61.909 153.962 M232.095 155.253 C 232.095 157.697,235.931 159.684,238.647 158.646 C 239.447 158.341,240.378 158.196,240.715 158.326 C 241.136 158.488,241.251 158.438,241.083 158.166 C 240.784 157.683,239.309 157.642,239.020 158.108 C 238.128 159.551,234.023 158.178,232.934 156.071 C 232.457 155.149,232.095 154.796,232.095 155.253 M242.976 159.040 C 243.850 159.331,244.631 159.811,244.710 160.106 C 244.801 160.444,244.869 160.361,244.893 159.882 C 244.921 159.341,244.743 159.122,244.277 159.122 C 243.916 159.122,243.527 158.970,243.412 158.784 C 243.297 158.598,242.794 158.460,242.294 158.478 C 241.560 158.504,241.691 158.612,242.976 159.040 " stroke="none" fill="#7ecc9c" fill-rule="evenodd"></path></g></svg>